<svg id="Capa_1" data-name="Capa 1" xmlns="http://www.w3.org/2000/svg" xmlns:xlink="http://www.w3.org/1999/xlink" viewBox="0 0 627.5 341.5"><defs><style>.cls-1{fill:#3950a2;}.cls-1,.cls-2{fill-rule:evenodd;}.cls-2{fill:url(#GradientFill_1);}</style><linearGradient id="GradientFill_1" x1="29.17" y1="117.78" x2="184.64" y2="117.78" gradientUnits="userSpaceOnUse"><stop offset="0" stop-color="#f15f24"/><stop offset="1" stop-color="#ee1e48"/></linearGradient></defs><title>Logo final PDP</title><path class="cls-1" d="M275.8,169.29v-3.17a55.53,55.53,0,0,1-9.33,9.42,34.19,34.19,0,0,1-10.68,5.65,43.14,43.14,0,0,1-13.21,1.86,34.26,34.26,0,0,1-16.07-3.71,27.27,27.27,0,0,1-11-10.23q-4.6-7.87-4.61-22.63v-49q0-7.41,3.35-11.08a11.42,11.42,0,0,1,8.87-3.67,11.77,11.77,0,0,1,9,3.71c2.29,2.47,3.44,6.16,3.44,11v39.56a60.74,60.74,0,0,0,1.45,14.43,17.35,17.35,0,0,0,5.2,9.15Q246,164,252.45,164a20.74,20.74,0,0,0,11.76-3.71,21.74,21.74,0,0,0,8.06-9.69q2.09-5.25,2.08-23v-30c0-4.88,1.15-8.57,3.44-11a11.66,11.66,0,0,1,9-3.71,11.42,11.42,0,0,1,8.87,3.67Q299,90.09,299,97.51v71.6q0,7-3.22,10.59a11.43,11.43,0,0,1-16.65-.14Q275.8,175.9,275.8,169.29Z"/><path class="cls-1" d="M340.09,96.43v3a43.15,43.15,0,0,1,14.26-12.62,37.89,37.89,0,0,1,17.78-4A35.55,35.55,0,0,1,389.6,87a27.09,27.09,0,0,1,11.5,12,28.58,28.58,0,0,1,3.16,9.78,99.83,99.83,0,0,1,.73,13.39v46q0,7.43-3.39,11.23a12.21,12.21,0,0,1-17.79-.09q-3.45-3.9-3.44-11.14V127q0-12.22-3.4-18.69t-13.53-6.47a20.1,20.1,0,0,0-12,3.93,22.75,22.75,0,0,0-8,10.82q-1.81,5.52-1.81,20.64V168.2q0,7.52-3.49,11.27a11.73,11.73,0,0,1-9,3.76,11.2,11.2,0,0,1-8.78-3.89q-3.44-3.9-3.44-11.14V96.79q0-7.07,3.08-10.55a10.64,10.64,0,0,1,8.41-3.48,11.38,11.38,0,0,1,5.89,1.54,11,11,0,0,1,4.21,4.61A16.36,16.36,0,0,1,340.09,96.43Z"/><path class="cls-1" d="M434.7,82.68h2.78V67.5c0-4.08.11-7.27.32-9.59a14.2,14.2,0,0,1,1.81-6,11.38,11.38,0,0,1,4.25-4.21,12.11,12.11,0,0,1,6.21-1.62,12.5,12.5,0,0,1,8.7,3.61,10.71,10.71,0,0,1,3.29,5.88,53.69,53.69,0,0,1,.69,9.86V82.68H472q5.37,0,8.2,2.55A8.38,8.38,0,0,1,483,91.75q0,5.1-4,7.13c-2.68,1.36-6.53,2-11.52,2h-4.73V147.4a74.84,74.84,0,0,0,.42,9.12,9.29,9.29,0,0,0,2.22,5.18q1.8,2,5.88,2a31.73,31.73,0,0,0,6-.78,30.81,30.81,0,0,1,5.92-.79,7.62,7.62,0,0,1,5.51,2.45,8.24,8.24,0,0,1,2.46,6.07q0,6.11-6.67,9.35t-19.16,3.24q-11.85,0-18-4a18.45,18.45,0,0,1-8-11q-1.9-7-1.9-18.79V100.92h-3.33q-5.47,0-8.34-2.59a8.49,8.49,0,0,1-2.87-6.58,8.14,8.14,0,0,1,3-6.52Q429,82.68,434.7,82.68Z"/><path class="cls-1" d="M582.7,133q0-15.11-6.65-23.53T558.17,101a22.09,22.09,0,0,0-12.76,3.76,23.71,23.71,0,0,0-8.51,11.09,45.15,45.15,0,0,0-3,17.1,44.82,44.82,0,0,0,2.94,16.93A24.29,24.29,0,0,0,545.27,161a21.82,21.82,0,0,0,12.9,3.84q11.22,0,17.88-8.46T582.7,133Zm24.8,0a58.45,58.45,0,0,1-3.44,20.37,44.86,44.86,0,0,1-10,16,43.81,43.81,0,0,1-15.56,10.27,55,55,0,0,1-20.37,3.58A53.6,53.6,0,0,1,538,179.61a44.6,44.6,0,0,1-25.48-26.3A58.26,58.26,0,0,1,509.11,133a59,59,0,0,1,3.44-20.54,44.51,44.51,0,0,1,9.87-15.93A43.5,43.5,0,0,1,538,86.33a59,59,0,0,1,40.56,0,43.8,43.8,0,0,1,25.57,26.25A58.65,58.65,0,0,1,607.5,133Z"/><path class="cls-1" d="M273.33,243.3a37.21,37.21,0,0,0-2.6-14.6,21.4,21.4,0,0,0-7.2-9.37,17.22,17.22,0,0,0-10.2-3.27,19.15,19.15,0,0,0-15,7q-6.09,7-6.1,20.63,0,12.82,6.06,19.95a19,19,0,0,0,15,7.13,17.28,17.28,0,0,0,9.92-3.11,21.32,21.32,0,0,0,7.32-9.33,37,37,0,0,0,2.76-15Zm-42.12-31.25v2.6a42.25,42.25,0,0,1,12.6-11,30.73,30.73,0,0,1,14.8-3.51,34.28,34.28,0,0,1,18.26,5.12,35.3,35.3,0,0,1,13.19,15q4.83,9.84,4.84,23.3a57,57,0,0,1-2.79,18.23,41.1,41.1,0,0,1-7.68,13.93,33.56,33.56,0,0,1-11.54,8.66,34,34,0,0,1-14.28,3q-9.21,0-15.47-3.7a44.41,44.41,0,0,1-11.93-10.86V305.1q0,14.17-10.31,14.17c-4.05,0-6.72-1.22-8-3.66s-2-6-2-10.66V212.21c0-4.1.89-7.15,2.68-9.17a9.26,9.26,0,0,1,7.32-3,9.69,9.69,0,0,1,7.44,3.11Q231.21,206.23,231.21,212.05Z"/><path class="cls-1" d="M370.29,244.79a108.86,108.86,0,0,1-13.88,3.7q-9.11,1.95-12.6,2.86a17.23,17.23,0,0,0-6.69,3.58,9.18,9.18,0,0,0-3.18,7.44,11,11,0,0,0,3.74,8.39,13.8,13.8,0,0,0,9.78,3.46,25.53,25.53,0,0,0,11.9-2.82,18.85,18.85,0,0,0,8-7.28q2.94-4.94,2.94-16.23v-3.1Zm1.44,31.42a67.26,67.26,0,0,1-15.24,9.19,42.56,42.56,0,0,1-16.5,3.06,31.3,31.3,0,0,1-14.68-3.3,24.14,24.14,0,0,1-9.74-9A23.21,23.21,0,0,1,312.15,264a21.94,21.94,0,0,1,5.64-15.19q5.65-6.28,15.51-8.43,2.07-.48,10.27-2.15t14-3.07q5.85-1.4,12.68-3.38-.39-8.58-3.46-12.61t-12.68-4q-8.28,0-12.45,2.3a20.24,20.24,0,0,0-7.16,6.92,73.54,73.54,0,0,1-4.22,6.09q-1.23,1.47-5.29,1.47a9.25,9.25,0,0,1-6.32-2.34,7.65,7.65,0,0,1-2.67-6,18.42,18.42,0,0,1,4.06-11.14q4.06-5.4,12.65-8.9t21.4-3.51q14.31,0,22.51,3.39a20.88,20.88,0,0,1,11.57,10.69q3.39,7.32,3.38,19.41,0,7.63,0,13c0,3.55-.06,7.51-.11,11.85a43.72,43.72,0,0,0,2,12.77q2,6.65,2,8.55a8,8,0,0,1-3.14,6.09,10.59,10.59,0,0,1-7.12,2.74q-3.35,0-6.6-3.14A46.53,46.53,0,0,1,371.73,276.21Z"/><path class="cls-1" d="M434.63,242.82q0,13,5.69,19.68a18.41,18.41,0,0,0,14.7,6.67,19.19,19.19,0,0,0,10.08-2.86,21,21,0,0,0,7.72-8.63,30.14,30.14,0,0,0,3-14q0-13.1-5.76-20.39A18.4,18.4,0,0,0,454.86,216a17.83,17.83,0,0,0-14.7,7q-5.54,7-5.53,19.84Zm62-27.13v62.18a65.37,65.37,0,0,1-2.27,18.35,29.39,29.39,0,0,1-7.3,12.71A30.58,30.58,0,0,1,474,316.38q-8.11,2.43-20.19,2.43a58.68,58.68,0,0,1-19.77-3.1q-8.7-3.1-13.41-8c-3.13-3.27-4.7-6.62-4.7-10.08a8.32,8.32,0,0,1,2.67-6.39,9.13,9.13,0,0,1,6.43-2.46,10.54,10.54,0,0,1,8.23,4.15c1.15,1.41,2.34,2.84,3.57,4.27a20.85,20.85,0,0,0,4.08,3.69,15.8,15.8,0,0,0,5.37,2.27,31.2,31.2,0,0,0,7.21.75q8.31,0,12.9-2.31a13.24,13.24,0,0,0,6.43-6.47,26,26,0,0,0,2.16-8.91q.31-4.74.47-15.25A35,35,0,0,1,464,281.48a31.1,31.1,0,0,1-15.41,3.61,32.49,32.49,0,0,1-18.78-5.49,35,35,0,0,1-12.35-15.37,56.51,56.51,0,0,1-4.32-22.82A54.17,54.17,0,0,1,415.77,224a36.63,36.63,0,0,1,7.49-13.1,32,32,0,0,1,11.22-8,35.09,35.09,0,0,1,13.95-2.71,33.59,33.59,0,0,1,15.76,3.49,38.36,38.36,0,0,1,12.4,10.94v-2.9q0-5.56,2.74-8.63a9,9,0,0,1,7.06-3.06q6.19,0,8.23,4T496.66,215.69Z"/><path class="cls-1" d="M583.88,247.85q0-14.4-6.34-22.41t-17-8A21,21,0,0,0,548.36,221a22.62,22.62,0,0,0-8.11,10.56,43.1,43.1,0,0,0-2.84,16.29,42.57,42.57,0,0,0,2.8,16.12,23.17,23.17,0,0,0,8,10.57,20.84,20.84,0,0,0,12.28,3.66q10.69,0,17-8.06t6.34-22.29Zm23.62,0a55.52,55.52,0,0,1-3.28,19.4,42.72,42.72,0,0,1-9.48,15.26,41.9,41.9,0,0,1-14.83,9.78,52.43,52.43,0,0,1-19.4,3.41,50.91,50.91,0,0,1-19.22-3.45,42.4,42.4,0,0,1-24.27-25,55.42,55.42,0,0,1-3.23-19.36,56.28,56.28,0,0,1,3.27-19.57,42.62,42.62,0,0,1,9.4-15.17,41.32,41.32,0,0,1,14.83-9.7,56.07,56.07,0,0,1,38.62,0,42.12,42.12,0,0,1,14.91,9.83,42.61,42.61,0,0,1,9.45,15.17A56,56,0,0,1,607.5,247.85Z"/><path class="cls-1" d="M140.28,230.72a11.88,11.88,0,0,0,.88,4.83,6.7,6.7,0,0,0,2.42,3,6,6,0,0,0,3.35,1,6.21,6.21,0,0,0,3.37-1,6.66,6.66,0,0,0,2.43-2.94,12,12,0,0,0,.91-4.95,11.68,11.68,0,0,0-.91-4.8,7.21,7.21,0,0,0-2.46-3.07,5.85,5.85,0,0,0-3.39-1.07,5.77,5.77,0,0,0-3.43,1.09,7,7,0,0,0-2.34,3.13,12.25,12.25,0,0,0-.83,4.72ZM154,241v-.69a18.47,18.47,0,0,1-2.78,2.62,10.5,10.5,0,0,1-3,1.54,11.11,11.11,0,0,1-3.49.52,10.24,10.24,0,0,1-4.64-1.06,10.85,10.85,0,0,1-3.7-3,13.94,13.94,0,0,1-2.37-4.64,19.64,19.64,0,0,1-.8-5.75q0-6.56,3.19-10.21a10.63,10.63,0,0,1,8.42-3.67,11.36,11.36,0,0,1,5.1,1,14.18,14.18,0,0,1,4,3.19V210.52a5.18,5.18,0,0,1,.86-3.25,2.91,2.91,0,0,1,2.44-1.09,3,3,0,0,1,2.44,1,4.49,4.49,0,0,1,.86,3V241a4.28,4.28,0,0,1-.92,3,3.28,3.28,0,0,1-4.75,0A4.26,4.26,0,0,1,154,241Z"/><path class="cls-1" d="M173.47,228.52h12.67a8.56,8.56,0,0,0-1.94-5.37,5.79,5.79,0,0,0-4.41-1.77,5.61,5.61,0,0,0-4.29,1.8,9,9,0,0,0-2,5.34Zm13.66,4H173.47a9.22,9.22,0,0,0,1,4.2,6.41,6.41,0,0,0,5.9,3.66,8.24,8.24,0,0,0,2.29-.3,7.25,7.25,0,0,0,2-.92,15.17,15.17,0,0,0,1.79-1.34c.54-.48,1.25-1.13,2.12-1.95a2.34,2.34,0,0,1,1.54-.46,2.56,2.56,0,0,1,1.74.59,2.13,2.13,0,0,1,.66,1.67,4.46,4.46,0,0,1-.74,2.21,8.81,8.81,0,0,1-2.24,2.43,12.63,12.63,0,0,1-3.76,1.93,16,16,0,0,1-5.21.77c-4.49,0-8-1.28-10.47-3.84s-3.73-6-3.73-10.41a17.51,17.51,0,0,1,.92-5.75,12.59,12.59,0,0,1,2.69-4.54,11.73,11.73,0,0,1,4.35-2.91,15.67,15.67,0,0,1,5.73-1,13.58,13.58,0,0,1,7,1.73,11.28,11.28,0,0,1,4.39,4.47,11.73,11.73,0,0,1,1.46,5.57c0,1.76-.5,2.9-1.51,3.42A9.39,9.39,0,0,1,187.13,232.48Z"/><path class="cls-2" d="M80.12,13.17C32.37,29.42,15,78,25.25,116.5A73.09,73.09,0,0,0,38,142.63l.52.66c.05.06.11.12.16.19L39.88,145l.39.46c13.24,15.32,25.84,31.19,38.33,47.14l.71.86c2.87,3.49,5.61,7.09,8.35,10.7a3.37,3.37,0,0,0,.27.34c3.38,4.3,6.73,8.57,10.14,12.83l8,8.59,1.15,1.1c10-15.19,11-24.41,3.2-36.75-1-1.62-2.22-3.3-3.55-5.07q-14.73-19.36-29.35-38.78C71.75,139.22,66,132,60.3,124.78a49,49,0,0,1-5.38-8.28,32.6,32.6,0,0,1-1.39-3.16A56.78,56.78,0,0,1,87.44,39.92,58,58,0,0,1,161.91,74c10.75,29-4.36,61.7-33.5,73.33-6,2.38-8.64.88-10.41-4.94,2.33-.83,4.12-1.45,5.88-2.11,21.25-8,34.09-26.84,33.16-48.76-.9-20.84-15.33-38.88-35.86-44.81A49.56,49.56,0,0,0,67.06,66.08C54.8,83.84,55.6,107.3,69.59,125c14.25,18,29.11,35.6,43.25,53.73,4,5.11,7.83,6.14,12.94,3,12.23-7.44,25.25-13.95,36.29-22.88,31.93-25.83,40-71.4,20-106.53-15.82-27.78-44.2-43.79-74.21-43.79a85.68,85.68,0,0,0-27.75,4.64Zm9.07,80.74a18.2,18.2,0,0,1,18-18.43A18.54,18.54,0,0,1,126,93.14c.36,9.52-8,18.65-17.56,19.21-.28,0-.59,0-.88,0C98.07,112.37,89.36,103.71,89.19,93.91Z"/><path class="cls-2" d="M80.12,13.17C32.37,29.42,15,78,25.25,116.5A73.09,73.09,0,0,0,38,142.63l.52.66c.05.06.11.12.16.19L39.88,145l.39.46c13.24,15.32,25.84,31.19,38.33,47.14l.71.86c2.87,3.49,5.61,7.09,8.35,10.7a3.37,3.37,0,0,0,.27.34c3.38,4.3,6.73,8.57,10.14,12.83l8,8.59,1.15,1.1c10-15.19,11-24.41,3.2-36.75-1-1.62-2.22-3.3-3.55-5.07q-14.73-19.36-29.35-38.78C71.75,139.22,66,132,60.3,124.78a49,49,0,0,1-5.38-8.28,32.6,32.6,0,0,1-1.39-3.16A56.78,56.78,0,0,1,87.44,39.92,58,58,0,0,1,161.91,74c10.75,29-4.36,61.7-33.5,73.33-6,2.38-8.64.88-10.41-4.94,2.33-.83,4.12-1.45,5.88-2.11,21.25-8,34.09-26.84,33.16-48.76-.9-20.84-15.33-38.88-35.86-44.81A49.56,49.56,0,0,0,67.06,66.08C54.8,83.84,55.6,107.3,69.59,125c14.25,18,29.11,35.6,43.25,53.73,4,5.11,7.83,6.14,12.94,3,12.23-7.44,25.25-13.95,36.29-22.88,31.93-25.83,40-71.4,20-106.53-15.82-27.78-44.2-43.79-74.21-43.79a85.68,85.68,0,0,0-27.75,4.64Zm9.07,80.74a18.2,18.2,0,0,1,18-18.43A18.54,18.54,0,0,1,126,93.14c.36,9.52-8,18.65-17.56,19.21-.28,0-.59,0-.88,0C98.07,112.37,89.36,103.71,89.19,93.91Z"/></svg>