<svg xmlns="http://www.w3.org/2000/svg" xmlns:xlink="http://www.w3.org/1999/xlink" viewBox="0 0 340.16 255.12"><defs><style>.cls-1,.cls-24,.cls-25,.cls-26,.cls-27,.cls-28,.cls-29,.cls-30,.cls-31,.cls-44,.cls-45,.cls-46,.cls-47,.cls-48,.cls-49,.cls-50,.cls-51,.cls-84,.cls-85,.cls-86,.cls-87,.cls-88,.cls-89,.cls-90,.cls-91{fill:none;}.cls-2{isolation:isolate;}.cls-3{fill:url(#linear-gradient);}.cls-4{fill:url(#linear-gradient-2);}.cls-32,.cls-5,.cls-74,.cls-9{fill:#faf8f8;}.cls-6{fill:#f7f5f5;opacity:0.12;}.cls-7{fill:#95b0dd;}.cls-8{fill:url(#linear-gradient-3);}.cls-24,.cls-25,.cls-26,.cls-27,.cls-28,.cls-29,.cls-30,.cls-31,.cls-32,.cls-44,.cls-45,.cls-46,.cls-47,.cls-48,.cls-49,.cls-50,.cls-51,.cls-74,.cls-84,.cls-85,.cls-86,.cls-87,.cls-88,.cls-89,.cls-9,.cls-90,.cls-91{stroke-miterlimit:10;}.cls-9{stroke:url(#linear-gradient-4);}.cls-10{fill:#d8dee8;}.cls-11{fill:#fff;}.cls-12{fill:url(#linear-gradient-5);}.cls-13,.cls-14{opacity:0.5;}.cls-14{mix-blend-mode:soft-light;}.cls-15{clip-path:url(#clip-path);}.cls-16{fill:url(#linear-gradient-6);}.cls-17{fill:url(#linear-gradient-7);}.cls-18{fill:url(#linear-gradient-8);}.cls-19{fill:url(#linear-gradient-9);}.cls-20{fill:url(#linear-gradient-10);}.cls-21{fill:url(#linear-gradient-11);}.cls-22{fill:#26274f;}.cls-23{fill:url(#linear-gradient-12);}.cls-24{stroke:url(#linear-gradient-13);}.cls-25{stroke:url(#linear-gradient-14);}.cls-26{stroke:url(#linear-gradient-15);}.cls-27{stroke:url(#linear-gradient-16);}.cls-28{stroke:url(#linear-gradient-17);}.cls-29{stroke:url(#linear-gradient-18);}.cls-30{stroke:url(#linear-gradient-19);}.cls-31{stroke:url(#linear-gradient-20);}.cls-32{stroke:url(#linear-gradient-21);}.cls-33{fill:url(#linear-gradient-22);}.cls-34{clip-path:url(#clip-path-2);}.cls-35{fill:url(#linear-gradient-23);}.cls-36{fill:url(#linear-gradient-24);}.cls-37{fill:url(#linear-gradient-25);}.cls-38{fill:url(#linear-gradient-26);}.cls-39{fill:url(#linear-gradient-27);}.cls-40{fill:url(#linear-gradient-28);}.cls-41{fill:url(#linear-gradient-29);}.cls-42,.cls-54{opacity:0.3;}.cls-42,.cls-54,.cls-78{mix-blend-mode:multiply;}.cls-43{fill:url(#linear-gradient-30);}.cls-44{stroke:url(#linear-gradient-31);}.cls-45{stroke:url(#linear-gradient-32);}.cls-46{stroke:url(#linear-gradient-33);}.cls-47{stroke:url(#linear-gradient-34);}.cls-48{stroke:url(#linear-gradient-35);}.cls-49{stroke:url(#linear-gradient-36);}.cls-50{stroke:url(#linear-gradient-37);}.cls-51{stroke:url(#linear-gradient-38);}.cls-52{fill:url(#linear-gradient-39);}.cls-53{fill:url(#linear-gradient-40);}.cls-54{fill:url(#linear-gradient-41);}.cls-55{fill:url(#linear-gradient-42);}.cls-56{fill:url(#linear-gradient-43);}.cls-57{fill:url(#linear-gradient-44);}.cls-58{fill:url(#linear-gradient-45);}.cls-59{fill:url(#linear-gradient-46);}.cls-60{fill:url(#linear-gradient-47);}.cls-61{fill:url(#linear-gradient-48);}.cls-62{fill:url(#linear-gradient-49);}.cls-63{fill:url(#linear-gradient-50);}.cls-64{fill:url(#linear-gradient-51);}.cls-65{fill:url(#linear-gradient-52);}.cls-66{fill:url(#linear-gradient-53);}.cls-67{fill:url(#linear-gradient-54);}.cls-68{fill:url(#linear-gradient-55);}.cls-69{fill:url(#linear-gradient-56);}.cls-70{fill:url(#linear-gradient-57);}.cls-71{fill:url(#linear-gradient-58);}.cls-72{fill:url(#linear-gradient-59);}.cls-73{fill:url(#linear-gradient-60);}.cls-74{stroke:url(#linear-gradient-61);}.cls-75{fill:url(#linear-gradient-62);}.cls-76{clip-path:url(#clip-path-3);}.cls-77{fill:url(#linear-gradient-63);}.cls-78{opacity:0.7;fill:url(#linear-gradient-64);}.cls-79{fill:url(#linear-gradient-65);}.cls-80{fill:url(#linear-gradient-66);}.cls-81{fill:url(#linear-gradient-67);}.cls-82{fill:url(#linear-gradient-68);}.cls-83{fill:url(#linear-gradient-69);}.cls-84{stroke:url(#linear-gradient-70);}.cls-85{stroke:url(#linear-gradient-71);}.cls-86{stroke:url(#linear-gradient-72);}.cls-87{stroke:url(#linear-gradient-73);}.cls-88{stroke:url(#linear-gradient-74);}.cls-89{stroke:url(#linear-gradient-75);}.cls-90{stroke:url(#linear-gradient-76);}.cls-91{stroke:url(#linear-gradient-77);}</style><linearGradient id="linear-gradient" x1="203.95" y1="111.4" x2="178.89" y2="232.5" gradientUnits="userSpaceOnUse"><stop offset="0" stop-color="#232451"/><stop offset="1" stop-color="#2a307b"/></linearGradient><linearGradient id="linear-gradient-2" x1="172.65" y1="-4.12" x2="173.35" y2="132.94" xlink:href="#linear-gradient"/><linearGradient id="linear-gradient-3" x1="146.96" y1="283.35" x2="185.24" y2="215.84" xlink:href="#linear-gradient"/><linearGradient id="linear-gradient-4" x1="58.32" y1="67.87" x2="124.6" y2="67.87" gradientUnits="userSpaceOnUse"><stop offset="0" stop-color="#fcc345"/><stop offset="1" stop-color="#ee7058"/></linearGradient><linearGradient id="linear-gradient-5" x1="64.52" y1="49.66" x2="119.43" y2="49.66" gradientUnits="userSpaceOnUse"><stop offset="0" stop-color="#fff"/><stop offset="1" stop-color="#ebeff2"/></linearGradient><clipPath id="clip-path"><polygon id="SVGID" class="cls-1" points="114.28 66.72 70.11 68.56 70.11 26.94 114.28 27.18 114.28 66.72"/></clipPath><linearGradient id="linear-gradient-6" x1="108.66" y1="31.45" x2="85.33" y2="77.37" gradientUnits="userSpaceOnUse"><stop offset="0" stop-color="#f28e86"/><stop offset="1" stop-color="#e874aa"/></linearGradient><linearGradient id="linear-gradient-7" x1="92.2" y1="65.4" x2="92.59" y2="44.27" gradientUnits="userSpaceOnUse"><stop offset="0" stop-color="#311b44"/><stop offset="0.56" stop-color="#6f2b60"/><stop offset="1" stop-color="#a23a77"/></linearGradient><linearGradient id="linear-gradient-8" x1="92.83" y1="51.31" x2="94.29" y2="60.82" xlink:href="#linear-gradient-4"/><linearGradient id="linear-gradient-9" x1="92.13" y1="36.71" x2="91.77" y2="60.95" xlink:href="#linear-gradient-4"/><linearGradient id="linear-gradient-10" x1="192.84" y1="170.34" x2="192.47" y2="194.63" gradientTransform="translate(-124.67 -112) rotate(-6.51)" xlink:href="#linear-gradient-4"/><linearGradient id="linear-gradient-11" x1="97.19" y1="36.75" x2="96.82" y2="60.95" xlink:href="#linear-gradient-4"/><linearGradient id="linear-gradient-12" x1="93.35" y1="32.05" x2="92.3" y2="41.11" xlink:href="#linear-gradient-4"/><linearGradient id="linear-gradient-13" x1="128.68" y1="44.03" x2="147.21" y2="44.03" xlink:href="#linear-gradient-4"/><linearGradient id="linear-gradient-14" x1="129.03" y1="65.83" x2="147.55" y2="65.83" xlink:href="#linear-gradient-4"/><linearGradient id="linear-gradient-15" x1="129.03" y1="87.44" x2="147.55" y2="87.44" xlink:href="#linear-gradient-4"/><linearGradient id="linear-gradient-16" x1="68.23" y1="83.54" x2="112.42" y2="83.54" xlink:href="#linear-gradient-4"/><linearGradient id="linear-gradient-17" x1="68.23" y1="76.31" x2="112.42" y2="76.31" xlink:href="#linear-gradient-4"/><linearGradient id="linear-gradient-18" x1="68.23" y1="89.24" x2="112.42" y2="89.24" xlink:href="#linear-gradient-4"/><linearGradient id="linear-gradient-19" x1="68.23" y1="95.42" x2="112.42" y2="95.42" xlink:href="#linear-gradient-4"/><linearGradient id="linear-gradient-20" x1="67.75" y1="102.71" x2="111.95" y2="102.71" xlink:href="#linear-gradient-4"/><linearGradient id="linear-gradient-21" x1="215.32" y1="54.74" x2="262.01" y2="54.74" xlink:href="#linear-gradient-4"/><linearGradient id="linear-gradient-22" x1="219.81" y1="42.22" x2="258.24" y2="42.22" xlink:href="#linear-gradient-5"/><clipPath id="clip-path-2"><polygon id="SVGID-2" data-name="SVGID" class="cls-1" points="255.4 54.48 221.26 56.93 220.9 20.88 255.05 19.66 255.4 54.48"/></clipPath><linearGradient id="linear-gradient-23" x1="240.85" y1="2.82" x2="244.6" y2="62.68" gradientTransform="translate(-5.26 20.48) rotate(-0.57)" gradientUnits="userSpaceOnUse"><stop offset="0" stop-color="#ee7058"/><stop offset="1" stop-color="#fcc345"/></linearGradient><linearGradient id="linear-gradient-24" x1="243.28" y1="30.1" x2="243.15" y2="22.68" gradientTransform="translate(-5.26 20.48) rotate(-0.57)" gradientUnits="userSpaceOnUse"><stop offset="0" stop-color="#311b44"/><stop offset="1" stop-color="#8a3977"/></linearGradient><linearGradient id="linear-gradient-25" x1="243.34" y1="30.79" x2="243.3" y2="24.54" gradientTransform="translate(-5.26 20.48) rotate(-0.57)" gradientUnits="userSpaceOnUse"><stop offset="0" stop-color="#ac336e"/><stop offset="1" stop-color="#7a2e3e"/></linearGradient><linearGradient id="linear-gradient-26" x1="242.81" y1="21.83" x2="243.85" y2="9.35" xlink:href="#linear-gradient-25"/><linearGradient id="linear-gradient-27" x1="239.31" y1="21.63" x2="240.33" y2="9.32" xlink:href="#linear-gradient-25"/><linearGradient id="linear-gradient-28" x1="246.81" y1="21.98" x2="247.85" y2="9.51" xlink:href="#linear-gradient-25"/><linearGradient id="linear-gradient-29" x1="242.55" y1="15.86" x2="245.31" y2="7.28" gradientTransform="translate(-5.26 20.48) rotate(-0.57)" gradientUnits="userSpaceOnUse"><stop offset="0" stop-color="#311b44"/><stop offset="1" stop-color="#6c3976"/></linearGradient><linearGradient id="linear-gradient-30" x1="242.55" y1="15.83" x2="245.34" y2="7.2" xlink:href="#linear-gradient-29"/><linearGradient id="linear-gradient-31" x1="264.56" y1="38.34" x2="277.83" y2="38.34" xlink:href="#linear-gradient-4"/><linearGradient id="linear-gradient-32" x1="264.8" y1="53.33" x2="278.07" y2="53.33" xlink:href="#linear-gradient-4"/><linearGradient id="linear-gradient-33" x1="264.8" y1="68.2" x2="278.07" y2="68.2" xlink:href="#linear-gradient-4"/><linearGradient id="linear-gradient-34" x1="222.41" y1="65.52" x2="253.33" y2="65.52" xlink:href="#linear-gradient-4"/><linearGradient id="linear-gradient-35" x1="222.41" y1="60.54" x2="253.33" y2="60.54" xlink:href="#linear-gradient-4"/><linearGradient id="linear-gradient-36" x1="222.41" y1="69.44" x2="253.33" y2="69.44" xlink:href="#linear-gradient-4"/><linearGradient id="linear-gradient-37" x1="222.41" y1="73.69" x2="253.33" y2="73.69" xlink:href="#linear-gradient-4"/><linearGradient id="linear-gradient-38" x1="222.07" y1="78.7" x2="253" y2="78.7" xlink:href="#linear-gradient-4"/><linearGradient id="linear-gradient-39" x1="110.23" y1="58.7" x2="129.71" y2="58.7" xlink:href="#linear-gradient"/><linearGradient id="linear-gradient-40" x1="123.94" y1="42.78" x2="148.69" y2="42.78" xlink:href="#linear-gradient"/><linearGradient id="linear-gradient-41" x1="110.23" y1="58.7" x2="129.71" y2="58.7" xlink:href="#linear-gradient"/><linearGradient id="linear-gradient-42" x1="124.58" y1="43.13" x2="149.33" y2="43.13" xlink:href="#linear-gradient"/><linearGradient id="linear-gradient-43" x1="125.32" y1="43.13" x2="148.66" y2="43.13" xlink:href="#linear-gradient"/><linearGradient id="linear-gradient-44" x1="2050.01" y1="224" x2="1986.61" y2="292.96" gradientTransform="translate(-1964)" gradientUnits="userSpaceOnUse"><stop offset="0" stop-color="#40509e"/><stop offset="1" stop-color="#4857a3"/></linearGradient><linearGradient id="linear-gradient-45" x1="2029.43" y1="229.12" x2="2035.06" y2="229.12" gradientTransform="translate(-1964)" gradientUnits="userSpaceOnUse"><stop offset="0" stop-color="#f2908f"/><stop offset="1" stop-color="#f6b2b2"/></linearGradient><linearGradient id="linear-gradient-46" x1="2019.23" y1="224.12" x2="2031.67" y2="151.83" gradientTransform="translate(-1964)" xlink:href="#linear-gradient"/><linearGradient id="linear-gradient-47" x1="2035.78" y1="210.93" x2="1972.39" y2="279.88" xlink:href="#linear-gradient-44"/><linearGradient id="linear-gradient-48" x1="2009.13" y1="228.83" x2="2014" y2="228.83" xlink:href="#linear-gradient-45"/><linearGradient id="linear-gradient-49" x1="2005.16" y1="221.69" x2="2017.6" y2="149.41" gradientTransform="translate(-1964)" xlink:href="#linear-gradient"/><linearGradient id="linear-gradient-50" x1="1996.38" y1="134.76" x2="2084.98" y2="71" gradientTransform="translate(-1964)" gradientUnits="userSpaceOnUse"><stop offset="0" stop-color="#ee7065"/><stop offset="1" stop-color="#f2908f"/></linearGradient><linearGradient id="linear-gradient-51" x1="2052.6" y1="82.21" x2="2081.37" y2="82.21" xlink:href="#linear-gradient-45"/><linearGradient id="linear-gradient-52" x1="5002.82" y1="77.39" x2="5022.12" y2="121.31" gradientTransform="matrix(-1, 0, 0, 1, 5113.78, 0)" xlink:href="#linear-gradient-45"/><linearGradient id="linear-gradient-53" x1="77.73" y1="98.51" x2="128.7" y2="52.22" gradientTransform="matrix(1, 0, 0, 1, 0, 0)" xlink:href="#linear-gradient-45"/><linearGradient id="linear-gradient-54" x1="1984.65" y1="118.46" x2="2073.25" y2="54.7" xlink:href="#linear-gradient-50"/><linearGradient id="linear-gradient-55" x1="64.54" y1="60.55" x2="55.19" y2="119.93" gradientTransform="matrix(1, 0, 0, 1, 0, 0)" xlink:href="#linear-gradient-45"/><linearGradient id="linear-gradient-56" x1="-3605.92" y1="385.74" x2="-3629.93" y2="354.88" gradientTransform="matrix(0.75, -0.67, 0.67, 0.75, 3884.36, -2363.87)" xlink:href="#linear-gradient-45"/><linearGradient id="linear-gradient-57" x1="-3497.9" y1="-1844.76" x2="-3453.67" y2="-1895.26" gradientTransform="matrix(0.75, -0.67, 0.67, 0.75, 3884.36, -2363.87)" xlink:href="#linear-gradient"/><linearGradient id="linear-gradient-58" x1="-3608.51" y1="387.75" x2="-3632.52" y2="356.89" gradientTransform="matrix(0.75, -0.67, 0.67, 0.75, 3884.36, -2363.87)" xlink:href="#linear-gradient-45"/><linearGradient id="linear-gradient-59" x1="2019.36" y1="143.32" x2="1989.73" y2="119.61" xlink:href="#linear-gradient-45"/><linearGradient id="linear-gradient-60" x1="2018.4" y1="144.52" x2="1988.77" y2="120.81" xlink:href="#linear-gradient-45"/><linearGradient id="linear-gradient-61" x1="156.64" y1="113.91" x2="203.33" y2="113.91" xlink:href="#linear-gradient-4"/><linearGradient id="linear-gradient-62" x1="161.13" y1="101.39" x2="199.56" y2="101.39" xlink:href="#linear-gradient-5"/><clipPath id="clip-path-3"><polygon id="SVGID-3" data-name="SVGID" class="cls-1" points="196.13 113.86 168.66 114.25 168.66 85.82 196.13 86.6 196.13 113.86"/></clipPath><linearGradient id="linear-gradient-63" x1="190.61" y1="89.45" x2="184.09" y2="102.22" gradientTransform="matrix(1, 0, 0, 1, 0, 0)" xlink:href="#linear-gradient-25"/><linearGradient id="linear-gradient-64" x1="190.77" y1="89.2" x2="184.18" y2="102.11" gradientTransform="matrix(1, 0, 0, 1, 0, 0)" xlink:href="#linear-gradient-25"/><linearGradient id="linear-gradient-65" x1="184.21" y1="130.48" x2="181.09" y2="107.8" gradientUnits="userSpaceOnUse"><stop offset="0" stop-color="#cc90bf"/><stop offset="1" stop-color="#7c6fb1"/></linearGradient><linearGradient id="linear-gradient-66" x1="182.22" y1="111.27" x2="181.76" y2="101.33" xlink:href="#linear-gradient-4"/><linearGradient id="linear-gradient-67" x1="181.73" y1="102.53" x2="181.91" y2="95.82" xlink:href="#linear-gradient-4"/><linearGradient id="linear-gradient-68" x1="178.98" y1="101.83" x2="179.14" y2="95.64" xlink:href="#linear-gradient-4"/><linearGradient id="linear-gradient-69" x1="184.41" y1="101.99" x2="184.57" y2="95.9" xlink:href="#linear-gradient-4"/><linearGradient id="linear-gradient-70" x1="205.88" y1="97.52" x2="219.14" y2="97.52" xlink:href="#linear-gradient-4"/><linearGradient id="linear-gradient-71" x1="206.12" y1="112.51" x2="219.38" y2="112.51" xlink:href="#linear-gradient-4"/><linearGradient id="linear-gradient-72" x1="206.12" y1="127.37" x2="219.38" y2="127.37" xlink:href="#linear-gradient-4"/><linearGradient id="linear-gradient-73" x1="163.73" y1="124.69" x2="194.65" y2="124.69" xlink:href="#linear-gradient-4"/><linearGradient id="linear-gradient-74" x1="163.73" y1="119.72" x2="194.65" y2="119.72" xlink:href="#linear-gradient-4"/><linearGradient id="linear-gradient-75" x1="163.73" y1="128.62" x2="194.65" y2="128.62" xlink:href="#linear-gradient-4"/><linearGradient id="linear-gradient-76" x1="163.73" y1="132.86" x2="194.65" y2="132.86" xlink:href="#linear-gradient-4"/><linearGradient id="linear-gradient-77" x1="163.39" y1="137.88" x2="194.32" y2="137.88" xlink:href="#linear-gradient-4"/></defs><title>icono conoce tu cliente</title><g class="cls-2"><g id="Capa_1" data-name="Capa 1"><polygon class="cls-3" points="156.96 155.59 150.89 210.07 221.37 210.07 212.19 155.59 156.96 155.59"/><path class="cls-4" d="M38.56,21.34V146.13c0,10.27,7.84,18.66,17.66,18.93,43.65,1.17,196.32,4,237.88,3.38,7.14-.11,12.92-6.08,13.13-13.53.8-29,2.1-98.7-2.71-131.07a14,14,0,0,0-13.13-12.13C254.82,10.49,93,6.61,51.44,7.58,44.28,7.75,38.56,13.86,38.56,21.34Z"/><path class="cls-5" d="M43.6,20.74V139.29a10.75,10.75,0,0,0,10.35,11l231.71,3A10.44,10.44,0,0,0,296,142.62l.39-117.5a7.66,7.66,0,0,0-7.29-7.84l-237.23-5A8.27,8.27,0,0,0,43.6,20.74Z"/><path class="cls-6" d="M50.83,23.3V127.83a9.77,9.77,0,0,0,9.71,9.62l218.23,3.82a9.7,9.7,0,0,0,10-9.25l2.73-104a6.9,6.9,0,0,0-6.82-7l-226-5.22A7.58,7.58,0,0,0,50.83,23.3Z"/><path class="cls-7" d="M300.81,159.45h0L46.37,154.11a.42.42,0,0,1-.35-.45.4.4,0,0,1,.36-.43h0l254.44,5.34a.42.42,0,0,1,.35.45A.41.41,0,0,1,300.81,159.45Z"/><path class="cls-8" d="M236.55,221.22H133.4c-2.81,0-4.91-2-4.37-4.14l1.32-5.23a4.28,4.28,0,0,1,4.19-2.8L234,206c2.15-.07,4,1.07,4.52,2.71L240.9,217C241.52,219.16,239.4,221.22,236.55,221.22Z"/><path class="cls-7" d="M188.93,210.51a.38.38,0,0,1-.37-.37.37.37,0,0,1,.36-.38l4.26-.06a.37.37,0,0,1,.38.37.37.37,0,0,1-.36.37l-4.27.07Z"/><path class="cls-7" d="M132.85,218.37h-.06a.37.37,0,0,1-.31-.42l.61-3.81a4.29,4.29,0,0,1,4.17-3.61l45.2-.66a.38.38,0,0,1,.38.36.37.37,0,0,1-.37.38l-45.2.66a3.55,3.55,0,0,0-3.45,3l-.6,3.81A.38.38,0,0,1,132.85,218.37Z"/><rect class="cls-9" x="58.82" y="22.86" width="65.29" height="90.03"/><path class="cls-10" d="M120.18,30.37a3,3,0,0,0-2.14-3l-.14,0a2.71,2.71,0,0,0-.41,0l-25.61-.15L66.61,27h-.15a2.94,2.94,0,0,0-1.79.71l0,0-.2.19h0l-.12.12a3.32,3.32,0,0,0-.79,2.17V32.6h0V69.19a3.59,3.59,0,0,0,.1.81,4,4,0,0,0,.15.45A2.9,2.9,0,0,0,66,72.25a2.56,2.56,0,0,0,.62,0l38.67-2h0l12.22-.63a3.05,3.05,0,0,0,2.68-3.16v-34h0Z"/><path class="cls-11" d="M120.29,30.35V66.51a3,3,0,0,1-2.68,3.16l-12.4.64-38.59,2a3,3,0,0,1-3.15-2.72c0-.12-.11-39.34-.11-39.34A3.4,3.4,0,0,1,64,28.47s.06,0,.07,0A3.09,3.09,0,0,1,66.6,27l5.88,0,45.12.26A2.9,2.9,0,0,1,120.29,30.35Z"/><path class="cls-12" d="M66.62,71.27a2,2,0,0,1-2.1-2.1V30.25a2.14,2.14,0,0,1,2.1-2.2l51,.23a2,2,0,0,1,1.83,2.06V66.55a2.07,2.07,0,0,1-1.83,2.15Z"/><path class="cls-10" d="M117.6,27.31l-51-.3a3.16,3.16,0,0,0-3.09,3.24v2.33l56.75-.07V30.35A2.89,2.89,0,0,0,117.6,27.31Z"/><path class="cls-11" d="M69,29.86a1,1,0,1,1-1-1A1,1,0,0,1,69,29.86Z"/><path class="cls-11" d="M72.52,29.86a1,1,0,0,1-2,0,1,1,0,0,1,1-1A1,1,0,0,1,72.52,29.86Z"/><path class="cls-11" d="M76,29.87a1,1,0,1,1-1-1A1,1,0,0,1,76,29.87Z"/><polygon class="cls-10" points="117.16 66.67 67.13 69.06 67.13 38.42 117.16 37.99 117.16 66.67"/><g class="cls-13"><polygon class="cls-11" points="94 35.13 67.13 35.25 67.13 36.91 94 36.73 94 35.13"/><polygon class="cls-11" points="114.29 35.03 114.29 36.59 117.16 36.57 117.16 35.02 114.29 35.03"/></g><g class="cls-14"><path class="cls-11" d="M105.21,70.31l-38.59,2a3,3,0,0,1-3.16-2.72s-.1-39.36-.1-39.36a3.45,3.45,0,0,1,.58-1.76s.07,0,.08,0A3,3,0,0,1,66.61,27l5.85,0a.05.05,0,0,1,0,0c.11.33.24.68.37,1A21.58,21.58,0,0,0,75,32.31c.05.09.11.17.17.26a17.68,17.68,0,0,0,2.17,2.63,16.28,16.28,0,0,0,1.87,1.62,18.84,18.84,0,0,0,2.32,1.48c5.67,3.09,12,3.37,16.23,9.71,3.59,5.42,1,8.38,4.5,16.72.37.91.78,1.77,1.21,2.6s.75,1.38,1.15,2C104.8,69.68,105,70,105.21,70.31Z"/></g><path class="cls-11" d="M86.75,63.59a2.14,2.14,0,0,1-2,2.15,1.94,1.94,0,0,1-2-2,2.14,2.14,0,0,1,2-2.15A1.94,1.94,0,0,1,86.75,63.59Z"/><path class="cls-11" d="M94.76,63.27a2.11,2.11,0,0,1-2,2.12,1.9,1.9,0,0,1-2-2,2.09,2.09,0,0,1,2-2.12A1.91,1.91,0,0,1,94.76,63.27Z"/><path class="cls-11" d="M102.59,63a2.07,2.07,0,0,1-1.91,2.1,1.87,1.87,0,0,1-1.92-1.95,2.07,2.07,0,0,1,1.92-2.1A1.88,1.88,0,0,1,102.59,63Z"/><g class="cls-15"><path class="cls-16" d="M93.36,70.36c-13.54.71-18.39,2.72-20.6-.14-2.05-2.65-.35-12.52,2.08-15.34,3.82-4.42,9.88-4.76,18-5.16,7.53-.36,12.11-.59,15.69,2.56,3.32,2.92,5.43,13.2,3.37,16.16C110,71.21,105.9,69.7,93.36,70.36Z"/><path class="cls-17" d="M88.39,49.8l-1.58.44a.6.6,0,0,0-.35.89c1.08,1.65,3.93,5.77,5.7,6.21s5.21-4.92,6.33-6.79a.58.58,0,0,0-.32-.85L97,49.36a7.6,7.6,0,0,0-2.89-.27l-4.28.44A9.39,9.39,0,0,0,88.39,49.8Z"/><path class="cls-18" d="M89.56,43.67s.87,6.2-.33,6.82l3.4,3.62L96,49.66s-1.28-.94-1-6.06Z"/><path class="cls-19" d="M87.55,34.79c-.12.16-1.73,8,3.81,8.78s5.72-5,5.65-7.44-2.57-3.31-4-3.48S88,34.19,87.55,34.79Z"/><path class="cls-20" d="M87.23,39.37S87,38.09,86,38.9s.57,2.92,1.82,2.82Z"/><path class="cls-21" d="M96.84,38.4a24.51,24.51,0,0,0-.61,3.1s.79.08,1.36-1S98.43,37.31,96.84,38.4Z"/><path class="cls-22" d="M99,32.71c-.57-1-2-.5-2.43-1.43-.36-.77.48-1.5,0-2.17s-1.3-.55-1.46-.55c-1.24,0-1.53,1-2.42,1-1.09,0-1.13-1.53-2.57-2.16a3.89,3.89,0,0,0-4.31,1c-.65.9-.09,1.55-1,2.7-.59.79-1.11.83-1.4,1.6a2.94,2.94,0,0,0,.06,1.94c.34,1.23,1,1.77,2,3.08a21.08,21.08,0,0,1,1.66,2.58,28.91,28.91,0,0,1,1,3.09c.31,1.22.3,1.47.59,1.86,1,1.35,3.27,1.18,4.23,1.11s2.44-.19,3.12-1.14c.37-.52.32-1,.41-2.22a29.34,29.34,0,0,1,.47-3.63,9.48,9.48,0,0,1,.44-1.54c.39-1.06.8-1.23,1.24-2.33C99,34.62,99.44,33.48,99,32.71ZM94.47,41a6.12,6.12,0,0,1-2,0c-1.83-.09-2.41.78-3.28.41A2.23,2.23,0,0,1,87.75,40a7.21,7.21,0,0,1-.06-2.18c.15-1.06.32-2.29,1.17-2.84,1.24-.79,2.81.56,3.94-.32a2,2,0,0,0,.68-1.23,4.89,4.89,0,0,1,3,2.92,4.81,4.81,0,0,1,0,3.1A3.53,3.53,0,0,1,94.47,41Z"/><path class="cls-23" d="M90.67,42.33a4.42,4.42,0,0,0,3-.12c.12,0,.23.09.13.16A2.78,2.78,0,0,1,92,43a3.49,3.49,0,0,1-1.47-.46C90.45,42.44,90.54,42.3,90.67,42.33Z"/></g><path class="cls-11" d="M86.47,63.58a1.8,1.8,0,0,1-1.73,1.78A1.65,1.65,0,0,1,83,63.71a1.8,1.8,0,0,1,1.74-1.78A1.65,1.65,0,0,1,86.47,63.58Z"/><path class="cls-11" d="M94.48,63.29a1.77,1.77,0,0,1-1.7,1.76,1.62,1.62,0,0,1-1.7-1.64,1.77,1.77,0,0,1,1.7-1.76A1.63,1.63,0,0,1,94.48,63.29Z"/><path class="cls-11" d="M102.35,63a1.76,1.76,0,0,1-1.67,1.75A1.6,1.6,0,0,1,99,63.12a1.76,1.76,0,0,1,1.67-1.75A1.61,1.61,0,0,1,102.35,63Z"/><rect class="cls-24" x="129.18" y="35.26" width="17.52" height="17.52"/><rect class="cls-25" x="129.53" y="57.07" width="17.52" height="17.52"/><rect class="cls-26" x="129.53" y="78.67" width="17.52" height="17.52"/><line class="cls-27" x1="68.23" y1="83.54" x2="112.42" y2="83.54"/><line class="cls-28" x1="68.23" y1="76.31" x2="112.42" y2="76.31"/><line class="cls-29" x1="68.23" y1="89.24" x2="112.42" y2="89.24"/><line class="cls-30" x1="68.23" y1="95.42" x2="112.42" y2="95.42"/><line class="cls-31" x1="67.75" y1="102.71" x2="111.95" y2="102.71"/><rect class="cls-32" x="215.82" y="23.78" width="45.69" height="61.92"/><path class="cls-10" d="M258.76,28.94a2,2,0,0,0-1.5-2l-.09,0-.29,0L239,26.76l-17.68-.11h-.11a2.07,2.07,0,0,0-1.25.49h0l-.14.14h0l-.07.09a2.21,2.21,0,0,0-.56,1.49v1.6h0V55.65a2.43,2.43,0,0,0,.07.55,2.81,2.81,0,0,0,.1.31,2,2,0,0,0,1.55,1.24,2.13,2.13,0,0,0,.44,0l27.06-1.37h0l8.55-.44a2.1,2.1,0,0,0,1.87-2.17V30.43h0Z"/><path class="cls-11" d="M258.84,28.93V53.81A2.11,2.11,0,0,1,257,56l-8.67.44-27,1.37a2.11,2.11,0,0,1-2.2-1.87c0-.08-.08-27.06-.08-27.06a2.34,2.34,0,0,1,.41-1.22s.05,0,.05,0a2.14,2.14,0,0,1,1.81-1l4.11,0,31.58.18A2,2,0,0,1,258.84,28.93Z"/><path class="cls-33" d="M221.28,57.08a1.41,1.41,0,0,1-1.47-1.45V28.86a1.49,1.49,0,0,1,1.47-1.51l35.68.16a1.36,1.36,0,0,1,1.28,1.42v24.9A1.44,1.44,0,0,1,257,55.31Z"/><path class="cls-10" d="M257,26.84l-35.68-.2a2.18,2.18,0,0,0-2.16,2.22v1.61l39.71,0V28.93A2,2,0,0,0,257,26.84Z"/><path class="cls-11" d="M223,28.59a.7.7,0,1,1-.7-.67A.68.68,0,0,1,223,28.59Z"/><path class="cls-11" d="M225.41,28.6a.7.7,0,1,1-.69-.67A.68.68,0,0,1,225.41,28.6Z"/><path class="cls-11" d="M227.83,28.6a.66.66,0,0,1-.68.66.66.66,0,1,1,.68-.66Z"/><polygon class="cls-10" points="256.65 53.92 221.64 55.56 221.64 34.49 256.65 34.19 256.65 53.92"/><g class="cls-13"><polygon class="cls-11" points="240.44 32.22 221.64 32.3 221.64 33.44 240.44 33.32 240.44 32.22"/><polygon class="cls-11" points="254.64 32.15 254.64 33.22 256.65 33.21 256.65 32.15 254.64 32.15"/></g><g class="cls-14"><path class="cls-11" d="M248.29,56.42l-27,1.37a2.12,2.12,0,0,1-2.21-1.87S219,28.85,219,28.85a2.31,2.31,0,0,1,.41-1.21s0,0,.05,0a2.14,2.14,0,0,1,1.82-1l4.09,0s0,0,0,0c.07.23.16.47.25.71a14.4,14.4,0,0,0,1.5,2.91l.12.18a12.63,12.63,0,0,0,1.52,1.81,11.28,11.28,0,0,0,1.31,1.12,14,14,0,0,0,1.62,1c4,2.13,8.41,2.32,11.35,6.68,2.52,3.73.72,5.76,3.15,11.5.27.62.55,1.22.85,1.79s.53,1,.81,1.39C248,56,248.14,56.2,248.29,56.42Z"/></g><path class="cls-11" d="M235.37,51.8a1.48,1.48,0,0,1-1.4,1.47,1.34,1.34,0,0,1-1.4-1.36,1.48,1.48,0,0,1,1.4-1.48A1.35,1.35,0,0,1,235.37,51.8Z"/><path class="cls-11" d="M241,51.57A1.45,1.45,0,0,1,239.61,53a1.31,1.31,0,0,1-1.37-1.35,1.45,1.45,0,0,1,1.37-1.46A1.32,1.32,0,0,1,241,51.57Z"/><path class="cls-11" d="M246.45,51.35a1.43,1.43,0,0,1-1.33,1.45,1.3,1.3,0,0,1-1.34-1.34A1.42,1.42,0,0,1,245.12,50,1.29,1.29,0,0,1,246.45,51.35Z"/><g class="cls-34"><path class="cls-35" d="M224,64.15c-1.22-3.09.4-8.43,1.43-10.87,3-7.06,8.57-7.64,13.1-8.11s8.61-.88,11.73,4.07c2,3.23,3.9,9.24,2.72,12.61-1.25,3.55-4.85,1.16-13.45,1.81C229.9,64.38,225.54,68,224,64.15Z"/><path class="cls-36" d="M242.71,45.63c0,.85-2,2-4.43,2.16s-4.5-.75-4.51-1.6,2-.6,4.49-.76S242.7,44.78,242.71,45.63Z"/><path class="cls-37" d="M236.56,40c-.69,0,.94,4.93-1.54,5.77a.29.29,0,0,0-.05.53,7.77,7.77,0,0,0,4,.6,5,5,0,0,0,2.77-1,.29.29,0,0,0,0-.48c-.76-.36-1.83-1.6-1.55-5.45Z"/><path class="cls-38" d="M234.42,34.16c0,.06.26,4.61,1.29,6.83.29.64,1.71.48,2.63.35s2,.12,2.39-.48c1.39-2.38,1.09-8.06,1.09-8.06s-.74-1.86-3.7-1.67A4.17,4.17,0,0,0,234.42,34.16Z"/><path class="cls-39" d="M235.15,36.57a2.59,2.59,0,0,0-1.23-.79c-.59-.07-1,1.54-.14,2.53a1.13,1.13,0,0,0,1.73.08Z"/><path class="cls-40" d="M241.21,36.25a2.84,2.84,0,0,1,1.19-.91c.58-.13,1,1.43.19,2.49a1.12,1.12,0,0,1-1.71.27Z"/><path class="cls-41" d="M234.65,36.54c.09.15.18.28.24.26.25-.08-.75-2.59.14-3.54.46-.48,1-.09,2.88-.27s2.38-.68,3-.34,1,1.22.64,4l.32-.1a3,3,0,0,1,.18-1.86,2.25,2.25,0,0,0,.34-1.12c0-.31-.11-.32-.13-.57-.06-.73.74-1,.78-1.7,0-.56-.44-.66-.36-1.25s.42-.61.36-1-.55-.65-.89-.73-.47,0-.67-.11-.18-.65-.42-.79c-.42-.26-1.25.88-1.8.63-.33-.15-.21-.66-.5-.77-.57-.21-1.55,1.49-1.95,1.29-.2-.1,0-.51-.29-.79a1.08,1.08,0,0,0-1.43.08c-.32.36,0,.76-.38,1.21s-.66.26-1,.59c-.59.56-.37,1.75-.29,2.18.27,1.47,1.06,1.73.89,2.75a2.44,2.44,0,0,0-.06,1A1.8,1.8,0,0,0,234.65,36.54Z"/><g class="cls-42"><path class="cls-43" d="M241.86,33c-.08-.72.46-1.09.36-1.6a1.17,1.17,0,0,0-.95-.82c-.9-.13-1.47,1.29-2.37,1.18-.69-.08-.62-1-1.41-1.28-1.25-.5-2.55,1.27-3.38.83-.26-.13-.51-.48-.54-1.47a2.83,2.83,0,0,0-.2,2.08c.27,1.47,1.06,1.73.89,2.75a2.44,2.44,0,0,0-.06,1,1.8,1.8,0,0,0,.45.91c.09.15.18.28.24.26.25-.08-.75-2.59.14-3.54.46-.48,1-.09,2.88-.27s2.38-.68,3-.34,1,1.22.64,4l.32-.1a3,3,0,0,1,.18-1.86c.05-.12.12-.24.19-.39a3.26,3.26,0,0,0-.15-.77A2.55,2.55,0,0,1,241.86,33Z"/></g></g><path class="cls-11" d="M235.17,51.79A1.26,1.26,0,0,1,234,53a1.15,1.15,0,0,1-1.21-1.14A1.24,1.24,0,0,1,234,50.65,1.15,1.15,0,0,1,235.17,51.79Z"/><path class="cls-11" d="M240.78,51.59a1.23,1.23,0,0,1-1.19,1.21,1.12,1.12,0,0,1-1.19-1.13,1.23,1.23,0,0,1,1.19-1.21A1.13,1.13,0,0,1,240.78,51.59Z"/><path class="cls-11" d="M246.29,51.39a1.22,1.22,0,0,1-1.17,1.2A1.11,1.11,0,0,1,244,51.47a1.21,1.21,0,0,1,1.17-1.2A1.12,1.12,0,0,1,246.29,51.39Z"/><rect class="cls-44" x="265.06" y="32.31" width="12.26" height="12.05"/><rect class="cls-45" x="265.3" y="47.31" width="12.26" height="12.05"/><rect class="cls-46" x="265.3" y="62.17" width="12.26" height="12.05"/><line class="cls-47" x1="222.41" y1="65.52" x2="253.33" y2="65.52"/><line class="cls-48" x1="222.41" y1="60.54" x2="253.33" y2="60.54"/><line class="cls-49" x1="222.41" y1="69.44" x2="253.33" y2="69.44"/><line class="cls-50" x1="222.41" y1="73.69" x2="253.33" y2="73.69"/><line class="cls-51" x1="222.07" y1="78.7" x2="253" y2="78.7"/><path class="cls-52" d="M110.77,67.25l-.25-.26a1,1,0,0,1,.07-1.5l17.52-15.68,1.6,1.82L112.31,67.3A1.11,1.11,0,0,1,110.77,67.25Z"/><path class="cls-53" d="M145.73,34.7a12.16,12.16,0,0,0-17.49-1.77,13,13,0,0,0-1,18.35,12.12,12.12,0,0,0,17.43,1.09A13,13,0,0,0,145.73,34.7ZM128.79,49.91a10.91,10.91,0,0,1,.82-15.36A10.22,10.22,0,0,1,144.3,36a11,11,0,0,1-.86,14.88A10.19,10.19,0,0,1,128.79,49.91Z"/><path class="cls-54" d="M128.11,49.81l-2.24,2a3,3,0,0,1-.13,2c-.81,1.7-3.11,1.33-5,3.74-.93,1.21-.51,1.51-1.45,2.49-1.56,1.62-2.91,1-4.28,2.46s-.87,3-1.86,3.41c-.43.17-1.1.12-2.22-.75l-.37.33a1,1,0,0,0-.07,1.5l.25.26a1.11,1.11,0,0,0,1.54,0l17.4-15.67Z"/><path class="cls-55" d="M146.37,35.05a12.17,12.17,0,0,0-17.49-1.78,13,13,0,0,0-1,18.35,12.13,12.13,0,0,0,17.43,1.1A13,13,0,0,0,146.37,35.05ZM129.43,50.26a10.93,10.93,0,0,1,.82-15.37,10.23,10.23,0,0,1,14.69,1.44,11,11,0,0,1-.86,14.89A10.2,10.2,0,0,1,129.43,50.26Z"/><path class="cls-56" d="M145.86,35.5a11.46,11.46,0,0,0-16.49-1.65,12.25,12.25,0,0,0-.92,17.29,11.45,11.45,0,0,0,16.45,1A12.31,12.31,0,0,0,145.86,35.5ZM129.43,50.26a10.93,10.93,0,0,1,.82-15.37,10.23,10.23,0,0,1,14.69,1.44,11,11,0,0,1-.86,14.89A10.2,10.2,0,0,1,129.43,50.26Z"/><path class="cls-57" d="M66,229.14s-.66,3.72-1,7.39a2.55,2.55,0,0,0,2.43,2.75c4.9.21,15.38.6,19.14.43a.82.82,0,0,0,.72-1.13h0a1.82,1.82,0,0,0-.94-1l-17.31-8Z"/><path class="cls-58" d="M65.43,227,66,231.4s3,1.41,5.1-.18l-1.25-4.95Z"/><path class="cls-59" d="M65.83,143.37c-.23,1.16-1.22,57.94,4.85,83.38a.89.89,0,0,1-.51,1,15,15,0,0,1-4.94,1,1.5,1.5,0,0,1-1.48-1.07c-1.73-5.9-10-35.48-11.13-63.73-1.21-31.57,0-1.07,0-1.07l.71-19.52Z"/><path class="cls-60" d="M46.06,231.08A26.41,26.41,0,0,0,44,237.94a1.55,1.55,0,0,0,1.36,1.85c1.62.16,4.11.37,6.1.35A1.54,1.54,0,0,0,53,238.42a13,13,0,0,0-3-7.13Z"/><path class="cls-61" d="M45.14,225.36l1.23,6.72s1.22.91,3.63.25l-.59-7.23Z"/><path class="cls-62" d="M41.81,145.12c-5,29.95,1.08,74,3.11,82.66a1.35,1.35,0,0,0,1.09,1,9.16,9.16,0,0,0,3.88-.15,1.24,1.24,0,0,0,.89-1.14c.27-7-.22-49.8,4.4-66.72a3.83,3.83,0,0,1,1.49-2.12l9-6.38L66.33,142Z"/><path class="cls-63" d="M73.44,88.36c-14.88-.25-31.29,3.9-31.29,3.9-4.43,25.87-.78,55.71-.78,55.71,11.52,3,24.51-1.84,24.51-1.84,1.91-10.82,10.84-41.25,10.84-41.25a49,49,0,0,0,18.19-5.77A32,32,0,0,1,88.6,85.93,50.16,50.16,0,0,1,73.44,88.36Z"/><path class="cls-64" d="M117.37,66.45a2.84,2.84,0,0,0-3.31-.93c-2.19,9.24-13.66,16.74-25.46,20.41a32,32,0,0,0,6.31,13.18C114.48,88.11,117.37,66.45,117.37,66.45Z"/><path class="cls-65" d="M117,66.9c.15.48-1.62,1.22-2.66-.77,0-.95-.62-5,0-5.81A75.94,75.94,0,0,1,123.22,51,1.39,1.39,0,0,1,123.4,53l-2.85,3a14.1,14.1,0,0,1,1.66,3.29,4,4,0,0,1-.4,2.94,33.52,33.52,0,0,1-1.83,3A4,4,0,0,1,117,66.9Z"/><path class="cls-66" d="M119.3,57.85l-2.6,2.2-.82,2.2,2.32,2.57s.78-4.36,1.36-5.3S119.84,58.13,119.3,57.85Z"/><path class="cls-67" d="M47.85,106.67l-5.7-14.41S28.26,101.7,26,113.67A31.49,31.49,0,0,1,37.67,117C39.78,112.2,47.85,106.67,47.85,106.67Z"/><path class="cls-68" d="M58.37,76.28,53.64,90a.48.48,0,0,0,.22.59c1.29.72,5.94,2.78,11.54-.77a2.35,2.35,0,0,0,1.07-1.66L68,76.28Z"/><path class="cls-69" d="M68.67,63.61s5.19,9.78,4.53,13.73S66.09,81,60.47,77.8L56.54,67.24Z"/><path class="cls-70" d="M60.72,72.61a.4.4,0,0,0,.17-.59A10.1,10.1,0,0,1,59.45,69s-.94-.6,2.37-1.39,8.25-2,9.29-4.84-1.64-9.66-5.89-4.16a.4.4,0,0,1-.64,0c-.69-.91-2.52-2.79-5.06-1.65a3.82,3.82,0,0,0-2.61,3.69.4.4,0,0,1-.48.41A4.65,4.65,0,0,0,51,63.55c-1.1,2.44-.38,3.81.27,4.49a.4.4,0,0,1-.17.67,2.42,2.42,0,0,0-1.71,2.76c.14,2.55,3,2.33,3.82,2.21a.41.41,0,0,1,.36.13c.69.77,3.84,4,7.24,4.45a.41.41,0,0,0,.43-.54l-1.47-4.28a.4.4,0,0,1,.21-.5Z"/><path class="cls-71" d="M61.31,73.22s-3.7-2.54-4-.4,3.33,3.1,5.11,2.3Z"/><path class="cls-72" d="M26.07,113.79s-9.5,21.63,13.71,24.79L43,135.94s-11.61-6.33-5.28-19C37.67,117,30.81,111.15,26.07,113.79Z"/><path class="cls-73" d="M43,135.94h8.44s5.27,6.86,4.75,8.45-5.74.32-5.74.32l-2.7-4.55s-7.92.53-7.92-1.58S43,135.94,43,135.94Z"/><path class="cls-7" d="M68.74,63.16a.08.08,0,0,1-.07,0,.07.07,0,0,1,0-.11,2.77,2.77,0,0,0,1.18-1.93,5,5,0,0,0-1.19-3.18.08.08,0,0,1,0-.11.08.08,0,0,1,.12,0A4.92,4.92,0,0,1,70,61.1a2.9,2.9,0,0,1-1.24,2Z"/><rect class="cls-74" x="157.14" y="82.95" width="45.69" height="61.92"/><path class="cls-10" d="M200.08,88.12a2,2,0,0,0-1.5-2l-.09,0a1.43,1.43,0,0,0-.29,0l-17.92-.1-17.68-.1h-.11a2,2,0,0,0-1.25.49l0,0-.14.13h0l-.08.08a2.3,2.3,0,0,0-.55,1.49v1.61h0v25.16a2.52,2.52,0,0,0,.07.56,2.81,2.81,0,0,0,.1.31,2.05,2.05,0,0,0,1.55,1.24,2.13,2.13,0,0,0,.44,0l27.06-1.38h0l8.54-.43a2.11,2.11,0,0,0,1.88-2.17V89.61h0Z"/><path class="cls-11" d="M200.16,88.11V113a2.1,2.1,0,0,1-1.88,2.17l-8.67.44-27,1.38a2.12,2.12,0,0,1-2.21-1.87c0-.08-.07-27.06-.07-27.06a2.41,2.41,0,0,1,.41-1.23l.05,0a2.15,2.15,0,0,1,1.81-1l4.11,0,31.58.18A2,2,0,0,1,200.16,88.11Z"/><path class="cls-75" d="M162.6,116.26a1.41,1.41,0,0,1-1.47-1.45V88a1.48,1.48,0,0,1,1.47-1.51l35.68.15a1.37,1.37,0,0,1,1.28,1.43V113a1.45,1.45,0,0,1-1.28,1.48Z"/><path class="cls-10" d="M198.28,86l-35.68-.21A2.19,2.19,0,0,0,160.44,88v1.6l39.71,0V88.11A2,2,0,0,0,198.28,86Z"/><path class="cls-11" d="M164.28,87.77a.7.7,0,0,1-1.4,0,.7.7,0,0,1,1.4,0Z"/><path class="cls-11" d="M166.73,87.77a.7.7,0,0,1-1.39,0,.67.67,0,0,1,.69-.66A.68.68,0,0,1,166.73,87.77Z"/><path class="cls-11" d="M169.15,87.78a.69.69,0,1,1-.68-.66A.67.67,0,0,1,169.15,87.78Z"/><polygon class="cls-10" points="197.97 113.09 162.96 114.73 162.96 93.66 197.97 93.36 197.97 113.09"/><g class="cls-13"><polygon class="cls-11" points="181.76 91.39 162.96 91.48 162.96 92.62 181.76 92.49 181.76 91.39"/><polygon class="cls-11" points="195.96 91.33 195.96 92.4 197.97 92.39 197.97 91.32 195.96 91.33"/></g><g class="cls-14"><path class="cls-11" d="M189.61,115.59l-27,1.38a2.12,2.12,0,0,1-2.21-1.87S160.32,88,160.32,88a2.34,2.34,0,0,1,.41-1.22s0,0,.05,0a2.14,2.14,0,0,1,1.82-1l4.09,0s0,0,0,0c.08.23.17.47.26.7a14.73,14.73,0,0,0,1.5,2.92l.12.17a12.2,12.2,0,0,0,1.52,1.82,11.17,11.17,0,0,0,1.31,1.11,13.27,13.27,0,0,0,1.62,1c4,2.12,8.41,2.31,11.35,6.67,2.52,3.74.72,5.77,3.15,11.51.27.62.55,1.21.85,1.78s.53.95.8,1.4C189.32,115.16,189.46,115.38,189.61,115.59Z"/></g><path class="cls-11" d="M176.69,111a1.48,1.48,0,0,1-1.4,1.48,1.35,1.35,0,0,1-1.4-1.37,1.48,1.48,0,0,1,1.4-1.48A1.35,1.35,0,0,1,176.69,111Z"/><path class="cls-11" d="M182.29,110.75a1.46,1.46,0,0,1-1.36,1.46,1.33,1.33,0,0,1-1.38-1.35,1.47,1.47,0,0,1,1.38-1.47A1.33,1.33,0,0,1,182.29,110.75Z"/><path class="cls-11" d="M187.77,110.53a1.44,1.44,0,0,1-1.33,1.45,1.3,1.3,0,0,1-1.34-1.34,1.44,1.44,0,0,1,1.34-1.45A1.3,1.3,0,0,1,187.77,110.53Z"/><g class="cls-76"><path class="cls-77" d="M178,113.58c-5.37-.83-6.57-1.44-7.13-2.58-.8-1.66-.22-4.36,1.16-6,1.21-1.46,2.71-1.74,2.66-2.74,0-.83-1.06-.94-1.81-2.5a3.88,3.88,0,0,1-.47-2.41,3.75,3.75,0,0,1,1.78-2.41c1.45-.8,2.27.16,3.36-.56,1.36-.9.74-2.84,2-3.37a3,3,0,0,1,2.4.45c1,.58.91,1.14,1.77,1.51,1,.42,1.48-.22,2.65.06a4.22,4.22,0,0,1,2.21,1.65c1.27,1.58.64,2.51,1.57,4.46,1.31,2.73,3.28,2.42,3.63,4.6.18,1.14-.29,1.66.07,3.4.24,1.17.55,1.38.6,2.07.16,2-2.09,3.76-2.51,4.08C189.22,115.26,185.47,114.73,178,113.58Z"/><path class="cls-78" d="M186.51,108.19c-3.52-.24-5.92,3.12-6.87,2.29s1.65-3.46.78-6.57-4.23-3.71-4-5.44c.31-2,4.82-2.4,4.71-3.84-.06-.85-1.65-1-2-2.4a2.15,2.15,0,0,1,0-1.07c-.87.7-.47,2.38-1.71,3.2-1.09.72-1.91-.24-3.36.56a3.75,3.75,0,0,0-1.78,2.41,3.88,3.88,0,0,0,.47,2.41c.75,1.56,1.78,1.67,1.81,2.5,0,1-1.45,1.28-2.66,2.74-1.38,1.66-2,4.36-1.16,6,.56,1.14,1.76,1.75,7.13,2.58,7.51,1.15,11.26,1.68,13.95-.31a6.74,6.74,0,0,0,2.52-3.23,3.06,3.06,0,0,1-1.51.83C190.68,111.31,189.65,108.41,186.51,108.19Z"/><path class="cls-79" d="M172,120.83c-.82-2-.32-5.27-.22-6a13.12,13.12,0,0,1,1.72-4.88c2.39-4,6-4,8.72-3.94a11.89,11.89,0,0,1,4.41.6,11.43,11.43,0,0,1,2.45,1.31c3.34,2.44,6,10.43,3.29,13.5-1.72,2-3.49-.48-11.2.83-3.12.53-6.42,1.39-8.39-.32A2.79,2.79,0,0,1,172,120.83Z"/><path class="cls-80" d="M180.77,101.27s.57,4.28-2.33,5.14a.48.48,0,0,0-.19.79l3.58,3.48a.52.52,0,0,0,.76,0l3.21-3.73a.48.48,0,0,0-.18-.75c-1-.39-2.87-1.55-2.48-4.67Z"/><path class="cls-81" d="M179,98.88c0,.05.78,4.24,2.79,4.24s2.6-3.05,2.83-4.47l.08-.73a1.43,1.43,0,0,1-.83,0,1.34,1.34,0,0,1-.83-.67c-.23-.52.19-.94-.05-1.4a1,1,0,0,0-.63-.47,1.41,1.41,0,0,1,.26,1.15c-.1.29-.39.57-1,.73C179.7,97.75,179,97.93,179,98.88Z"/><path class="cls-82" d="M179.48,99.39s-1-.93-1.13-.37c-.19,1.17.7,1.82,1.18,1.47S179.48,99.39,179.48,99.39Z"/><path class="cls-83" d="M184,99.42s1-.89,1.11-.34c.19,1.16-.68,1.79-1.16,1.44S184,99.42,184,99.42Z"/></g><path class="cls-11" d="M176.49,111a1.24,1.24,0,0,1-1.21,1.22,1.15,1.15,0,0,1-1.22-1.14,1.25,1.25,0,0,1,1.22-1.22A1.14,1.14,0,0,1,176.49,111Z"/><path class="cls-11" d="M182.1,110.76a1.24,1.24,0,0,1-1.19,1.22,1.13,1.13,0,0,1-1.19-1.13,1.22,1.22,0,0,1,1.19-1.21A1.12,1.12,0,0,1,182.1,110.76Z"/><path class="cls-11" d="M187.6,110.57a1.22,1.22,0,0,1-1.16,1.2,1.12,1.12,0,0,1-1.17-1.12,1.21,1.21,0,0,1,1.17-1.2A1.12,1.12,0,0,1,187.6,110.57Z"/><rect class="cls-84" x="206.38" y="91.49" width="12.26" height="12.05"/><rect class="cls-85" x="206.62" y="106.48" width="12.26" height="12.05"/><rect class="cls-86" x="206.62" y="121.35" width="12.26" height="12.05"/><line class="cls-87" x1="163.73" y1="124.69" x2="194.65" y2="124.69"/><line class="cls-88" x1="163.73" y1="119.72" x2="194.65" y2="119.72"/><line class="cls-89" x1="163.73" y1="128.62" x2="194.65" y2="128.62"/><line class="cls-90" x1="163.73" y1="132.86" x2="194.65" y2="132.86"/><line class="cls-91" x1="163.39" y1="137.88" x2="194.32" y2="137.88"/><path d="M132.56,39.67a5.72,5.72,0,0,1,3,.88,16.65,16.65,0,0,1,3.37,2.84c.23.24.23.24.41,0,1.07-1.71,2.2-3.39,3.42-5A46.21,46.21,0,0,1,146,34.48a24.81,24.81,0,0,1,3.17-2.8,7.44,7.44,0,0,1,3-1.45,3,3,0,0,1,1,0c.06,0,.14,0,.16.07s-.05.11-.09.15c-.49.5-1,1-1.46,1.51-.8.88-1.59,1.77-2.36,2.69-.9,1.08-1.78,2.19-2.63,3.31q-1.87,2.5-3.57,5.15c-.85,1.34-1.67,2.7-2.42,4.09-.51,1-1,1.93-1.48,2.89,0,.07,0,.17-.12.17s-.1-.1-.13-.17a25,25,0,0,0-2-3.61,23.37,23.37,0,0,0-5.34-5.62c-.29-.21-.6-.41-.9-.61s-.18-.15,0-.25a3.37,3.37,0,0,1,1.07-.27A4.53,4.53,0,0,1,132.56,39.67Z"/><path d="M208,96.82a2.9,2.9,0,0,1,1.45.43,8.39,8.39,0,0,1,1.64,1.39c.11.12.11.12.2,0,.52-.84,1.08-1.65,1.67-2.44a22.07,22.07,0,0,1,1.59-1.89,12.47,12.47,0,0,1,1.54-1.37,3.72,3.72,0,0,1,1.47-.71,1.74,1.74,0,0,1,.51,0s.06,0,.07,0,0,.06,0,.08c-.24.24-.48.48-.71.73-.4.43-.78.87-1.16,1.31s-.86,1.07-1.28,1.62c-.61.82-1.2,1.66-1.75,2.52-.41.65-.81,1.31-1.17,2-.25.46-.49.94-.73,1.41,0,0,0,.08-.06.08s-.05,0-.06-.08a11.16,11.16,0,0,0-1-1.76,11.38,11.38,0,0,0-2.61-2.75c-.14-.11-.29-.2-.44-.3s-.09-.07,0-.12a1.37,1.37,0,0,1,.52-.13A2.36,2.36,0,0,1,208,96.82Z"/><path d="M209.73,111.86a2.78,2.78,0,0,1,1.44.44,8.12,8.12,0,0,1,1.65,1.38c.11.12.11.12.2,0,.52-.84,1.07-1.66,1.67-2.45a23.73,23.73,0,0,1,1.59-1.89,12.47,12.47,0,0,1,1.54-1.37,3.8,3.8,0,0,1,1.46-.7,1.46,1.46,0,0,1,.51,0s.07,0,.08,0,0,0,0,.07c-.24.24-.49.48-.72.74-.39.43-.77.86-1.15,1.31s-.87,1.07-1.28,1.62c-.62.81-1.2,1.65-1.75,2.51-.41.66-.81,1.32-1.18,2-.25.47-.48.94-.72,1.41,0,0,0,.09-.06.08s-.05,0-.06-.08a13.16,13.16,0,0,0-1-1.76,11.75,11.75,0,0,0-2.61-2.75l-.44-.29c-.09-.06-.09-.08,0-.13a1.53,1.53,0,0,1,.52-.13Z"/><path d="M209,127a2.78,2.78,0,0,1,1.45.44,7.75,7.75,0,0,1,1.64,1.38c.12.12.12.12.2,0,.53-.84,1.08-1.65,1.68-2.44a22,22,0,0,1,1.58-1.89,11.87,11.87,0,0,1,1.55-1.37,3.62,3.62,0,0,1,1.46-.71,1.74,1.74,0,0,1,.51,0s.07,0,.08,0,0,.06,0,.08c-.24.24-.48.48-.71.73-.39.43-.78.87-1.15,1.32s-.87,1.07-1.29,1.62c-.61.81-1.19,1.65-1.74,2.51-.42.65-.82,1.32-1.18,2-.25.46-.48.94-.72,1.41,0,0,0,.08-.07.08s0-.05-.06-.08a11.63,11.63,0,0,0-1-1.76,11.19,11.19,0,0,0-2.61-2.75c-.14-.11-.29-.2-.44-.3s-.08-.07,0-.12a1.65,1.65,0,0,1,.53-.13Z"/><path d="M266.82,37.48a2.78,2.78,0,0,1,1.45.44,8.06,8.06,0,0,1,1.64,1.38c.12.12.12.12.2,0,.53-.84,1.08-1.65,1.68-2.44A22,22,0,0,1,273.37,35a11.87,11.87,0,0,1,1.55-1.37,3.75,3.75,0,0,1,1.46-.71,1.74,1.74,0,0,1,.51,0s.07,0,.08,0,0,.05-.05.07c-.24.24-.48.48-.71.73-.39.43-.78.87-1.15,1.32s-.87,1.07-1.29,1.62c-.61.81-1.19,1.65-1.74,2.51-.42.65-.82,1.32-1.18,2-.25.46-.48.94-.72,1.41,0,0,0,.08-.07.08s0,0-.06-.08a11.63,11.63,0,0,0-1-1.76,11.19,11.19,0,0,0-2.61-2.75l-.44-.3c-.09-.06-.08-.07,0-.12a1.65,1.65,0,0,1,.53-.13Z"/><path d="M267.35,53.43a2.87,2.87,0,0,1,1.44.43,8.12,8.12,0,0,1,1.65,1.39c.11.11.11.11.2,0a29.19,29.19,0,0,1,1.67-2.44,20.38,20.38,0,0,1,1.59-1.89,11.78,11.78,0,0,1,1.54-1.37,3.62,3.62,0,0,1,1.46-.71,1.46,1.46,0,0,1,.51,0s.07,0,.08,0,0,0,0,.07c-.24.25-.49.49-.72.74-.39.43-.78.86-1.15,1.31s-.87,1.07-1.28,1.62c-.62.82-1.2,1.66-1.75,2.52-.41.65-.81,1.31-1.18,2-.25.47-.48.95-.72,1.42,0,0,0,.08-.06.08s0-.05-.07-.09a11.57,11.57,0,0,0-3.58-4.5l-.44-.3c-.09-.06-.09-.08,0-.12a1.33,1.33,0,0,1,.52-.13A1.35,1.35,0,0,1,267.35,53.43Z"/><path d="M267.52,69.48a2.81,2.81,0,0,1,1.45.44,8.34,8.34,0,0,1,1.64,1.38c.12.12.12.12.2,0,.52-.83,1.08-1.65,1.67-2.44A22.07,22.07,0,0,1,274.07,67a11.87,11.87,0,0,1,1.55-1.37,3.6,3.6,0,0,1,1.46-.7,1.46,1.46,0,0,1,.51,0s.06,0,.07,0,0,0,0,.07c-.24.24-.48.48-.71.73-.39.43-.78.87-1.15,1.32s-.87,1.07-1.29,1.62c-.61.81-1.19,1.65-1.74,2.51-.42.65-.82,1.32-1.18,2-.25.46-.49.94-.73,1.41,0,0,0,.08-.06.08s-.05-.05-.06-.08a11.63,11.63,0,0,0-1-1.76,11.19,11.19,0,0,0-2.61-2.75l-.44-.3c-.09-.06-.09-.07,0-.12a1.59,1.59,0,0,1,.53-.13Z"/></g></g></svg>