<svg xmlns="http://www.w3.org/2000/svg" xmlns:xlink="http://www.w3.org/1999/xlink" viewBox="0 0 3710 3710"><defs><style>.cls-1{isolation:isolate;}.cls-2{opacity:0.3;fill:url(#linear-gradient);}.cls-3{fill:url(#linear-gradient-2);}.cls-10,.cls-12,.cls-14,.cls-21,.cls-4{fill:#fff;}.cls-4{mix-blend-mode:soft-light;}.cls-5{fill:url(#linear-gradient-3);}.cls-6{fill:url(#linear-gradient-4);}.cls-7{fill:url(#linear-gradient-5);}.cls-8{fill:url(#linear-gradient-6);}.cls-9{fill:url(#_3);}.cls-10{opacity:0.42;}.cls-11{fill:url(#linear-gradient-7);}.cls-12,.cls-13{opacity:0.67;}.cls-15{fill:url(#linear-gradient-8);}.cls-16{fill:url(#linear-gradient-9);}.cls-17{fill:url(#linear-gradient-10);}.cls-18{fill:url(#linear-gradient-11);}.cls-19{fill:url(#linear-gradient-12);}.cls-20{fill:url(#linear-gradient-13);}.cls-21{opacity:0.78;}.cls-22{fill:url(#linear-gradient-14);}.cls-23{fill:url(#linear-gradient-15);}.cls-24{fill:url(#linear-gradient-16);}.cls-25{fill:url(#linear-gradient-17);}.cls-26{fill:url(#linear-gradient-18);}.cls-27{fill:url(#linear-gradient-19);}.cls-28{fill:url(#linear-gradient-20);}.cls-29{fill:url(#linear-gradient-21);}.cls-30{fill:url(#linear-gradient-22);}.cls-31{fill:url(#linear-gradient-23);}</style><linearGradient id="linear-gradient" x1="3584.68" y1="3795.31" x2="1288.18" y2="1316.55" gradientUnits="userSpaceOnUse"><stop offset="0" stop-color="#b37cff"/><stop offset="1" stop-color="#f895e7"/></linearGradient><linearGradient id="linear-gradient-2" x1="2229.2" y1="1947.78" x2="3676.24" y2="1947.78" gradientTransform="translate(-1423.42 -1384.15) rotate(15.99)" gradientUnits="userSpaceOnUse"><stop offset="0" stop-color="#a737d5"/><stop offset="1" stop-color="#ef497a"/></linearGradient><linearGradient id="linear-gradient-3" x1="-5204.84" y1="-6526.13" x2="-3429.67" y2="-6526.13" gradientTransform="translate(7942.58 -834.34) rotate(-75.43)" gradientUnits="userSpaceOnUse"><stop offset="0" stop-color="#ce1567"/><stop offset="1" stop-color="#7a1dbc"/></linearGradient><linearGradient id="linear-gradient-4" x1="1911.65" y1="1186.96" x2="1789.46" y2="3310.07" gradientUnits="userSpaceOnUse"><stop offset="0" stop-color="#2b3582"/><stop offset="1" stop-color="#150e42"/></linearGradient><linearGradient id="linear-gradient-5" x1="963" y1="3546.88" x2="2597.33" y2="1217.58" gradientTransform="matrix(1, 0, 0, 1, 0, 0)" xlink:href="#linear-gradient-2"/><linearGradient id="linear-gradient-6" x1="1892.67" y1="2826.75" x2="1661.34" y2="4422.93" gradientTransform="translate(3675.55 6411.11) rotate(180)" xlink:href="#linear-gradient-4"/><linearGradient id="_3" x1="2602.77" y1="471.37" x2="409.13" y2="4188.52" gradientUnits="userSpaceOnUse"><stop offset="0" stop-color="#53d8ff"/><stop offset="0.19" stop-color="#4ebcfd"/><stop offset="0.21" stop-color="#4db9fd"/><stop offset="1" stop-color="#3840f7"/></linearGradient><linearGradient id="linear-gradient-7" x1="3077.04" y1="273.38" x2="3813.43" y2="-750.55" gradientUnits="userSpaceOnUse"><stop offset="0" stop-color="#53d8ff"/><stop offset="0.21" stop-color="#4db9fd"/><stop offset="1" stop-color="#3840f7"/></linearGradient><linearGradient id="linear-gradient-8" x1="1714.24" y1="527.68" x2="3672.2" y2="413.49" gradientUnits="userSpaceOnUse"><stop offset="0" stop-color="#cb236d"/><stop offset="1" stop-color="#4c246d"/></linearGradient><linearGradient id="linear-gradient-9" x1="1714.41" y1="530.56" x2="3672.36" y2="416.37" xlink:href="#linear-gradient-8"/><linearGradient id="linear-gradient-10" x1="1793.76" y1="1035.65" x2="-2160.56" y2="1671.68" gradientTransform="translate(1069.14 403.42) rotate(12.32)" xlink:href="#linear-gradient-8"/><linearGradient id="linear-gradient-11" x1="1801.42" y1="1083.43" x2="-2157.48" y2="1720.2" gradientTransform="translate(1069.14 403.42) rotate(12.32)" xlink:href="#linear-gradient-8"/><linearGradient id="linear-gradient-12" x1="1721.63" y1="1423.81" x2="1922.28" y2="1190.91" gradientTransform="translate(1402.99 -1014.69) rotate(45)" gradientUnits="userSpaceOnUse"><stop offset="0" stop-color="#fdf53f"/><stop offset="1" stop-color="#d93c65"/></linearGradient><linearGradient id="linear-gradient-13" x1="2035.66" y1="1021.05" x2="1442.34" y2="1917.4" xlink:href="#linear-gradient-12"/><linearGradient id="linear-gradient-14" x1="2017.96" y1="1046.73" x2="1702.03" y2="1577.13" gradientTransform="matrix(1, 0, 0, 1, 0, 0)" xlink:href="#linear-gradient-12"/><linearGradient id="linear-gradient-15" x1="1929.39" y1="1272.84" x2="2278.69" y2="867.41" gradientTransform="translate(1277.04 -1364.61) rotate(45)" xlink:href="#linear-gradient-12"/><linearGradient id="linear-gradient-16" x1="2476.07" y1="571.7" x2="1443.19" y2="2132.09" gradientTransform="translate(1277.04 -1364.61) rotate(45)" xlink:href="#linear-gradient-12"/><linearGradient id="linear-gradient-17" x1="2445.25" y1="616.41" x2="1895.27" y2="1539.75" gradientTransform="matrix(1, 0, 0, 1, 0, 0)" xlink:href="#linear-gradient-12"/><linearGradient id="linear-gradient-18" x1="2098.66" y1="1866.48" x2="2458.08" y2="1449.29" gradientTransform="translate(1740.93 -1321.24) rotate(45)" xlink:href="#linear-gradient-12"/><linearGradient id="linear-gradient-19" x1="2661.18" y1="1145.01" x2="1598.36" y2="2750.63" gradientTransform="translate(1740.93 -1321.24) rotate(45)" xlink:href="#linear-gradient-12"/><linearGradient id="linear-gradient-20" x1="2629.47" y1="1191.02" x2="2063.54" y2="2141.12" gradientTransform="matrix(1, 0, 0, 1, 0, 0)" xlink:href="#linear-gradient-12"/><linearGradient id="linear-gradient-21" x1="2521.7" y1="1286.27" x2="2785.04" y2="980.6" gradientTransform="translate(1506.3 -1687.68) rotate(45)" xlink:href="#linear-gradient-12"/><linearGradient id="linear-gradient-22" x1="2933.85" y1="757.66" x2="2155.13" y2="1934.08" gradientTransform="translate(1506.3 -1687.68) rotate(45)" xlink:href="#linear-gradient-12"/><linearGradient id="linear-gradient-23" x1="2910.62" y1="791.36" x2="2495.97" y2="1487.5" gradientTransform="matrix(1, 0, 0, 1, 0, 0)" xlink:href="#linear-gradient-12"/></defs><title>ICONO LOTERIA DE BOGOTA</title><g class="cls-1"><g id="Illustration"><path class="cls-2" d="M3264.65,2382.75c-315.56,737.58-1148.53,1054.39-1801.17,1000.37-178.2-14.75-536.73-44.42-816.68-309.16C109.17,2565.54,192,1502.82,706.63,877.14c66.28-80.57,525-620.41,1239.94-613.18,523.41,5.29,890.78,301,935.46,337.79,56.43,46.53,180.89,157.1,293.07,332.52C3438.67,1346.45,3461.84,1921.84,3264.65,2382.75Z"/><path class="cls-3" d="M434.84,234c-5.1-15.75,13.27-28.7,26.54-18.8C596.16,315.69,927.71,624.91,922.82,1231.7,916.68,1993,1104.25,2249.23,1318,2394.23c0,0-276.33-48.2-476.17-307.11C351.14,1451.44,525.59,514.05,434.84,234Z"/><path class="cls-4" d="M554.18,458C578.92,539.84,602,622.14,622.1,705.18q30.75,124.37,53.83,250.35c15,84,28.47,168.25,38.32,253,10.23,84.65,16.81,169.65,23.12,255,6.78,85.28,13.13,171.23,28.3,256.8,15.05,85.39,40.55,170.37,80.81,248.16,10.06,19.39,20.51,38.67,32,57.14,11.14,18.69,23.12,36.89,35.42,54.87a930.17,930.17,0,0,0,81.59,102.2c59.4,64,128.52,119,202.85,163.67a16.53,16.53,0,0,0,17.46-28.07l-.06,0c-17.77-11.39-35.39-23-52.43-35.28-8.63-6-17-12.42-25.42-18.65-8.2-6.55-16.67-12.78-24.66-19.57a871,871,0,0,1-91.2-86.48c-56.73-61.63-104.53-132-143.13-206.3a831.63,831.63,0,0,1-48-115.82A944.14,944.14,0,0,1,800.13,1714c-15.36-83-22.34-168-29.74-253.22s-15.64-170.84-27.28-256q-8.55-63.87-19.39-127.38c-3.49-21.19-7.4-42.3-11.26-63.42q-6.09-31.62-12.59-63.16Q673.53,824.8,639.46,700.64C616.34,618,591,536.07,562.61,455.22a4.43,4.43,0,0,0-8.43,2.75Z"/><path class="cls-5" d="M814.65,2650c-9.8,28.89-45.93,38.37-68.93,18.33-126.91-110.6-457.45-455.77-437.45-1036.57,16.9-490.46-20.55-758-46-878.3-5.37-25.43,24.84-42.94,44.27-25.67C520.94,918.34,1169.94,1603.11,814.65,2650Z"/><path class="cls-4" d="M773.36,2651.08a13.09,13.09,0,0,1-2,1.12,11.92,11.92,0,0,1-15.7-6.13c-3-6.83-299.58-690.79-306.9-1373.8a11.91,11.91,0,1,1,23.82-.26c7.27,678.05,301.92,1357.71,304.9,1364.5A11.92,11.92,0,0,1,773.36,2651.08Z"/><path class="cls-6" d="M482,3096.39a49.44,49.44,0,0,0,49.32,49.27h2667a49.44,49.44,0,0,0,49.32-49.27l22.19-1532.63c0-27.1-31.93-80-90.44-76L572.91,1420.29A124.27,124.27,0,0,0,445.39,1547.4Z"/><path class="cls-7" d="M530.7,3049.12a46.8,46.8,0,0,0,46.66,46.66H3134a46.79,46.79,0,0,0,46.66-46.66l20.94-1391.34c-2.46-83.72-75.87-113.81-120.37-112l-2498-67a87.36,87.36,0,0,0-89.61,89.39Z"/><rect class="cls-8" x="265.66" y="3138.22" width="3144.24" height="134.66" rx="0.54" transform="translate(3675.55 6411.11) rotate(-180)"/><path class="cls-9" d="M2748,293.2,850.51,281.59a108.61,108.61,0,0,0-109.15,114L871.9,3091.51H2983.49L3100.74,682.84Z"/><path class="cls-10" d="M839.51,483.33,990,3090.22H2903.83L2993,604.53,2748.77,359.27H959.9C890.65,359.27,835.62,416,839.51,483.33Z"/><path class="cls-11" d="M2826.93,671.29a108.61,108.61,0,0,1-104.46-117.1l20.34-257.43,358.3,384.5Z"/><rect class="cls-12" x="1786.99" y="581.46" width="783.56" height="68.97" rx="0.28"/><rect class="cls-12" x="1089.8" y="2568.37" width="1673.07" height="135.12" rx="0.54"/><rect class="cls-12" x="1790.37" y="691.34" width="783.56" height="68.97" rx="0.28"/><g class="cls-13"><path class="cls-14" d="M999.35,1010.56a37.15,37.15,0,0,0,36.23,27.68l1384.22-11.81a28.09,28.09,0,0,0-.11-56.17l-1384.26-6.32A37.14,37.14,0,0,0,999.35,1010.56Z"/></g><path class="cls-15" d="M1819.83,520.47c221.64-136.9,410.84-135.72,628.53-31.19A40.18,40.18,0,0,1,2471.2,526l-.1,9a40.12,40.12,0,0,1-53.89,37.22C2229,503.35,2088,467,1859.85,590c-25.11,13.54-55.93-2.84-58.87-31.21h0A40.17,40.17,0,0,1,1819.83,520.47Z"/><path class="cls-16" d="M1858.94,414.62,1740.43,596.19a8.73,8.73,0,0,0,6.56,13.47l207.84,17.83a10.13,10.13,0,0,0,10.07-14.32c-49.65-63.86-78.69-129.8-90.76-197.43A8.7,8.7,0,0,0,1858.94,414.62Z"/><g class="cls-13"><path class="cls-14" d="M1044.46,1255.32a37.15,37.15,0,0,0,36.23,27.68l1384.22-11.81a28.09,28.09,0,0,0-.11-56.17l-1384.25-6.32A37.15,37.15,0,0,0,1044.46,1255.32Z"/></g><g class="cls-13"><path class="cls-14" d="M1070.37,1471.29a37.15,37.15,0,0,0,36.24,27.67l1384.22-11.8a28.09,28.09,0,0,0-.12-56.18l-1384.25-6.31A37.15,37.15,0,0,0,1070.37,1471.29Z"/></g><g class="cls-13"><path class="cls-14" d="M1070.37,1782.28a37.15,37.15,0,0,0,36.24,27.67l1384.22-11.8a28.09,28.09,0,0,0-.12-56.18l-1384.25-6.31A37.15,37.15,0,0,0,1070.37,1782.28Z"/></g><path class="cls-17" d="M2290.15,1846.36c-216,78.34-374.88,29.67-535.44-127.3-10.39-10.16-14.82-26.37-11.3-41.62l2-8.83c6.24-27,33.55-38.73,53.36-22.9,143.48,114.67,254.24,185.71,472.69,122.58,24-7,46.43,16.81,42.78,45.33h0C2312.31,1829,2302.93,1841.72,2290.15,1846.36Z"/><path class="cls-18" d="M2234.42,1940.14l138.87-147.94c4.23-4.51,2.8-12.64-2.61-14.84l-171-69.64c-6.36-2.59-12.76,3.77-11.56,11.49,28,75,38.18,146.79,33.74,216C2222.93,1942,2230,1944.82,2234.42,1940.14Z"/><circle class="cls-19" cx="1926.33" cy="1186.21" r="149.59" transform="translate(-274.57 1709.56) rotate(-45)"/><circle class="cls-20" cx="1926.33" cy="1186.21" r="144.62" transform="translate(-274.57 1709.56) rotate(-45)"/><path class="cls-14" d="M1807.08,1131.75a5.61,5.61,0,0,1-5-8.15,138.52,138.52,0,0,1,124.26-76.5,140.87,140.87,0,0,1,25.09,2.25,5.62,5.62,0,0,1-2,11.05,129.57,129.57,0,0,0-23.08-2.07,127.34,127.34,0,0,0-114.23,70.34A5.61,5.61,0,0,1,1807.08,1131.75Z"/><circle class="cls-21" cx="1929.49" cy="1189.36" r="122.4" transform="translate(-275.87 1712.71) rotate(-45)"/><path class="cls-22" d="M1917.47,1280.36V1267c-13.88-.56-27.61-3.83-37.36-8.1a7.71,7.71,0,0,1-4.26-9.1l3.38-12.41a7.77,7.77,0,0,1,10.54-5.08,90.11,90.11,0,0,0,34.5,7.27c13.37,0,23.35-4.54,23.35-13.83,0-8.38-7.71-13.37-26.29-18.35-26.52-7.26-45.56-18.81-45.56-42.16,0-21.07,15.42-37.16,42.16-41.47v-13.32a7.76,7.76,0,0,1,7.76-7.76h7.82a7.76,7.76,0,0,1,7.76,7.76v12a98.79,98.79,0,0,1,29.62,5.32,7.71,7.71,0,0,1,4.82,9.32l-3.11,11.47a7.73,7.73,0,0,1-10.21,5.23,80.71,80.71,0,0,0-29.05-5.28c-15.87,0-20.4,6.57-20.4,12.47,0,7.25,9.52,12.23,30.14,18.58,29.46,8.84,41.7,21.08,41.7,43.06,0,20.17-15,38.3-44,42.83v14.91a7.76,7.76,0,0,1-7.76,7.75h-7.83A7.76,7.76,0,0,1,1917.47,1280.36Z"/><circle class="cls-23" cx="2285.75" cy="859.22" r="260.41" transform="translate(61.92 1867.93) rotate(-45)"/><circle class="cls-24" cx="2285.75" cy="859.22" r="251.75" transform="translate(61.92 1867.93) rotate(-45)"/><path class="cls-14" d="M2078.15,760.26a5.61,5.61,0,0,1-5-8.15,237,237,0,0,1,212.61-130.9,240.5,240.5,0,0,1,42.93,3.86,5.62,5.62,0,1,1-2,11,229,229,0,0,0-40.91-3.68,225.82,225.82,0,0,0-202.58,124.73A5.62,5.62,0,0,1,2078.15,760.26Z"/><circle class="cls-21" cx="2291.23" cy="864.71" r="213.08" transform="translate(59.65 1873.41) rotate(-45)"/><path class="cls-25" d="M2270.32,1023.11V999.93c-24.17-1-48.07-6.67-65.05-14.1a13.42,13.42,0,0,1-7.41-15.85l5.89-21.59a13.51,13.51,0,0,1,18.35-8.84c16.84,7.06,37.63,12.64,60.06,12.64,23.27,0,40.63-7.89,40.63-24.06,0-14.6-13.41-23.28-45.76-32-46.16-12.62-79.3-32.74-79.3-73.38,0-36.69,26.83-64.7,73.38-72.2V727.41a13.51,13.51,0,0,1,13.51-13.51h13.62a13.51,13.51,0,0,1,13.51,13.51v20.82c22.36.89,38.64,4.71,51.55,9.25a13.44,13.44,0,0,1,8.4,16.23l-5.41,20a13.48,13.48,0,0,1-17.79,9.1,140.52,140.52,0,0,0-50.56-9.18c-27.62,0-35.51,11.44-35.51,21.69,0,12.63,16.57,21.31,52.47,32.36,51.29,15.38,72.59,36.68,72.59,75,0,35.12-26,66.68-76.53,74.57v25.94a13.51,13.51,0,0,1-13.51,13.51h-13.62A13.51,13.51,0,0,1,2270.32,1023.11Z"/><circle class="cls-26" cx="2465.34" cy="1440.87" r="267.96" transform="translate(-296.76 2165.28) rotate(-45)"/><circle class="cls-27" cx="2465.34" cy="1440.87" r="259.05" transform="translate(-296.76 2165.28) rotate(-45)"/><path class="cls-14" d="M2251.73,1338.87a5.61,5.61,0,0,1-5-8.14,243.72,243.72,0,0,1,218.62-134.61,246.5,246.5,0,0,1,44.15,4,5.62,5.62,0,0,1-2,11.05,236.13,236.13,0,0,0-42.14-3.79,232.57,232.57,0,0,0-208.6,128.44A5.59,5.59,0,0,1,2251.73,1338.87Z"/><circle class="cls-21" cx="2470.99" cy="1446.51" r="219.26" transform="translate(-299.1 2170.93) rotate(-45)"/><path class="cls-28" d="M2449.47,1609.51v-23.85c-24.87-1-49.46-6.87-66.93-14.52a13.8,13.8,0,0,1-7.63-16.3l6.06-22.22a13.92,13.92,0,0,1,18.88-9.1c17.33,7.27,38.73,13,61.8,13,23.95,0,41.81-8.12,41.81-24.77,0-15-13.8-24-47.09-32.88-47.49-13-81.59-33.69-81.59-75.51,0-37.75,27.6-66.58,75.5-74.29v-23.85a13.9,13.9,0,0,1,13.9-13.9h14a13.9,13.9,0,0,1,13.9,13.9v21.42c23,.92,39.76,4.85,53.05,9.52a13.83,13.83,0,0,1,8.64,16.7l-5.57,20.55a13.87,13.87,0,0,1-18.3,9.36,144.66,144.66,0,0,0-52-9.45c-28.42,0-36.54,11.77-36.54,22.33,0,13,17.05,21.92,54,33.29,52.78,15.83,74.7,37.75,74.7,77.13,0,36.13-26.79,68.6-78.75,76.72v26.7a13.9,13.9,0,0,1-13.9,13.9h-14A13.9,13.9,0,0,1,2449.47,1609.51Z"/><circle class="cls-29" cx="2790.36" cy="974.43" r="196.33" transform="translate(128.26 2258.49) rotate(-45)"/><circle class="cls-30" cx="2790.36" cy="974.43" r="189.81" transform="translate(128.26 2258.49) rotate(-45)"/><path class="cls-14" d="M2633.85,901.2a5.63,5.63,0,0,1-5-8.15,180,180,0,0,1,161.52-99.45,182,182,0,0,1,32.62,2.93,5.62,5.62,0,1,1-2,11.06,170.64,170.64,0,0,0-30.6-2.76,168.88,168.88,0,0,0-151.49,93.28A5.62,5.62,0,0,1,2633.85,901.2Z"/><circle class="cls-21" cx="2794.5" cy="978.56" r="160.65" transform="translate(126.54 2262.62) rotate(-45)"/><path class="cls-31" d="M2778.73,1098v-17.48c-18.22-.73-36.24-5-49-10.63a10.1,10.1,0,0,1-5.58-12l4.44-16.28a10.18,10.18,0,0,1,13.83-6.66,118.38,118.38,0,0,0,45.28,9.53c17.55,0,30.63-6,30.63-18.15,0-11-10.11-17.54-34.5-24.09C2749,992.77,2724,977.6,2724,947c0-27.66,20.22-48.78,55.32-54.43V875.05a10.18,10.18,0,0,1,10.18-10.18h10.27A10.19,10.19,0,0,1,2810,875.05v15.69c16.86.68,29.13,3.56,38.87,7a10.14,10.14,0,0,1,6.33,12.24l-4.08,15a10.16,10.16,0,0,1-13.41,6.86,106.09,106.09,0,0,0-38.12-6.92c-20.83,0-26.77,8.62-26.77,16.36,0,9.52,12.49,16.06,39.56,24.39,38.66,11.6,54.72,27.66,54.72,56.51,0,26.47-19.63,50.27-57.7,56.22V1098a10.18,10.18,0,0,1-10.18,10.18h-10.27A10.19,10.19,0,0,1,2778.73,1098Z"/><rect class="cls-12" x="1074.44" y="1931.03" width="1673.07" height="539.87" rx="0.54"/></g></g></svg>