<svg xmlns="http://www.w3.org/2000/svg" xmlns:xlink="http://www.w3.org/1999/xlink" viewBox="0 0 3710 3710"><defs><style>.cls-1{fill:url(#linear-gradient);}.cls-2{fill:#fe8794;}.cls-3{isolation:isolate;}.cls-4{fill:#f4f7fa;}.cls-14,.cls-18,.cls-20,.cls-5{mix-blend-mode:soft-light;}.cls-6{clip-path:url(#clip-path);}.cls-7{fill:#fcfdfe;}.cls-8{clip-path:url(#clip-path-2);}.cls-9{fill:url(#linear-gradient-3);}.cls-10{fill:url(#linear-gradient-4);}.cls-11{fill:url(#linear-gradient-5);}.cls-12{fill:#d8dee8;}.cls-13,.cls-14,.cls-18{fill:#fff;}.cls-14{opacity:0.48;}.cls-15{fill:url(#linear-gradient-6);}.cls-16,.cls-28,.cls-37,.cls-41,.cls-52{opacity:0.3;}.cls-16,.cls-28,.cls-30,.cls-37,.cls-41,.cls-52{mix-blend-mode:multiply;}.cls-16{fill:url(#linear-gradient-7);}.cls-17{fill:url(#linear-gradient-8);}.cls-18{opacity:0.74;}.cls-19{fill:url(#linear-gradient-9);}.cls-20{opacity:0.5;}.cls-21{fill:url(#linear-gradient-10);}.cls-22{fill:url(#linear-gradient-11);}.cls-23{fill:url(#linear-gradient-12);}.cls-24{fill:url(#linear-gradient-13);}.cls-25{fill:url(#linear-gradient-14);}.cls-26{fill:url(#linear-gradient-15);}.cls-27{fill:url(#linear-gradient-16);}.cls-28{fill:url(#linear-gradient-17);}.cls-29{fill:url(#linear-gradient-18);}.cls-30{opacity:0.4;fill:url(#linear-gradient-19);}.cls-31{fill:url(#linear-gradient-20);}.cls-32{fill:url(#linear-gradient-21);}.cls-33{fill:url(#linear-gradient-22);}.cls-34{fill:url(#linear-gradient-23);}.cls-35{fill:url(#linear-gradient-24);}.cls-36{fill:url(#linear-gradient-25);}.cls-37{fill:url(#linear-gradient-26);}.cls-38{fill:url(#linear-gradient-27);}.cls-39{fill:url(#linear-gradient-28);}.cls-40{fill:url(#linear-gradient-29);}.cls-41{fill:url(#linear-gradient-30);}.cls-42{fill:url(#linear-gradient-31);}.cls-43{fill:url(#linear-gradient-32);}.cls-44{fill:url(#linear-gradient-33);}.cls-45{fill:url(#linear-gradient-34);}.cls-46{fill:url(#linear-gradient-35);}.cls-47{fill:url(#linear-gradient-36);}.cls-48{fill:url(#linear-gradient-37);}.cls-49{fill:url(#linear-gradient-38);}.cls-50{fill:url(#linear-gradient-39);}.cls-51{fill:url(#linear-gradient-40);}.cls-52{fill:url(#linear-gradient-41);}</style><linearGradient id="linear-gradient" x1="1386.57" y1="489.81" x2="2099.88" y2="5049.89" gradientUnits="userSpaceOnUse"><stop offset="0" stop-color="#e38ddd"/><stop offset="1" stop-color="#9571f6"/></linearGradient><clipPath id="clip-path"><path id="SVGID" class="cls-1" d="M1926.86,2783.79c25.26,1.45,81.48-17.67,94.08-28.7,83.86-73.37,249.79-200.55,264.7-317.4,2.55-20-82.22-54.85-91.17-75.29-48.64-35.37-67.71-44.63-97.44-101-87.75-166.33,225.5-388.82-61.58-541.67-210.28-112-413.47-70.47-324.24-412.81s-67-1026.1-478.76-853c-236.3,99.35-78.36,434.42-227.4,631.66-141.64,187.43-86,374.1,110.33,539.46s61,238.69-39.71,423.16c-121,221.6,234.16,331.65,402.47,368.47C1613.68,2446.36,1938.81,2613.31,1926.86,2783.79Z"/></clipPath><clipPath id="clip-path-2"><path id="SVGID-2" data-name="SVGID" class="cls-2" d="M1915.69,2928.86c24-8,69.17-46.54,76.8-61.45,50.79-99.18,157.94-278.69,128.6-392.77-5-19.49-96.68-20.58-112.55-36.26-58.28-14.87-79.41-16.42-127.86-57.78-143-122.11,65.76-444.64-257.49-480.53-236.78-26.28-410.22,87.4-453.89-263.67S727.65,707.78,409.09,1020.86c-182.82,179.67,87.81,432.61,22.25,671-62.3,226.52,58.43,379.39,302,460.45s145,199.2,119.57,407.86c-30.53,250.64,340.18,221.57,510.18,193.55C1500,2731.13,1863.76,2766,1915.69,2928.86Z"/></clipPath><linearGradient id="linear-gradient-3" x1="1721.79" y1="3298.75" x2="1511.17" y2="3387.21" gradientUnits="userSpaceOnUse"><stop offset="0" stop-color="#40447e"/><stop offset="1" stop-color="#3c3b6b"/></linearGradient><linearGradient id="linear-gradient-4" x1="1379.11" y1="2362.45" x2="1160.74" y2="2454.17" xlink:href="#linear-gradient-3"/><linearGradient id="linear-gradient-5" x1="455.56" y1="2415.32" x2="2445.57" y2="2415.32" xlink:href="#linear-gradient-3"/><linearGradient id="linear-gradient-6" x1="455.56" y1="3205.76" x2="3453.43" y2="3205.76" xlink:href="#linear-gradient-3"/><linearGradient id="linear-gradient-7" x1="749.55" y1="3180.98" x2="2946.07" y2="3180.98" xlink:href="#linear-gradient-3"/><linearGradient id="linear-gradient-8" x1="2274.59" y1="698.59" x2="496.95" y2="4253.85" gradientUnits="userSpaceOnUse"><stop offset="0" stop-color="#aa80f9"/><stop offset="1" stop-color="#6165d7"/></linearGradient><linearGradient id="linear-gradient-9" x1="1505.76" y1="587.56" x2="1814.63" y2="1823.05" xlink:href="#linear-gradient-8"/><linearGradient id="linear-gradient-10" x1="1009.02" y1="2203.01" x2="1009.02" y2="1819.62" xlink:href="#linear-gradient-8"/><linearGradient id="linear-gradient-11" x1="1014.63" y1="2507.67" x2="1014.63" y2="2124.28" xlink:href="#linear-gradient-8"/><linearGradient id="linear-gradient-12" x1="2344.39" y1="1169.9" x2="1908.41" y2="1309.82" gradientUnits="userSpaceOnUse"><stop offset="0" stop-color="#fcb148"/><stop offset="0.05" stop-color="#fdba46"/><stop offset="0.14" stop-color="#ffc244"/><stop offset="0.32" stop-color="#ffc444"/><stop offset="0.48" stop-color="#fdb946"/><stop offset="0.78" stop-color="#f99c4d"/><stop offset="0.87" stop-color="#f8924f"/><stop offset="1" stop-color="#f8924f"/></linearGradient><linearGradient id="linear-gradient-13" x1="2697.07" y1="735.93" x2="2307.85" y2="1594.62" gradientUnits="userSpaceOnUse"><stop offset="0" stop-color="#ffdb44"/><stop offset="1" stop-color="#feef06"/></linearGradient><linearGradient id="linear-gradient-14" x1="2625.48" y1="1642.61" x2="2550.38" y2="1232.34" xlink:href="#linear-gradient-12"/><linearGradient id="linear-gradient-15" x1="2466.25" y1="978.54" x2="2775.75" y2="1635.55" xlink:href="#linear-gradient-12"/><linearGradient id="linear-gradient-16" x1="2453.92" y1="837.16" x2="2609.55" y2="1420.42" xlink:href="#linear-gradient-13"/><linearGradient id="linear-gradient-17" x1="2375.19" y1="1021.06" x2="2684.07" y2="1676.74" xlink:href="#linear-gradient-12"/><linearGradient id="linear-gradient-18" x1="2074.48" y1="1232.8" x2="2589.63" y2="526.78" gradientUnits="userSpaceOnUse"><stop offset="0" stop-color="#311944"/><stop offset="1" stop-color="#893976"/></linearGradient><linearGradient id="linear-gradient-19" x1="2490.3" y1="885.71" x2="2676.59" y2="630.41" xlink:href="#linear-gradient-18"/><linearGradient id="linear-gradient-20" x1="2337.49" y1="1626.35" x2="2487.02" y2="1778.56" gradientUnits="userSpaceOnUse"><stop offset="0" stop-color="#ffc444"/><stop offset="1" stop-color="#f36f56"/></linearGradient><linearGradient id="linear-gradient-21" x1="2708.14" y1="3072.12" x2="2706.88" y2="2734.46" xlink:href="#linear-gradient-8"/><linearGradient id="linear-gradient-22" x1="-368.45" y1="3154.73" x2="-366.36" y2="2979.52" gradientTransform="translate(3360.93 65.44) rotate(4.58)" xlink:href="#linear-gradient-20"/><linearGradient id="linear-gradient-23" x1="2907.22" y1="3071.38" x2="2905.96" y2="2733.72" xlink:href="#linear-gradient-8"/><linearGradient id="linear-gradient-24" x1="-165.85" y1="3157.14" x2="-163.77" y2="2981.93" gradientTransform="translate(3360.93 65.44) rotate(4.58)" xlink:href="#linear-gradient-20"/><linearGradient id="linear-gradient-25" x1="2747.7" y1="2301.47" x2="2871.47" y2="2934.22" xlink:href="#linear-gradient-18"/><linearGradient id="linear-gradient-26" x1="-469.46" y1="2591.24" x2="-282.92" y2="2591.24" gradientTransform="translate(3360.93 65.44) rotate(4.58)" xlink:href="#linear-gradient-18"/><linearGradient id="linear-gradient-27" x1="-364.14" y1="2617.89" x2="-80.95" y2="2617.89" gradientTransform="translate(3360.93 65.44) rotate(4.58)" xlink:href="#linear-gradient-18"/><linearGradient id="linear-gradient-28" x1="2565.81" y1="1714.15" x2="2774.66" y2="3055.41" xlink:href="#linear-gradient-20"/><linearGradient id="linear-gradient-29" x1="-100.45" y1="3139.01" x2="108.39" y2="4480.27" gradientTransform="translate(3360.93 65.44) rotate(4.58)" xlink:href="#linear-gradient-20"/><linearGradient id="linear-gradient-30" x1="204.99" y1="2651.5" x2="-427.02" y2="1744.15" gradientTransform="translate(3360.93 65.44) rotate(4.58)" xlink:href="#linear-gradient-20"/><linearGradient id="linear-gradient-31" x1="3155.79" y1="2064.56" x2="3038.21" y2="2223.4" xlink:href="#linear-gradient-20"/><linearGradient id="linear-gradient-32" x1="144.08" y1="3100.94" x2="352.93" y2="4442.19" gradientTransform="translate(3360.93 65.44) rotate(4.58)" xlink:href="#linear-gradient-20"/><linearGradient id="linear-gradient-33" x1="-2355.58" y1="3235.84" x2="-2355.58" y2="3055.16" gradientTransform="matrix(0.78, 0.63, -0.63, 0.78, 6685.31, 622.2)" xlink:href="#linear-gradient-20"/><linearGradient id="linear-gradient-34" x1="-327.55" y1="1582.84" x2="-403.12" y2="1390.9" gradientTransform="translate(3360.93 65.44) rotate(4.58)" gradientUnits="userSpaceOnUse"><stop offset="0" stop-color="#444b8c"/><stop offset="1" stop-color="#3e4177"/></linearGradient><linearGradient id="linear-gradient-35" x1="-2483.29" y1="3183.77" x2="-2398.82" y2="3019.52" gradientTransform="matrix(0.78, 0.63, -0.63, 0.78, 6685.31, 622.2)" xlink:href="#linear-gradient-20"/><linearGradient id="linear-gradient-36" x1="1898.73" y1="1660.73" x2="1589.62" y2="1759.93" xlink:href="#linear-gradient-12"/><linearGradient id="linear-gradient-37" x1="2148.77" y1="1353.05" x2="1872.82" y2="1961.84" xlink:href="#linear-gradient-13"/><linearGradient id="linear-gradient-38" x1="2098.01" y1="1995.87" x2="2044.77" y2="1704.99" xlink:href="#linear-gradient-12"/><linearGradient id="linear-gradient-39" x1="1985.12" y1="1525.06" x2="2204.55" y2="1990.86" xlink:href="#linear-gradient-12"/><linearGradient id="linear-gradient-40" x1="1976.38" y1="1424.82" x2="2086.72" y2="1838.34" xlink:href="#linear-gradient-13"/><linearGradient id="linear-gradient-41" x1="1920.57" y1="1555.2" x2="2139.55" y2="2020.07" xlink:href="#linear-gradient-12"/></defs><title>PAGO</title><g class="cls-3"><g id="Illustration"><path class="cls-4" d="M3380.49,1619.48c-60.74-397.57-109.51-672.34-328.85-822.9-370-254-783.15,158.32-1307.23-118.32-258-136.21-267.71-294.13-486.25-315.09-386.64-37.09-703.27,424.32-730.71,463.9C360.72,1067.49,305,1360.65,372.62,1640.15c43.9,181.53,73.56,369.41,65.42,555.95-14.17,324.66-6,627.69,309.05,821.31,281.32,172.87,635.37,325.34,973.13,352.05,229.54,18.15,487-11.22,708.19-71C3555.87,2993.91,3464,2166.13,3380.49,1619.48Z"/><g class="cls-5"><path id="SVGID-3" data-name="SVGID" class="cls-1" d="M1926.86,2783.79c25.26,1.45,81.48-17.67,94.08-28.7,83.86-73.37,249.79-200.55,264.7-317.4,2.55-20-82.22-54.85-91.17-75.29-48.64-35.37-67.71-44.63-97.44-101-87.75-166.33,225.5-388.82-61.58-541.67-210.28-112-413.47-70.47-324.24-412.81s-67-1026.1-478.76-853c-236.3,99.35-78.36,434.42-227.4,631.66-141.64,187.43-86,374.1,110.33,539.46s61,238.69-39.71,423.16c-121,221.6,234.16,331.65,402.47,368.47C1613.68,2446.36,1938.81,2613.31,1926.86,2783.79Z"/><g class="cls-6"><path class="cls-7" d="M2148.34,2605.77l3.2-4.31C1486.55,2107.12,1186.91,1271.81,1350,367l-5.29-.95c-77.3,428.81-49.1,858.36,81.56,1242.2C1563.63,2011.79,1813.32,2356.73,2148.34,2605.77Z"/><path class="cls-7" d="M1014.8,2134.57c224.69-29.65,579,35,789.88,144.1l2.47-4.78c-211.68-109.54-567.44-174.43-793.05-144.65Z"/><path class="cls-7" d="M2018.91,2507.24l4.28-3.26c-74.76-98.19-97-230.4-66.12-392.95,22.64-119.2,72.79-251.63,149.06-393.62l-4.74-2.55c-76.53,142.48-126.86,275.43-149.61,395.16C1920.6,2274.14,1943.18,2407.78,2018.91,2507.24Z"/><path class="cls-7" d="M1409.85,1553.05l4.44-3c-131.39-192.32-360-280.14-528.72-319.94l-1.24,5.24C1052.09,1274.89,1279.43,1362.15,1409.85,1553.05Z"/><path class="cls-7" d="M1308.42,1029.59l5.34.61c29.7-260.71,220.3-459.55,331.26-554.87l-3.5-4.08C1530,567.08,1338.32,767.05,1308.42,1029.59Z"/></g></g><g class="cls-5"><path id="SVGID-4" data-name="SVGID" class="cls-2" d="M1915.69,2928.86c24-8,69.17-46.54,76.8-61.45,50.79-99.18,157.94-278.69,128.6-392.77-5-19.49-96.68-20.58-112.55-36.26-58.28-14.87-79.41-16.42-127.86-57.78-143-122.11,65.76-444.64-257.49-480.53-236.78-26.28-410.22,87.4-453.89-263.67S727.65,707.78,409.09,1020.86c-182.82,179.67,87.81,432.61,22.25,671-62.3,226.52,58.43,379.39,302,460.45s145,199.2,119.57,407.86c-30.53,250.64,340.18,221.57,510.18,193.55C1500,2731.13,1863.76,2766,1915.69,2928.86Z"/><g class="cls-8"><path class="cls-7" d="M2055.65,2681.57l1.39-5.2C1256.4,2462.93,669.16,1797.59,486.17,896.59l-5.27,1.07c86.72,427,271.74,815.69,535.05,1124C1292.78,2345.86,1652.3,2574,2055.65,2681.57Z"/><path class="cls-7" d="M828.23,2662.85c197.8-110.62,550.93-181.57,787.18-158.15l.53-5.35c-237.18-23.52-591.72,47.73-790.34,158.81Z"/><path class="cls-7" d="M1899,2637.87l2.77-4.61C1796,2569.67,1726.42,2455.05,1695,2292.6c-23-119.12-25.4-260.71-7-420.84l-5.35-.61c-18.42,160.67-16,302.81,7.1,422.47C1721.44,2457.63,1791.84,2573.46,1899,2637.87Z"/><path class="cls-7" d="M980.28,1976.48l3-4.47C790.1,1841.9,545.18,1844.84,373.74,1870.22l.78,5.33C545,1850.3,788.52,1847.32,980.28,1976.48Z"/><path class="cls-7" d="M692.5,1527.62l5.19-1.42c-68.8-253.22,34.78-508.43,102.64-638l-4.76-2.49C727.34,1016,623.22,1272.62,692.5,1527.62Z"/></g></g><path class="cls-9" d="M3453.43,3183.28,455.56,3156.93v78c0,21.16,13.07,39.15,30.78,42.36l847.71,153.52a115.3,115.3,0,0,0,30.41,1.44l2056.39-175c18.36-1.56,32.58-19.61,32.58-41.35Z"/><path class="cls-10" d="M2365.51,3056.9l-1879,142.63c-33.62,2.55-61-24.57-61-60.58V1696.16c0-36,27.34-65.21,61-65.21h1879c27.7,0,50.1,26.4,50.1,59V2994.15C2415.61,3026.71,2393.21,3054.8,2365.51,3056.9Z"/><path class="cls-11" d="M2395.47,3056.9,516.52,3199.53c-33.63,2.55-61-24.57-61-60.58V1696.16c0-36,27.33-65.21,61-65.21h1879c27.7,0,50.1,26.4,50.1,59V2994.15C2445.57,3026.71,2423.17,3054.8,2395.47,3056.9Z"/><path class="cls-12" d="M2336.94,2965l-1750,123.89c-27.36,1.93-49.6-20.32-49.6-49.72V1776c0-29.4,22.24-53.34,49.6-53.46l1750.05-7.78c22.85-.1,41.33,21.53,41.33,48.3V2913.54C2378.27,2940.31,2359.79,2963.33,2336.94,2965Z"/><path class="cls-13" d="M1522.35,1670.42c0,13.4-9.67,24.3-21.61,24.34s-21.66-10.82-21.66-24.25,9.7-24.34,21.66-24.35S1522.35,1657,1522.35,1670.42Z"/><path class="cls-14" d="M1942.77,2661.19c-144.85-83.71-258.75,22.36-368.66-82.29-66.64-63.46-33.93-110.77-115.93-205.59-90.81-105-149.94-69.72-241.21-164.24-115.41-119.51-57.69-212.5-157.1-298.3-120.6-104.1-250.65-7.75-365.45-107.58-49.52-43.06-76.68-105.66-90.87-172.24H491.23c-19.69,0-35.67,17.14-35.67,38.28V3164.8c0,21.14,16,37.06,35.67,35.56l1915-146c9.4-.71,17.73-6.61,23.08-15.15-140.18-5.49-226.3-56-281.35-108.15C2040.22,2829,2058.9,2728.31,1942.77,2661.19Z"/><path class="cls-15" d="M2470.36,3050.43,455.56,3200.56l878.49,159.1a115.73,115.73,0,0,0,30.41,1.44l2089-177.82-951-131.83A152,152,0,0,0,2470.36,3050.43Z"/><polygon class="cls-16" points="749.55 3204.33 2426.93 3077.49 2946.07 3148.87 1283.13 3284.47 749.55 3204.33"/><path class="cls-17" d="M2489.58,1115.43l-1640.25-53.9c-55-1.81-99.78,41.58-99.78,96.92V2757.12c0,55.34,44.78,98.29,99.78,95.94l1640.25-70c47.45-2,85.76-45.08,85.76-96.18V1210.76C2575.34,1159.67,2537,1117,2489.58,1115.43Z"/><path class="cls-18" d="M849.33,2821.2c-37.41,1.55-67.83-27.69-67.83-65.31V1159.37a65.48,65.48,0,0,1,67.83-66l1640.25,51.7c32.32,1,58.45,30.07,58.45,64.89V2687.89c0,34.83-26.13,64.14-58.45,65.47Z"/><path class="cls-19" d="M2489.58,1115.43l-1640.25-53.9c-55-1.81-99.78,41.58-99.78,96.92v71.88l1825.79,46.8v-66.37C2575.34,1159.67,2537,1117,2489.58,1115.43Z"/><path class="cls-13" d="M927,1153.9a31.38,31.38,0,0,1-32.35,31.65A33.65,33.65,0,0,1,862.17,1152a31.38,31.38,0,0,1,32.44-31.66A33.67,33.67,0,0,1,927,1153.9Z"/><path class="cls-13" d="M1039.88,1157.18a31.16,31.16,0,0,1-32,31.51c-17.73-.49-32.13-15.44-32.13-33.37a31.16,31.16,0,0,1,32.13-31.51C1025.55,1124.35,1039.88,1139.29,1039.88,1157.18Z"/><path class="cls-13" d="M1151.74,1160.43c0,17.81-14.2,31.85-31.74,31.36s-31.83-15.35-31.83-33.21,14.26-31.89,31.83-31.36S1151.74,1142.62,1151.74,1160.43Z"/><g class="cls-20"><path class="cls-13" d="M1852,1730c-191.58-278.77-523.18-190.08-733-498.09-37.83-55.54-63.5-112.06-81.1-164.19l-188.62-6.2c-55-1.81-99.78,41.58-99.78,96.92V2757.12c0,55.34,44.78,98.29,99.78,95.94l1580.18-67.48c-36.2-52.2-351.49-245.58-432.93-542.49C1922.09,1971.56,1967.59,1898.19,1852,1730Z"/></g><polygon class="cls-13" points="2486.19 1704.26 871.88 1702.33 871.88 1649.57 2486.19 1656.11 2486.19 1704.26"/><polygon class="cls-13" points="2486.19 1592 871.88 1578.28 871.88 1443.02 2486.19 1468.57 2486.19 1592"/><path class="cls-13" d="M1121.7,1989.5l-214.13,1.27V1786.2l214.13.26Zm-189.15-26.76,157-.76V1814.16l-157-.06Z"/><polygon class="cls-13" points="2450.84 1841.04 1210.91 1841.76 1210.91 1786.56 2450.84 1787.86 2450.84 1841.04"/><polygon class="cls-13" points="2450.84 1926.72 1210.91 1930.7 1210.91 1878.56 2450.84 1876.49 2450.84 1926.72"/><path class="cls-13" d="M1121.7,2291l-214.13,3.52V2090l214.13-2Zm-189.15-24.78,157-2.44V2116l-157,1.62Z"/><polygon class="cls-13" points="2450.84 2130.56 1210.91 2142.31 1210.91 2087.11 2450.84 2077.39 2450.84 2130.56"/><polygon class="cls-13" points="2450.84 2216.24 1210.91 2231.24 1210.91 2179.11 2450.84 2166.01 2450.84 2216.24"/><path class="cls-13" d="M1121.7,2592.48l-214.13,5.78V2393.69l214.13-4.25Zm-189.15-19.7,157-4.13v-150.9l-157,3.3Z"/><polygon class="cls-13" points="2450.84 2420.08 1210.91 2442.85 1210.91 2387.65 2450.84 2366.91 2450.84 2420.08"/><polygon class="cls-13" points="2450.84 2505.76 1210.91 2531.79 1210.91 2479.66 2450.84 2455.53 2450.84 2505.76"/><path class="cls-21" d="M982,1980a23.57,23.57,0,0,1-16.32-6.35l-64.32-60.85a21.27,21.27,0,0,1,0-31.17,24.06,24.06,0,0,1,32.79-.07l44.64,42.34,103.06-141.84c7.21-9.92,21.45-12.35,31.82-5.44a21.3,21.3,0,0,1,5.74,30.43l-118.47,163.39a23.45,23.45,0,0,1-16.88,9.45C983.37,1980,982.69,1980,982,1980Z"/><path class="cls-22" d="M987.61,2284.69a23.51,23.51,0,0,1-16.32-6.34L907,2217.5a21.27,21.27,0,0,1,0-31.17,24.05,24.05,0,0,1,32.79-.08l44.64,42.35,103.06-141.84c7.21-9.92,21.45-12.35,31.82-5.45a21.3,21.3,0,0,1,5.74,30.43l-118.47,163.4a23.45,23.45,0,0,1-16.88,9.45A20.29,20.29,0,0,1,987.61,2284.69Z"/><path class="cls-23" d="M2846.3,1154.08c0,202.26-158.16,361.37-360.29,355.16-210.37-6.46-387.29-188.14-387.29-405.56S2275.64,728.44,2486,750.35C2688.14,771.4,2846.3,951.83,2846.3,1154.08Z"/><path class="cls-24" d="M2900.92,1136.64c0,202.26-158.15,361.37-360.29,355.16-210.37-6.46-387.29-188.14-387.29-405.55S2330.26,711,2540.63,732.91C2742.77,754,2900.92,934.39,2900.92,1136.64Z"/><path class="cls-25" d="M2885.05,1135.58c0,193.35-151.32,345.19-344.42,338.94-200.6-6.5-369-179.89-369-387s168.42-357.84,369-337.29C2733.73,770,2885.05,942.22,2885.05,1135.58Z"/><path class="cls-26" d="M2873.69,1134.81c0,187-146.42,333.63-333.06,327.36-193.63-6.5-356-174-356-373.82s162.38-345.42,356-325.81C2727.27,781.44,2873.69,947.84,2873.69,1134.81Z"/><path class="cls-27" d="M2538.72,826.15h0c9.93.94,18,9.88,18,20v34.42a506.81,506.81,0,0,1,59.66,10.35q22,5.19,43.76,12.33a20.13,20.13,0,0,1,13.71,20.66L2669.59,967a16.18,16.18,0,0,1-23.1,13.43,249.22,249.22,0,0,0-29.36-10.94,266.3,266.3,0,0,0-55.37-10.34l-5.07-.42v98.59c51.81,14.49,89.86,34,114.45,58.52s36.66,54.83,36.66,91.35q0,59.25-40.55,95-40.82,36-114.69,40.39v38a17.29,17.29,0,0,1-18,17.56h-.32a19.11,19.11,0,0,1-18.05-19.06v-37.48l-8-.36a525.83,525.83,0,0,1-66.45-7.08,434.76,434.76,0,0,1-45.92-10.56c-9-2.61-15.23-11.22-14.4-20.46l5-55.49c1.08-12,13.13-19,24.54-14.48a358,358,0,0,0,40.38,13.26,354.32,354.32,0,0,0,64.56,10.79l.32-109.67q-74.6-18.46-111.42-54.68-36.87-36.37-36.91-93,0-58.59,40-90.37,39.76-31.58,112.8-31.5V842.76C2520.68,832.64,2528.76,825.2,2538.72,826.15Zm-18,131.6q-23.05,1.68-35.93,12.67T2471.86,1000q0,17.6,11.92,29.41t36.9,18.83Zm31.88,198.58V1256.9q25.07,0,38.46-12t13.39-33.85q0-20-12.44-33.1T2552.56,1156.33Z"/><path class="cls-28" d="M2480.36,1180.6c11.25-111.15,113.39-158.2,100.06-260.43-8.21-63-56-116.11-109.25-157.57-161.59,16.94-286.55,150.75-286.55,325.75,0,199.86,162.38,367.32,356,373.82a336.12,336.12,0,0,0,55-2.69C2518.74,1383,2470.69,1276.08,2480.36,1180.6Z"/><path class="cls-29" d="M2829,904v1.58c-13.82-18.87-38.57-45.08-53.39-60.25-.27-.67-.74-1.35-1-2a356,356,0,0,0-34-62.73,346.27,346.27,0,0,0-54.28-62.13c-2.57-2.53-5.54-4.76-8.28-7.14-1.4-1.17-2.82-2.37-4.24-3.54L2671.7,706c-.73-.6-1.48-1.13-2.21-1.7q-4.41-3.35-8.84-6.75l-2.21-1.7-2.33-1.58c-1.54-1.06-3.08-2.13-4.62-3.17-6.08-4.4-12.63-8.21-19-12.24-3.26-2-6.68-3.75-10-5.6-1.64-.93-3.32-1.88-5-2.79l-5.15-2.56a322.46,322.46,0,0,0-87.92-29.35l-11.53-1.89c-3.85-.54-7.76-.87-11.58-1.33l-5.81-.65-5.82-.31-5.82-.36c-1.93-.1-3.85-.29-5.8-.25l-11.63-.08c-.94,0-2-.06-2.86,0l-2.58.14-5.17.27-5.14.26c-.45,0-.76,0-1.36.06l-5.27.39-7,.5-5.27.39-.89.06-.31,0s-1.84,0,1.24.06l-11.39,1.68c-1.87.29-3.77.47-5.64.88l-5.59,1.13-5.58,1.1-2.79.56c-.92.17-1.83.45-2.74.67-3.65.92-7.3,1.83-10.93,2.78-1.84.4-3.61,1-5.39,1.56l-5.33,1.68-5.33,1.6-5.21,1.91c-3.47,1.3-6.94,2.45-10.32,3.83s-6.73,2.84-10.06,4.28A289.11,289.11,0,0,0,2274.77,704l-3.83,3.2-3.63,3.41c-2.41,2.25-4.9,4.41-7.19,6.71-.1.08-.17.2-.27.28-4.46,4.62-9,9-13,13.74-1.06,1.16-2.11,2.35-3.14,3.53l-1.58,1.74-1.46,1.85c-1.95,2.41-3.88,4.84-5.82,7.22-.47.6-1,1.17-1.46,1.78l-1.32,1.86c-.91,1.24-1.8,2.48-2.68,3.69-1.74,2.48-3.64,4.77-5.19,7.34a274.34,274.34,0,0,0-30.06,58.29,266.53,266.53,0,0,0-13.32,52c-.26,1.95-.52,3.86-.77,5.76s-.59,3.71-.67,5.54c-.3,3.68-.6,7.17-.89,10.5s-.2,6.65-.34,9.71c-.06,1.54-.15,3-.17,4.48s.09,2.92.11,4.31q.06,4.17.12,7.85a9.63,9.63,0,0,0,.14,1.52c.06.45.12.91.18,1.34.08.87.2.75.27,1.54s.14,1,.2,1h129.92L2230,1011.65l-183.52,200.71L1784,924.13h138c.2,0,.42-2.37.63-4.23.54-4,1.11-7.91,1.74-12.67.36-2.36.67-4.57,1.05-7.12l.57-3.73c.18-1.28.35-2.66.61-3.79,1-4.77,2-9.81,3-15.17.57-2.67,1.12-5.39,1.72-8.2s1.38-5.64,2.13-8.56c1.5-5.82,3-11.94,4.77-18.24s4-12.74,6-19.49c1-3.4,2.33-6.73,3.56-10.19l3.82-10.44a498.52,498.52,0,0,1,44.9-89.53,491.87,491.87,0,0,1,73.73-90c3.57-3.65,7.52-7,11.33-10.48,1.93-1.71,3.85-3.45,5.78-5.19l2.94-2.6,3-2.49c4-3.29,8.13-6.63,12.2-10l3.08-2.49,3.19-2.37,6.44-4.76c8.42-6.45,17.48-12.27,26.48-18.27,4.54-2.92,9.24-5.64,13.92-8.47,2.3-1.38,4.65-2.76,7-4.18l7.22-3.91a467.3,467.3,0,0,1,124.89-46.55l16.58-3.28c5.52-1,11.15-1.74,16.71-2.58l8.37-1.19,8.43-.83,8.4-.81c2.81-.25,5.59-.57,8.41-.67,5.6-.25,11.23-.93,16.85-1.18,1.38-.06,2.81-.59,4.21-.59h4.22l8.39.47,8.39.28c2.8,0,5.6.37,8.38.51l16.68,1c3.79,0,1.3.09,2.27.11l.43.06.89.1,1.74.24,3.51.43,7,.87,3.51.44,1.74.21,2.15.3,8.84,1.3,8.84,1.34,4.38.69c1.44.24,2.72.56,4.11.83,5.38,1.15,10.77,2.31,16.16,3.44,2.68.53,5.33,1.3,8,2l8,2.11,7.89,2.11,7.79,2.47c5.18,1.68,10.37,3.26,15.44,5.07l15.13,5.69a433.22,433.22,0,0,1,107.68,61.69c2,1.52,3.93,3.06,5.88,4.58s3.79,3.17,5.66,4.79c3.75,3.2,7.52,6.28,11.13,9.55,7.13,6.69,14.23,13.11,20.73,20.05,1.65,1.7,3.27,3.42,4.93,5.1l2.43,2.52,2.33,2.63q4.64,5.26,9.17,10.46l2.27,2.6,2.17,2.69c1.4,1.79,2.85,3.57,4.25,5.34,2.8,3.58,5.74,7,8.27,10.66a436.06,436.06,0,0,1,36.45,58.2c4.89,9.37,9.25,18.71,13.1,27.92a411.37,411.37,0,0,1,24.35,78.79c.54,3,1.11,5.94,1.64,8.84s1.13,5.7,1.46,8.52c.75,5.63,1.5,11,2.19,16.21s.91,10.22,1.34,15c.18,2.36.42,4.67.56,7s.55,4.46.65,6.63C2828.28,896.05,2829,900.17,2829,904Z"/><path class="cls-30" d="M2829,904v1.58c-13.82-18.87-38.57-45.08-53.39-60.25-.27-.67-.74-1.35-1-2a356,356,0,0,0-34-62.73,346.27,346.27,0,0,0-54.28-62.13c-2.57-2.53-5.54-4.76-8.28-7.14-1.4-1.17-2.82-2.37-4.24-3.54L2671.7,706c-.73-.6-1.48-1.13-2.21-1.7q-4.41-3.35-8.84-6.75l-2.21-1.7-2.33-1.58c-1.54-1.06-3.08-2.13-4.62-3.17-6.08-4.4-12.63-8.21-19-12.24-3.26-2-6.68-3.75-10-5.6-1.64-.93-3.32-1.88-5-2.79l-5.15-2.56a322.46,322.46,0,0,0-87.92-29.35l-11.53-1.89c-3.85-.54-7.76-.87-11.58-1.33l-5.81-.65-5.82-.31-5.82-.36c-1.93-.1-3.85-.29-5.8-.25l-11.63-.08c-.94,0-2-.06-2.86,0l-2.58.14-5.17.27-5.14.26c-.45,0-.76,0-1.36.06l-5.27.39-7,.5-5.27.39-.89.06-.31,0s-1.84,0,1.24.06l-11.39,1.68c-1.87.29-3.77.47-5.64.88l-5.59,1.13-5.58,1.1-2.79.56c-.92.17-1.83.45-2.74.67-3.65.92-7.3,1.83-10.93,2.78-1.84.4-3.61,1-5.39,1.56l-5.33,1.68-5.33,1.6-5.21,1.91c-3.47,1.3-6.94,2.45-10.32,3.83s-6.73,2.84-10.06,4.28A289.11,289.11,0,0,0,2274.77,704l-3.83,3.2-3.63,3.41c-2.41,2.25-4.9,4.41-7.19,6.71-.1.08-.17.2-.27.28,58.31-72.21,152.79-119.12,259.39-119.12,109.24,0,205.72,49.24,263.63,124.45,4.89,9.37,9.25,18.71,13.1,27.92a411.37,411.37,0,0,1,24.35,78.79c.54,3,1.11,5.94,1.64,8.84s1.13,5.7,1.46,8.52c.75,5.63,1.5,11,2.19,16.21s.91,10.22,1.34,15c.18,2.36.42,4.67.56,7s.55,4.46.65,6.63C2828.28,896.05,2829,900.17,2829,904Z"/><path class="cls-31" d="M2398.18,1697.92s8.72-32.69,2.54-41.05-43.95-41.78-40.32-30.88a70,70,0,0,0,9.08,18.16s-20.34,9.45-7.26,23.62,17.44,17.44,18.16,30.15S2389.46,1715,2398.18,1697.92Z"/><path class="cls-32" d="M2761.1,3109.18s4.61,28.28,4,38.34-112.26,15.21-113.39,7.67,18.46-19.53,32.24-23.76,54.14-15.52,54.14-15.52Z"/><path class="cls-33" d="M2734,3081l3.56,35.16s13,8.57,24.4,2l5.72-38.27Z"/><path class="cls-34" d="M2960.34,3155s4.62,28.28,4,38.34S2852.11,3208.57,2851,3201s18.46-19.53,32.25-23.76,54.13-15.52,54.13-15.52Z"/><path class="cls-35" d="M2933.24,3126.83l3.56,35.16s13,8.57,24.4,2l5.72-38.27Z"/><path class="cls-36" d="M2754.25,2163.1q-19.35,39.26-38.72,78.51C2705.15,2391,2700,2553.35,2703.3,2727c2.47,129.21,9.37,251.61,19.29,366.51l52.51-2.41c25.31-50.23,55.18-126.32,57.93-220.26,2.87-98-26.84-111-25-204.81,2.44-121.59,53.43-154,80.59-300.3,10.39-55.93,17.39-129,9.07-217.63Z"/><path class="cls-37" d="M2897.74,2148.13l-77.49,8.09c-46.5,80.91-59.48,165.13-51.32,202.39,11.54,52.7,42.08,69.59,40.4,122.51-1.66,52.36-32.51,65.93-52.08,127.65-13.55,42.73-10,82-2.26,158.85,15.52,154.76,52.89,202.08,21.59,252.82-8.9,14.42-24.93,31.59-56.33,44.7.77,9.49,1.53,19,2.34,28.4l52.51-2.41c25.31-50.23,55.18-126.32,57.93-220.26,2.87-98-26.84-111-25-204.81,2.44-121.6,53.43-154,80.59-300.3C2899.06,2309.83,2906.06,2236.77,2897.74,2148.13Z"/><path class="cls-38" d="M2823.7,2210.21c24.23,132.14,45.63,273.55,62.33,423.52,20.17,181.09,30.93,351.8,35.16,510.31l57.63,1.63c75.69-149.75,80.32-251.28,69.4-317.38-4.2-25.47-15.62-75.42-18.23-150.06-1.82-52,1.5-91.64,5.65-139.24,9.09-104.37,20.12-127.15,21.7-207,1.49-74.93,1.8-112.84-19.59-135C2981.41,2138.75,2834.82,2205.05,2823.7,2210.21Z"/><path class="cls-39" d="M2408.23,1692.88l-38.32-2.67c-30.14,121.79-8.52,239.93,59.5,283.37,106.27,67.88,303.78-60,346.58-199.26,18.79-61.12,14.51-149.33-23-166.47-10.42-4.76-26.59-5.5-61.63,14.17-104.64,58.75-107.39,169.79-160.59,179.19C2507.08,1805.39,2468.89,1790.31,2408.23,1692.88Z"/><path class="cls-40" d="M2700.83,2268.4c-18.41-30.54,4.71-60,10-117.85,6-65.58-19.3-76.5-44.28-185.17-16.62-72.28-32.57-141.67-13.53-222.89,9.12-38.93,24.6-105,79.24-136.84,28.2-16.45,66.7-14.81,142.54-10.84,93.8,4.91,140.69,7.36,175.67,25.77,5.12,2.7,111.52,60.58,118.84,154.91,7.46,96-97.11,108.93-111.05,237-6.26,57.48,4.9,145.88,12.13,203.22,6.95,55.06,11.74,69.16.87,85.83-26.19,40.17-106.36,28.72-266.7,5.82C2741.63,2298.35,2714.56,2291.19,2700.83,2268.4Z"/><path class="cls-41" d="M2944.79,1991.86c6.78,25,31.16,43.6,48.14,104.3,3.66,13.11,29.77,106.44-4.09,129.41-19.56,13.27-37.12-11.87-84.58-15.15-82.25-5.69-121.43,63.43-175.15,44.56-9.33-3.28-21.63-10.26-33.92-26.31-2.45,14.46-2,27,5.64,39.73,13.73,22.79,40.8,29.95,103.7,38.93,160.34,22.9,240.51,34.35,266.7-5.82,10.87-16.67,6.08-30.77-.87-85.83-7.23-57.34-18.39-145.74-12.13-203.22,13.94-128,118.51-141,111.05-237-2-25.66-11.43-48.52-24.06-68.41C3012.58,1760.75,2923.48,1913.44,2944.79,1991.86Z"/><path class="cls-42" d="M3112.33,2180.73l-26.54,16.95c-4.76-5.5-15.79-16.61-33-20.4-19.41-4.26-41.68,1.86-42.2,8-.42,5,13.15,10,15.24,10.74,16.94,6.25,29.5,1.06,36.35,7.87,2.42,2.4,5.43,6.88,12.37,11a39.32,39.32,0,0,0,4.74,2.45c11.3,4.39,30.69-15.29,32.36-17Z"/><path class="cls-43" d="M3033.93,1832.65c-19.2-46-32.5-116.38-2.18-220.93,199.81,78.73,301.71,265.37,261.92,413.33-32.8,122-152.13,181.38-178.75,193.88q-9.28-21.15-18.58-42.29c30.85-34.36,65.61-85.15,60.69-143.11C3150.22,1953.17,3072.79,1925.74,3033.93,1832.65Z"/><path class="cls-44" d="M2879.68,1500.22s1.58,35,12.43,61.12c9.81,23.66,61.38,38.53,71.83,43.81s-19.58,20.72-49.75,23.75-116.31-3.82-131.84-15.25,12.48-10.58,34-18.48,34-50,30.18-69.13S2879.68,1500.22,2879.68,1500.22Z"/><path class="cls-45" d="M2832,1487.54c-15.65-15.37-17.83-17.17-19.54-22.49-6.84-21.33,9.71-50.55,31.41-57.74,1.13-.38,15.69-5,21.24,1.28,4.72,5.36-2.22,12.77,1.08,23.1,3.09,9.68,11.48,10.41,27,23.09,12.81,10.45,20.76,17,22.6,26.09,3.79,18.84-19,46.15-39.21,45.4C2869.32,1526,2867.34,1522.3,2832,1487.54Z"/><path class="cls-46" d="M2874.6,1529.18s-16.64,18.84-42,12.61c-22.69-5.57-16.9-57.66-.3-66,5.54-2.77,15.61-2.54,23.18,1.11,4.47,2.15,5.72,4.39,13.09,7.77,6.8,3.12,9,2.68,10.79,4.88,2.29,2.74,3.27,8.65-3.9,22.9,5.17-3.65,10.73-4.42,14.14-2a8,8,0,0,1,2.53,3.52C2894.32,1520.44,2887.61,1527,2874.6,1529.18Z"/><path class="cls-47" d="M2254.57,1649.52c0,143.39-112.13,256.2-255.44,251.79-149.14-4.58-274.58-133.38-274.58-287.53s125.44-266,274.58-250.5C2142.44,1378.2,2254.57,1506.12,2254.57,1649.52Z"/><path class="cls-48" d="M2293.29,1637.15c0,143.4-112.12,256.2-255.43,251.8-149.15-4.58-274.58-133.39-274.58-287.53s125.43-266,274.58-250.51C2181.17,1365.83,2293.29,1493.76,2293.29,1637.15Z"/><path class="cls-49" d="M2282.05,1636.39c0,137.08-107.29,244.74-244.19,240.3-142.22-4.6-261.63-127.53-261.63-274.4s119.41-253.69,261.63-239.12C2174.76,1377.19,2282.05,1499.31,2282.05,1636.39Z"/><path class="cls-50" d="M2274,1635.85c0,132.56-103.81,236.53-236.13,232.09-137.28-4.61-252.4-123.34-252.4-265s115.12-244.89,252.4-231C2170.18,1385.32,2274,1503.29,2274,1635.85Z"/><path class="cls-51" d="M2036.5,1417h0a14.43,14.43,0,0,1,12.74,14.16v24.4a358.05,358.05,0,0,1,42.3,7.34q15.61,3.67,31,8.74a14.25,14.25,0,0,1,9.72,14.64l-3,30.61a11.47,11.47,0,0,1-16.38,9.52,176.23,176.23,0,0,0-20.81-7.76,188.68,188.68,0,0,0-39.26-7.33l-3.6-.3v69.9q55.1,15.4,81.14,41.49t26,64.77q0,42-28.75,67.33-28.93,25.5-81.32,28.63v26.94a12.26,12.26,0,0,1-12.75,12.45h-.22a13.55,13.55,0,0,1-12.8-13.51v-26.57l-5.68-.26a372.92,372.92,0,0,1-47.1-5,307.65,307.65,0,0,1-32.56-7.49,14,14,0,0,1-10.21-14.5l3.52-39.35c.77-8.5,9.31-13.45,17.4-10.26a255.33,255.33,0,0,0,28.63,9.4,250.75,250.75,0,0,0,45.77,7.65l.23-77.75c-35.26-8.73-61.66-21.65-79-38.77s-26.17-39.2-26.17-66q0-41.54,28.37-64.07c18.79-14.93,45.51-22.35,80-22.34v-25A11.52,11.52,0,0,1,2036.5,1417Zm-12.78,93.3q-16.35,1.18-25.48,9t-9.14,21a28.17,28.17,0,0,0,8.45,20.85q8.45,8.36,26.17,13.35Zm22.59,140.79v71.3q17.78,0,27.27-8.48t9.5-24q0-14.15-8.82-23.47T2046.31,1651.11Z"/><path class="cls-52" d="M1995.12,1668.31c8-78.8,80.4-112.15,71-184.63-5.82-44.68-39.68-82.33-77.46-111.72-114.56,12-203.15,106.88-203.15,231,0,141.7,115.12,260.42,252.4,265a237.89,237.89,0,0,0,39-1.9C2022.34,1811.79,1988.27,1736,1995.12,1668.31Z"/></g></g></svg>