<svg xmlns="http://www.w3.org/2000/svg" xmlns:xlink="http://www.w3.org/1999/xlink" viewBox="0 0 3710 3710"><defs><style>.cls-1{isolation:isolate;}.cls-2{fill:#f4f7fa;}.cls-3{fill:url(#linear-gradient);}.cls-4{fill:url(#linear-gradient-2);}.cls-5{fill:url(#linear-gradient-3);}.cls-6{fill:url(#linear-gradient-4);}.cls-7{fill:url(#linear-gradient-5);}.cls-12,.cls-8{fill:#fff;}.cls-9{fill:url(#linear-gradient-6);}.cls-10{fill:url(#linear-gradient-7);}.cls-11,.cls-12{opacity:0.68;}.cls-13{fill:url(#linear-gradient-8);}.cls-14{fill:url(#linear-gradient-9);}.cls-15{opacity:0.3;mix-blend-mode:multiply;fill:url(#linear-gradient-10);}.cls-16{fill:url(#linear-gradient-11);}.cls-17{fill:url(#linear-gradient-12);}</style><linearGradient id="linear-gradient" x1="586.36" y1="1817.31" x2="1117.3" y2="1761.84" gradientUnits="userSpaceOnUse"><stop offset="0" stop-color="#26264f"/><stop offset="1" stop-color="#444b8c"/></linearGradient><linearGradient id="linear-gradient-2" x1="1718.17" y1="3439.37" x2="1830.66" y2="3278.24" gradientUnits="userSpaceOnUse"><stop offset="0" stop-color="#444b8c"/><stop offset="1" stop-color="#26264f"/></linearGradient><linearGradient id="linear-gradient-3" x1="2058.7" y1="3398.07" x2="1886.53" y2="2463.46" xlink:href="#linear-gradient-2"/><linearGradient id="linear-gradient-4" x1="2483.4" y1="818.02" x2="3344.97" y2="-411.64" xlink:href="#linear-gradient-2"/><linearGradient id="linear-gradient-5" x1="2109.2" y1="964.02" x2="1031.49" y2="4386.96" xlink:href="#linear-gradient-2"/><linearGradient id="linear-gradient-6" x1="2167.62" y1="1173.55" x2="1157.29" y2="3256.83" gradientUnits="userSpaceOnUse"><stop offset="0" stop-color="#e38ddd"/><stop offset="1" stop-color="#9571f6"/></linearGradient><linearGradient id="linear-gradient-7" x1="1900.82" y1="925.87" x2="1841.2" y2="1419.36" gradientUnits="userSpaceOnUse"><stop offset="0" stop-color="#ff9085"/><stop offset="1" stop-color="#fb6fbb"/></linearGradient><linearGradient id="linear-gradient-8" x1="433.84" y1="2657.89" x2="1501.45" y2="2657.89" gradientUnits="userSpaceOnUse"><stop offset="0" stop-color="#ffc444"/><stop offset="1" stop-color="#f36f56"/></linearGradient><linearGradient id="linear-gradient-9" x1="1185.27" y1="1785.27" x2="2542.15" y2="1785.27" xlink:href="#linear-gradient-8"/><linearGradient id="linear-gradient-10" x1="433.84" y1="2657.89" x2="1501.45" y2="2657.89" xlink:href="#linear-gradient-8"/><linearGradient id="linear-gradient-11" x1="5156.51" y1="700.33" x2="4475.08" y2="-62.64" gradientTransform="translate(-2734.05 1286.85) rotate(4.6)" xlink:href="#linear-gradient-8"/><linearGradient id="linear-gradient-12" x1="1260.86" y1="1804.64" x2="2540.78" y2="1804.64" xlink:href="#linear-gradient-8"/></defs><title>REPORTES</title><g class="cls-1"><g id="Illustration"><path class="cls-2" d="M1542.05,273.32s-1139,47.93-1203.58,1017.93S-25,3184.15,702,3239.24s2431.39,162.1,2673.73-415.78S3739.19,69.83,1542.05,273.32Z"/><path class="cls-3" d="M367.58,2921.16c-63.43,3.71-115.28-40.63-115.28-98.85V723.86c0-58.22,51.85-103.71,115.28-101.41l2994,108.65c48.51,1.76,87.81,44.34,87.81,94.93V2649.36c0,50.59-39.3,94-87.81,96.88Z"/><path class="cls-4" d="M2319.54,3153.43c-47.85-16.66-83.62-59.27-93.71-111.64l-69.65-361.68-595.81,22.2-73.32,376.79c-10.27,52.76,30.84,105.7,78.18,125.14l249.27,102.33a310.22,310.22,0,0,0,145.74,22.16l526.8-47.28c15.4-1.38,27.76-14.08,29.55-30.38s12.58-34.59-2.1-39.7Z"/><path class="cls-5" d="M2325.44,3131.43c-47.81-16.44-83.54-58.52-93.62-110.23l-69.58-357.13L1581,2686l-73.26,372c-10.26,52.1,16.89,104.35,64.19,123.54l249,101.05a313.23,313.23,0,0,0,145.59,21.88l526.27-46.69c15.38-1.36,27.73-13.9,29.52-30s-7.47-31.28-22.14-36.32Z"/><path class="cls-6" d="M391.28,2921.16c-63.42,3.71-115.27-40.63-115.27-98.85V723.86c0-58.22,51.85-103.71,115.27-101.41l2994,108.65c48.5,1.76,87.81,44.34,87.81,94.93V2649.36c0,50.59-39.31,94-87.81,96.88Z"/><path class="cls-7" d="M3385.28,774l-2994-102.61c-33.92-1.16-61.48,23.11-61.48,54.21V2819.4c0,31.1,27.56,54.75,61.48,52.84l2994-168.89c26-1.47,47-24.65,47-51.78V824.73C3432.3,797.59,3411.27,774.87,3385.28,774Z"/><path class="cls-8" d="M391.28,2693.83c-13.2.65-23.95-8.67-23.95-20.77V726.78c0-12.1,10.75-21.6,23.95-21.16l2994,98.38c10.13.34,18.38,9.22,18.38,19.81v1703c0,10.58-8.25,19.6-18.38,20.1Z"/><polygon class="cls-9" points="3283.32 2442.01 522.62 2563.25 522.62 996.5 3283.32 1054.44 3283.32 2442.01"/><polygon class="cls-10" points="3283.32 1007.04 522.62 942.97 522.62 809.17 3283.32 888.54 3283.32 1007.04"/><path class="cls-8" d="M3073.64,942.34a14.67,14.67,0,0,1-14.89,14.95,15.61,15.61,0,0,1-14.91-15.72,14.66,14.66,0,0,1,14.91-15A15.61,15.61,0,0,1,3073.64,942.34Z"/><path class="cls-8" d="M3134.74,943.93a14.59,14.59,0,0,1-14.81,14.9c-8.18-.2-14.82-7.22-14.82-15.67a14.59,14.59,0,0,1,14.82-14.9A15.54,15.54,0,0,1,3134.74,943.93Z"/><path class="cls-8" d="M3195.49,945.51a14.53,14.53,0,0,1-14.72,14.86c-8.14-.21-14.74-7.2-14.74-15.63a14.53,14.53,0,0,1,14.74-14.86C3188.9,930.1,3195.49,937.09,3195.49,945.51Z"/><g class="cls-11"><polygon class="cls-8" points="2724.57 2191.96 582.83 2259.2 582.83 1037.2 2724.57 1078.64 2724.57 2191.96"/></g><polygon class="cls-12" points="3253.83 1402.3 2762.03 1399.98 2762.03 1079.37 3253.83 1088.88 3253.83 1402.3"/><polygon class="cls-8" points="3253.83 1459.71 2762.03 1458.71 2762.03 1434.7 3253.83 1436.24 3253.83 1459.71"/><polygon class="cls-8" points="3070.84 1500.22 2762.03 1500.18 2762.03 1476.17 3070.84 1476.55 3070.84 1500.22"/><polygon class="cls-12" points="3253.83 1862.06 2762.03 1870.3 2762.03 1549.69 3253.83 1548.65 3253.83 1862.06"/><polygon class="cls-8" points="3253.83 1919.47 2762.03 1929.04 2762.03 1905.03 3253.83 1896 3253.83 1919.47"/><polygon class="cls-8" points="3070.84 1963.91 2762.03 1970.5 2762.03 1946.5 3070.84 1940.24 3070.84 1963.91"/><polygon class="cls-12" points="3253.83 2321.82 2762.03 2340.63 2762.03 2020.02 3253.83 2008.41 3253.83 2321.82"/><polygon class="cls-8" points="3253.83 2379.24 2762.03 2399.36 2762.03 2375.36 3253.83 2355.77 3253.83 2379.24"/><polygon class="cls-8" points="3070.84 2427.61 2762.03 2440.83 2762.03 2416.82 3070.84 2403.94 3070.84 2427.61"/><polygon class="cls-8" points="2064.98 2341.87 582.83 2396.88 582.83 2316.55 2064.98 2266.48 2064.98 2341.87"/><polygon class="cls-8" points="2724.57 2317.39 2513.1 2325.24 2513.1 2251.34 2724.57 2244.2 2724.57 2317.39"/><polygon class="cls-8" points="2480.44 2326.45 2264.22 2334.48 2264.22 2259.75 2480.44 2252.45 2480.44 2326.45"/><polygon class="cls-8" points="1260.91 2466.07 582.83 2493.97 582.83 2453.8 1260.91 2427.03 1260.91 2466.07"/><path class="cls-13" d="M463.44,3126.89l-14-14.65c-22.29-23.35-20.51-60.12,4-82l960.35-859.51,87.66,99.7L547.71,3129.33C523.38,3151.23,485.66,3150.17,463.44,3126.89Z"/><path class="cls-14" d="M2380,1342.19C2137.75,1044,1708.23,995.9,1421.11,1245c-292.39,253.72-316,709-53.55,1006.1,256.27,290.13,683.86,312.42,956.09,59.94C2591.17,2063,2616.69,1633.56,2380,1342.19Zm-928.91,834c-218.55-249.14-198.6-629.66,45.18-842.37,240.09-209.5,600.68-170.83,805,79.06,200.42,245.09,179.1,607.36-47.14,816.12C2024.55,2440.83,1665.32,2420.39,1451.07,2176.16Z"/><path class="cls-15" d="M1413.79,2170.69l-122.45,109.59c11.32,50,4.38,84.9-7.4,109.66-44.33,93.12-170.72,72.62-272.43,204.88-51,66.37-27.87,82.79-79.61,136.59-85.54,88.93-159.35,55-234.58,134.67-76.1,80.65-47.9,165.55-102.21,187.23-23.24,9.28-60.06,6.33-121.58-41.09l-20.09,18c-24.49,21.92-26.27,58.68-4,82l14,14.65c22.22,23.28,59.94,24.34,84.27,2.44l953.74-858.94Z"/><path class="cls-16" d="M2415.08,1361.11C2172.86,1063,1743.33,1014.82,1456.21,1264c-292.39,253.72-316,709-53.54,1006.1,256.26,290.13,683.86,312.42,956.08,59.94C2626.28,2081.88,2651.8,1652.48,2415.08,1361.11Zm-928.91,834c-218.55-249.14-198.59-629.66,45.18-842.37,240.09-209.49,600.69-170.83,805,79.06,200.43,245.09,179.1,607.37-47.13,816.13C2059.66,2459.75,1700.42,2439.31,1486.17,2195.08Z"/><path class="cls-17" d="M2387.29,1386.06c-228.86-281.06-634-325.77-904.45-90.64-275.11,239.2-297.42,667.95-50.59,948.08,241.36,273.92,644.78,295.63,902,57.52C2587.21,2066.81,2611.24,1661.08,2387.29,1386.06Zm-901.12,809c-218.55-249.14-198.59-629.66,45.18-842.37,240.09-209.49,600.69-170.83,805,79.06,200.43,245.09,179.1,607.37-47.13,816.13C2059.66,2459.75,1700.42,2439.31,1486.17,2195.08Z"/></g></g></svg>