<svg xmlns="http://www.w3.org/2000/svg" xmlns:xlink="http://www.w3.org/1999/xlink" viewBox="0 0 3710 3710"><defs><style>.cls-1{opacity:0.3;fill:url(#linear-gradient);}.cls-2{fill:url(#linear-gradient-2);}.cls-3{fill:url(#linear-gradient-3);}.cls-4{fill:url(#_12);}.cls-5{fill:url(#linear-gradient-4);}.cls-6{fill:url(#linear-gradient-5);}.cls-7{fill:url(#linear-gradient-6);}.cls-8{fill:#fff;}.cls-9{fill:url(#linear-gradient-7);}.cls-10{fill:url(#linear-gradient-8);}.cls-11{fill:url(#linear-gradient-9);}.cls-12{fill:url(#linear-gradient-10);}.cls-13{fill:url(#linear-gradient-11);}.cls-14{fill:url(#linear-gradient-12);}.cls-15{fill:url(#linear-gradient-13);}.cls-16{fill:url(#linear-gradient-14);}.cls-17{fill:url(#linear-gradient-15);}.cls-18{fill:url(#linear-gradient-16);}.cls-19{fill:url(#linear-gradient-17);}.cls-20{fill:url(#linear-gradient-18);}.cls-21{fill:url(#linear-gradient-19);}.cls-22{fill:url(#linear-gradient-20);}.cls-23{fill:url(#linear-gradient-21);}.cls-24{fill:url(#linear-gradient-22);}.cls-25{fill:url(#linear-gradient-23);}.cls-26{fill:url(#linear-gradient-24);}.cls-27{fill:url(#linear-gradient-25);}.cls-28{fill:url(#linear-gradient-26);}</style><linearGradient id="linear-gradient" x1="3694.37" y1="3788.98" x2="1557.96" y2="1514.73" gradientUnits="userSpaceOnUse"><stop offset="0" stop-color="#b37cff"/><stop offset="1" stop-color="#f895e7"/></linearGradient><linearGradient id="linear-gradient-2" x1="2227.17" y1="1235.14" x2="12.51" y2="3201.88" gradientUnits="userSpaceOnUse"><stop offset="0" stop-color="#53d8ff"/><stop offset="1" stop-color="#3840f7"/></linearGradient><linearGradient id="linear-gradient-3" x1="2647.41" y1="1200.89" x2="2168.12" y2="3294.34" xlink:href="#linear-gradient-2"/><linearGradient id="_12" x1="2842.45" y1="1203.23" x2="1757.16" y2="3472.97" gradientUnits="userSpaceOnUse"><stop offset="0" stop-color="#53d8ff"/><stop offset="0.19" stop-color="#4cb1fd"/><stop offset="0.45" stop-color="#4481fa"/><stop offset="0.69" stop-color="#3d5df9"/><stop offset="0.88" stop-color="#3948f7"/><stop offset="1" stop-color="#3840f7"/></linearGradient><linearGradient id="linear-gradient-4" x1="1413.95" y1="452.03" x2="1098.08" y2="2979" gradientUnits="userSpaceOnUse"><stop offset="0" stop-color="#fdf53f"/><stop offset="0.66" stop-color="#e57a58"/><stop offset="1" stop-color="#d93c65"/></linearGradient><linearGradient id="linear-gradient-5" x1="3101.55" y1="-6651.5" x2="3841.9" y2="-3060.42" gradientTransform="translate(-1982.5 -970.35) rotate(76.35)" xlink:href="#linear-gradient-2"/><linearGradient id="linear-gradient-6" x1="2893.88" y1="760.69" x2="1803.08" y2="2810.07" xlink:href="#linear-gradient-2"/><linearGradient id="linear-gradient-7" x1="-3859.56" y1="3169.99" x2="-4493.34" y2="3859.37" gradientTransform="matrix(-1, 0, 0, 1, -1038.07, 0)" gradientUnits="userSpaceOnUse"><stop offset="0" stop-color="#cb236d"/><stop offset="1" stop-color="#4c246d"/></linearGradient><linearGradient id="linear-gradient-8" x1="-4065.28" y1="3221.19" x2="-4008.98" y2="3221.19" gradientTransform="matrix(-1, 0, 0, 1, -1038.07, 0)" gradientUnits="userSpaceOnUse"><stop offset="0" stop-color="#f9b776"/><stop offset="1" stop-color="#f47960"/></linearGradient><linearGradient id="linear-gradient-9" x1="-4198.77" y1="2790.73" x2="-4012.63" y2="2790.73" gradientTransform="matrix(-1, 0, 0, 1, -1038.07, 0)" gradientUnits="userSpaceOnUse"><stop offset="0" stop-color="#2b3582"/><stop offset="1" stop-color="#150e42"/></linearGradient><linearGradient id="linear-gradient-10" x1="-4001.74" y1="3039.28" x2="-4635.52" y2="3728.65" xlink:href="#linear-gradient-7"/><linearGradient id="linear-gradient-11" x1="-4268.17" y1="3218.3" x2="-4219.56" y2="3218.3" xlink:href="#linear-gradient-8"/><linearGradient id="linear-gradient-12" x1="-4320.56" y1="2784.64" x2="-4056.29" y2="2784.64" xlink:href="#linear-gradient-9"/><linearGradient id="linear-gradient-13" x1="3110.2" y1="1969.23" x2="2632.72" y2="2762.58" xlink:href="#linear-gradient-4"/><linearGradient id="linear-gradient-14" x1="-3833.62" y1="1752.51" x2="-3546.02" y2="1752.51" xlink:href="#linear-gradient-8"/><linearGradient id="linear-gradient-15" x1="14057.86" y1="1704.3" x2="14250.85" y2="2143.39" gradientTransform="translate(-11485.85)" xlink:href="#linear-gradient-8"/><linearGradient id="linear-gradient-16" x1="-3547.4" y1="1558.06" x2="-3466.87" y2="1434.25" xlink:href="#linear-gradient-8"/><linearGradient id="linear-gradient-17" x1="3275.43" y1="2068.68" x2="2797.95" y2="2862.03" xlink:href="#linear-gradient-4"/><linearGradient id="linear-gradient-18" x1="-4462.96" y1="2159.89" x2="-4098.99" y2="2159.89" xlink:href="#linear-gradient-8"/><linearGradient id="linear-gradient-19" x1="-3988.88" y1="1901.12" x2="-3788.75" y2="2735.01" xlink:href="#linear-gradient-9"/><linearGradient id="linear-gradient-20" x1="-3863.58" y1="1769.68" x2="-3906.2" y2="1956.85" gradientTransform="matrix(-1, 0, 0, 1, -1038.07, 0)" xlink:href="#linear-gradient-2"/><linearGradient id="linear-gradient-21" x1="-3885.89" y1="1848.19" x2="-3906.27" y2="1970.5" gradientTransform="matrix(-1, 0, 0, 1, -1038.07, 0)" xlink:href="#linear-gradient-2"/><linearGradient id="linear-gradient-22" x1="-4126.02" y1="2121.73" x2="-4012.63" y2="2121.73" xlink:href="#linear-gradient-8"/><linearGradient id="linear-gradient-23" x1="-4183.48" y1="1770.79" x2="-4039.58" y2="1770.79" xlink:href="#linear-gradient-8"/><linearGradient id="linear-gradient-24" x1="-8465.8" y1="-4229.17" x2="-8519.58" y2="-4406.53" gradientTransform="matrix(-0.75, -0.67, -0.67, 0.75, -6164.4, -803.17)" xlink:href="#linear-gradient-8"/><linearGradient id="linear-gradient-25" x1="-8514.32" y1="-4538.19" x2="-8469.33" y2="-4281.63" gradientTransform="matrix(-0.75, -0.67, -0.67, 0.75, -6164.4, -803.17)" xlink:href="#linear-gradient-9"/><linearGradient id="linear-gradient-26" x1="-8520.77" y1="-4230" x2="-8569.15" y2="-4389.57" gradientTransform="matrix(-0.75, -0.67, -0.67, 0.75, -6164.4, -803.17)" xlink:href="#linear-gradient-8"/></defs><title>ICONO SORTEO</title><g id="Illustration"><path class="cls-1" d="M3051.09,2878.27c-78.87,81.3-149.43,129.08-203.46,165.16-526.94,351.84-1131.14,310.08-1317.37,275.42-300.46-55.92-552.24-155-770.15-351.9C264.94,2519.59,289,1586.36,667.39,1008.26c44.86-68.55,422.66-628.55,1026.31-707.46,14.76-1.93,25.78-3,35.43-4.06,93.38-9.88,672.06-62.07,1143.92,333.25,67.54,56.59,187.74,151.79,277,314.34C3469.65,1526.08,3519.81,2395.13,3051.09,2878.27Z"/><path class="cls-2" d="M3024.43,1527.44c-.9-3.88-1.81-7.77-2.76-11.66C2879,928.43,2282,569.21,1688.2,713.44l261.16,1075.14Z"/><path class="cls-3" d="M1946.17,1784.41l1046.58,359.33c65-188.81,79.75-397.52,31.86-606.49q-2.27-9.87-4.71-19.65Z"/><path class="cls-4" d="M1949.35,1788.59,2162,2874.34c6.81-1.34,13.62-2.72,20.44-4.19,392.78-84.66,691.52-368.17,813.46-722.24Z"/><path class="cls-5" d="M1813.35,1699,1592.47,628.62c-499.42,103.06-850.12,527.73-880.75,1013.26L1807.25,1706A5.87,5.87,0,0,0,1813.35,1699Z"/><path class="cls-6" d="M1950,1784l-1104-36.7c-4.73,96.72,4,177.78,26,276.87,102.75,462.28,480.89,792.09,923.49,855.42Z"/><path class="cls-7" d="M1786.25,2882.88a1103.19,1103.19,0,0,0,377.25-8.25h0L1952,1788.66Z"/><path class="cls-8" d="M1554.89,2781.34a7.32,7.32,0,0,1-2.8-.56,1080.3,1080.3,0,0,1-399.39-286.33c-112.1-128.36-192.76-284.34-233.26-451.08-3.62-14.9-7-30.07-10-45.08a7.35,7.35,0,1,1,14.42-2.86c2.93,14.8,6.24,29.77,9.81,44.48,39.94,164.45,119.49,318.29,230,444.88A1065.56,1065.56,0,0,0,1557.7,2767.2a7.35,7.35,0,0,1-2.81,14.14Z"/><path class="cls-8" d="M2353.61,2786.07a7.35,7.35,0,0,1-2.71-14.18c273.29-108.46,490.55-329,596.07-605a7.34,7.34,0,0,1,13.72,5.24c-107,279.88-327.26,503.48-604.37,613.46A7.37,7.37,0,0,1,2353.61,2786.07Z"/><path class="cls-8" d="M2809.3,1157.42a7.33,7.33,0,0,1-5.87-2.92c-132-174.88-312.39-302.81-521.57-370a7.35,7.35,0,1,1,4.49-14c212.08,68.07,394.93,197.77,528.81,375.09a7.34,7.34,0,0,1-5.86,11.77Z"/><path class="cls-8" d="M1313.1,1636.76a3.85,3.85,0,0,1-.48,0l-562.1-36.25,1.23-7.94c14.79-95.29,39.12-187.57,76.58-290.4a7.34,7.34,0,1,1,13.8,5c-36.07,99-59.86,188.16-74.6,279.69l546,35.22a7.34,7.34,0,0,1-.46,14.67Z"/><path class="cls-8" d="M1754,1665.16c-.26,0-.52,0-.79,0l-114.66-7.42a7.35,7.35,0,0,1,1-14.66l110.88,7.17-119.25-558.36a7.34,7.34,0,1,1,14.36-3.07l120,562.07a11.82,11.82,0,0,1-11.54,14.29Zm-2.83-11.22h0Z"/><path class="cls-9" d="M3021.83,3221.34s6.56,37.16,9.78,73.94a25.34,25.34,0,0,1-24.24,27.46c-49,2-153.76,6-191.36,4.33a8.25,8.25,0,0,1-7.25-11.3,18.44,18.44,0,0,1,9.44-9.94l173.07-79.55Z"/><path class="cls-10" d="M3027.21,3199.51l-5.28,44.45s-30.31,14.11-51-1.78l12.56-49.53Z"/><path class="cls-11" d="M3023.24,2363.92c2.28,11.61,12.23,579.2-48.44,833.56a8.63,8.63,0,0,0,5.06,10,150.31,150.31,0,0,0,49.42,10,14.86,14.86,0,0,0,14.75-10.67c17.34-59,100.44-354.7,111.28-637.15,12.12-315.62,0-10.75,0-10.75l-7.1-195.09Z"/><path class="cls-12" d="M3220.92,3240.73s10.45,18.76,20.56,68.6a15.46,15.46,0,0,1-13.6,18.52c-16.18,1.59-41.07,3.63-61,3.5a15.42,15.42,0,0,1-15.26-17.2c2.21-18.2,9.09-48.05,30.35-71.31Z"/><path class="cls-13" d="M3230.1,3183.56l-12.33,67.21s-12.18,9.07-36.28,2.5l5.88-72.32Z"/><path class="cls-14" d="M3263.38,2381.34c49.63,299.47-10.76,740.16-31.13,826.41a13.42,13.42,0,0,1-10.86,10.21c-9.09,1.51-24,2.74-38.81-1.55a12.33,12.33,0,0,1-8.86-11.35c-2.73-69.73,2.19-497.83-44-667a38.41,38.41,0,0,0-14.82-21.2l-89.74-63.8-6.88-103.13Z"/><path class="cls-15" d="M2947.2,1813.91c148.7-2.46,312.78,39,312.78,39,44.33,258.64,7.75,557,7.75,557-115.12,30.2-245-18.45-245-18.45-19.13-108.11-108.41-412.35-108.41-412.35-72.66-9-132.51-30-181.8-57.7,37.6-43.58,55.32-99,63-131.81C2848.13,1805.94,2901.33,1814.66,2947.2,1813.91Z"/><path class="cls-16" d="M2508,1594.87c14.61-17.64,33.09-9.3,33.09-9.3,21.89,92.44,136.63,167.39,254.51,204-7.7,32.78-25.42,88.23-63,131.81C2536.9,1811.41,2508,1594.87,2508,1594.87Z"/><path class="cls-17" d="M2511.49,1599.36c-1.53,4.86,16.18,12.26,26.6-7.62.36-9.52,6.15-50.33.46-58.09-30.31-41.32-89.08-93.13-89.08-93.13-9.93,9.8-1.75,19.43-1.75,19.43l28.51,29.7c-6,10.78-13.24,19.87-16.65,32.91a39.93,39.93,0,0,0,4,29.4c5,9,11.83,20.74,18.28,29.91C2494.07,1599.23,2511.49,1599.36,2511.49,1599.36Z"/><path class="cls-18" d="M2488.7,1508.92l26,22,8.16,21.93-23.17,25.7s-7.78-43.51-13.57-52.93S2483.31,1511.67,2488.7,1508.92Z"/><path class="cls-19" d="M3202.94,1996.94l57-144s138.9,94.38,161.74,214c-26.24,1.93-74,8.75-120.74,32.36C3290.7,2042.85,3202.94,1996.94,3202.94,1996.94Z"/><path class="cls-20" d="M3081.56,2132.43s156,88.14,208.57,12.88c10.92-15.63,13.54-31.16,10.85-46,46.74-23.61,94.5-30.43,120.74-32.36,6.89,36.07,3.25,74.43-17.95,113.21-92.17,168.61-342.85-9.32-342.85-9.32Z"/><path class="cls-21" d="M3100.3,2243.93l-85.11-297.22a8.68,8.68,0,0,0-7.33-6.25c-15.42-1.8-60.11-6.85-111.7-11.21-62.14-5.26-134.31-9.52-177.43-5.89a8.69,8.69,0,0,0-7.11,12.51c24.52,49.62,125.4,251.43,175.91,317.54a8.74,8.74,0,0,0,7,3.45L3092,2255A8.69,8.69,0,0,0,3100.3,2243.93Z"/><path class="cls-22" d="M2887.34,1903.48l-61.71-10.28a4.43,4.43,0,0,0-4.94,5.76l6.11,18.51a4.44,4.44,0,0,0,3.62,3l59.38,7.93a4.43,4.43,0,0,0,4.9-5.4l-3.78-16.16A4.44,4.44,0,0,0,2887.34,1903.48Z"/><path class="cls-23" d="M2933.54,1955.72l-5.08-26.48a6.13,6.13,0,0,0-5.4-4.93l-124.63-12.65a6.12,6.12,0,0,0-6.57,7.52l7.92,33a6.15,6.15,0,0,0,5.65,4.69l121.79,6.13A6.12,6.12,0,0,0,2933.54,1955.72Z"/><path class="cls-24" d="M3079.74,2172.12s11.85-48.75,7.07-66-14-39.53-44.93-34.59-67.32,17.95-67.32,17.95,1.84,22.53,25.31,15.26L2985.31,2116s2.08,18,21.91,8.4l-13.54,14.94s8.52,14.81,23.11,5.31S3038.37,2178,3079.74,2172.12Z"/><path class="cls-25" d="M3097.82,1693.18,3145.14,1830a4.94,4.94,0,0,1-2.25,5.94c-12.9,7.13-59.36,27.75-115.36-7.76a23.18,23.18,0,0,1-10.69-16.58l-15.33-118.43Z"/><path class="cls-26" d="M2994.87,1566.47s-52,97.8-45.3,137.31,71.06,36.67,127.29,4.59l39.29-105.61Z"/><path class="cls-27" d="M3074.37,1656.5a4,4,0,0,1-1.76-5.9c4.16-6.36,12-19.33,14.46-30.69,0,0,9.34-6-23.78-13.91s-82.49-20.23-92.87-48.41c-10.12-27.48,16.47-96.59,58.89-41.53a4,4,0,0,0,6.39,0c7-9,25.23-27.84,50.62-16.45,23.75,10.66,26.43,28.06,26.1,36.84a4,4,0,0,0,4.75,4.1c12-2.29,40.83-4.26,54.28,25.31,11.08,24.35,3.88,38.13-2.68,44.88a4,4,0,0,0,1.72,6.67c7.89,2.41,18.08,9.11,17.06,27.6-1.41,25.56-30,23.31-38.13,22.15a4,4,0,0,0-3.58,1.26c-7,7.72-38.41,40.51-72.44,44.46a4.06,4.06,0,0,1-4.26-5.37l14.72-42.8a4,4,0,0,0-2.19-5Z"/><path class="cls-28" d="M3068.45,1662.58s37-25.38,39.7-4-33.31,31-51.15,23Z"/></g></svg>