<svg xmlns="http://www.w3.org/2000/svg" xmlns:xlink="http://www.w3.org/1999/xlink" viewBox="0 0 3710 3710"><defs><style>.cls-1{fill:none;}.cls-2{isolation:isolate;}.cls-3{fill:#f4f7fa;}.cls-4{fill:url(#linear-gradient);}.cls-5{clip-path:url(#clip-path);}.cls-6{fill:#fcfdfe;}.cls-7{clip-path:url(#clip-path-2);}.cls-8{fill:url(#linear-gradient-2);}.cls-9{fill:#beb8f2;}.cls-10{fill:url(#linear-gradient-3);}.cls-11{fill:url(#linear-gradient-4);}.cls-12{fill:url(#linear-gradient-5);}.cls-13{fill:url(#linear-gradient-6);}.cls-14{fill:url(#linear-gradient-7);}.cls-15,.cls-19{fill:#fff;}.cls-16{fill:url(#linear-gradient-8);}.cls-17{fill:url(#linear-gradient-9);}.cls-18,.cls-19{opacity:0.68;}.cls-20{fill:url(#linear-gradient-10);}.cls-21{fill:url(#linear-gradient-11);}.cls-22{opacity:0.3;mix-blend-mode:multiply;fill:url(#linear-gradient-12);}.cls-23{fill:url(#linear-gradient-13);}.cls-24{fill:url(#linear-gradient-14);}.cls-25{fill:#26264f;}.cls-26{fill:url(#linear-gradient-15);}.cls-27{fill:url(#linear-gradient-16);}</style><linearGradient id="linear-gradient" x1="-2686.53" y1="-3724.42" x2="-2053.76" y2="320.79" gradientTransform="matrix(-0.13, -0.99, -0.99, 0.13, -784.79, -980.68)" gradientUnits="userSpaceOnUse"><stop offset="0" stop-color="#ffc444"/><stop offset="1" stop-color="#f36f56"/></linearGradient><clipPath id="clip-path"><path class="cls-1" d="M1262.9,920.46c-75,140.45-157,280.28-233.27,421.3,57.52,70.32,126.89,151.62,221,88.84,130.81-87.3,360.16,64.88,450.38,154.13,111.67,110.48,375.24,326.83,483.82,123,90.39-169.72,78.79-310.13,303.92-242.91s396,16,468.3-186.52c76.15-213.14,411.8-260.49,369.25-491.31-74.16-402.21-676.44-178.08-893.22,61.94s-288.9,64.54-478.6-40.92c-259-144-280,211.24-443.18,223.64C1383.38,1041.33,1351.72,982.41,1262.9,920.46Z"/></clipPath><clipPath id="clip-path-2"><path class="cls-1" d="M838.61,2798.56q-173.8-109.76-343.35-227.83c-2.81.92,76-286.5,266.58-371.07,374.4-161.55,312.83-482.77,328.73-649.89,13.17-239.76,163.64-471.56,369-324.62C1662,1363,1896.39,924.39,2013.22,558.21,2056.13,373.81,2308,238.62,2489,262.44c186.58,20.2,302.28,199.4,202,560.45-98.27,425.93-489.52,535.63-682.75,685.35-189.94,146.88-16.49,410.72-287.7,495.24-231.71,79.21-487.27,96.71-496.16,321.27C1218.54,2548.08,1131.48,2694.19,838.61,2798.56Z"/></clipPath><linearGradient id="linear-gradient-2" x1="1866.48" y1="-724.43" x2="892.96" y2="2042.41" gradientTransform="matrix(-0.59, -0.81, -0.81, 0.59, 2984.49, 2251.25)" gradientUnits="userSpaceOnUse"><stop offset="0" stop-color="#aa80f9"/><stop offset="1" stop-color="#6165d7"/></linearGradient><linearGradient id="linear-gradient-3" x1="559.58" y1="1906.25" x2="1082.89" y2="1851.57" gradientUnits="userSpaceOnUse"><stop offset="0" stop-color="#26264f"/><stop offset="1" stop-color="#444b8c"/></linearGradient><linearGradient id="linear-gradient-4" x1="1675.12" y1="3505" x2="1786" y2="3346.18" gradientUnits="userSpaceOnUse"><stop offset="0" stop-color="#444b8c"/><stop offset="1" stop-color="#26264f"/></linearGradient><linearGradient id="linear-gradient-5" x1="2010.76" y1="3464.29" x2="1841.07" y2="2543.11" xlink:href="#linear-gradient-4"/><linearGradient id="linear-gradient-6" x1="2429.36" y1="921.31" x2="3278.55" y2="-290.67" xlink:href="#linear-gradient-4"/><linearGradient id="linear-gradient-7" x1="2060.53" y1="1065.21" x2="998.31" y2="4438.97" xlink:href="#linear-gradient-4"/><linearGradient id="linear-gradient-8" x1="2118.11" y1="1271.73" x2="1122.3" y2="3325.08" gradientUnits="userSpaceOnUse"><stop offset="0" stop-color="#e38ddd"/><stop offset="1" stop-color="#9571f6"/></linearGradient><linearGradient id="linear-gradient-9" x1="1855.15" y1="1027.61" x2="1796.39" y2="1514.02" gradientUnits="userSpaceOnUse"><stop offset="0" stop-color="#ff9085"/><stop offset="1" stop-color="#fb6fbb"/></linearGradient><linearGradient id="linear-gradient-10" x1="409.25" y1="2734.74" x2="1461.52" y2="2734.74" gradientTransform="matrix(1, 0, 0, 1, 0, 0)" xlink:href="#linear-gradient"/><linearGradient id="linear-gradient-11" x1="1149.89" y1="1874.66" x2="2487.26" y2="1874.66" gradientTransform="matrix(1, 0, 0, 1, 0, 0)" xlink:href="#linear-gradient"/><linearGradient id="linear-gradient-12" x1="409.25" y1="2734.74" x2="1461.52" y2="2734.74" gradientTransform="matrix(1, 0, 0, 1, 0, 0)" xlink:href="#linear-gradient"/><linearGradient id="linear-gradient-13" x1="5111.02" y1="784.83" x2="4439.38" y2="32.83" gradientTransform="translate(-2734.05 1286.85) rotate(4.6)" xlink:href="#linear-gradient"/><linearGradient id="linear-gradient-14" x1="1224.39" y1="1893.75" x2="2485.91" y2="1893.75" gradientTransform="matrix(1, 0, 0, 1, 0, 0)" xlink:href="#linear-gradient"/><linearGradient id="linear-gradient-15" x1="703.74" y1="721.59" x2="1705.75" y2="721.59" gradientTransform="matrix(1, 0, 0, 1, 0, 0)" xlink:href="#linear-gradient-2"/><linearGradient id="linear-gradient-16" x1="162.33" y1="1447.56" x2="898.41" y2="1447.56" gradientTransform="matrix(1, 0, 0, 1, 0, 0)" xlink:href="#linear-gradient-2"/></defs><title>ICONO CUSER</title><g class="cls-2"><g id="Illustration"><path class="cls-3" d="M1501.54,384.44S378.94,431.69,315.25,1387.74-43,3253.44,673.53,3307.74s2396.45,159.77,2635.3-409.8S3667.11,183.88,1501.54,384.44Z"/><path class="cls-4" d="M1194.25,1425.67c-13.79-18.61-27.4-71.24-25.29-86.42,14-101,28-291.92,110-362,14-12,83.28,35.38,103.43,32,51.5,19.46,68.16,29.41,126.21,23.86,171.39-16.38,184.34-367.88,445.53-224.93,191.32,104.71,261.6,281.07,478.81,40.83s819-464.09,893.34-62c42.65,230.76-293.14,278.17-369.24,491.32-72.32,202.54-243.15,253.71-468.32,186.51s-213.35,73.16-303.94,242.93c-108.82,203.94-371.45-12.64-484.17-123C1609.81,1495.89,1318.73,1330.89,1194.25,1425.67Z"/><g class="cls-5"><path class="cls-6" d="M1219.26,1166.74l1.69-4.63c712.37,260.69,1502.21,70.47,2112.82-508.82l3.39,3.57c-289.38,274.55-632.32,468.71-991.74,561.51C1967.57,1315.92,1578.15,1298.07,1219.26,1166.74Z"/><path class="cls-6" d="M2149.26,1797.66c-90.16-186.87-317.61-425.61-507-532.19l2.42-4.29c190.16,107,418.52,346.7,509,534.34Z"/><path class="cls-6" d="M1359.69,1216.31l.34-4.91c112.7,7.9,225.07-41.48,334-146.77,79.86-77.19,156-182.1,226.41-311.79l4.32,2.35c-70.61,130.13-147.08,235.44-227.3,313C1587.48,1174.47,1473.84,1224.31,1359.69,1216.31Z"/><path class="cls-6" d="M2395.93,1203.21l.09-4.92c213.2,4,395.26,134.86,510.45,244l-3.39,3.57C2788.52,1337.33,2607.55,1207.15,2395.93,1203.21Z"/><path class="cls-6" d="M2847.52,1017.93l-3.15-3.78C3029,860.47,3085.46,614.71,3102.68,481.9l4.89.64C3090.25,616.06,3033.45,863.18,2847.52,1017.93Z"/></g><g class="cls-7"><path class="cls-8" d="M838.61,2798.56q-173.8-109.76-343.35-227.83c-2.81.92,76-286.5,266.58-371.07,374.4-161.55,312.83-482.77,328.73-649.89,13.88-239.26,152.85-443.41,363.07-354.16,235.16,94.46,447-270.18,559.58-637.4C2056.13,373.81,2308,238.62,2489,262.44c186.58,20.2,302.28,199.4,202,560.45-98.27,425.93-489.52,535.63-682.75,685.35-189.94,146.88-16.49,410.72-287.7,495.24-231.71,79.21-487.27,96.71-496.16,321.27C1218.54,2548.08,1131.48,2694.19,838.61,2798.56Z"/><path class="cls-9" d="M659.54,2738.26c1-2.41,370.74-516.88,819.74-978.24,67.76-76.79,138.34-153.3,206.6-227.29C2066,1120.67,2425,731.45,2482.92,147.34l8.12.8c-58.15,586.84-418.09,977-799.16,1390.13-68.23,74-138.78,150.43-206.62,227.3-451.42,463.86-816.43,972.85-818.35,976.17Z"/><path class="cls-9" d="M2035.44,1149.68l-3.33-7.45c206.17-92.26,469.57-236.52,611.08-314C2757.72,765.48,2758,765.65,2761.55,768l-2.21,3.43.31,4c-5.26,1.24-52.61,27.17-112.54,60C2505.5,912.92,2241.91,1057.29,2035.44,1149.68Z"/><path class="cls-9" d="M2168.71,956.07c49.16-187.68,28.32-334.88,2.18-425.32-28.47-98.51-70.66-156.71-77.11-161.07l1.78-2.62-.89-5.06c2.41-.42,4.3,1.06,6.94,3.93,37.84,41.13,161.44,262.18,75,592.21Z"/><path class="cls-9" d="M1204.9,2070.84l-7-4.17c196.94-331.75,103.92-763.95,54.79-934.38-2.64-9.15-3.48-12.12-3.64-13.54l8.11-.88-4.05.44,4.05-.47c.14,1,1.64,6.19,3.37,12.19,35.43,122.91,57,245.14,63.94,363.28C1337.89,1720.27,1297.67,1914.57,1204.9,2070.84Z"/><path class="cls-9" d="M1336.76,1923.66l-4.6-6.74c254.64-174,574.78-52.79,579.61-50l0,0,1.23,4.72-4.17,2.53.37-4-1.89,3.56C1904.42,1872.36,1588.86,1751.44,1336.76,1923.66Zm572.86-57.56-.38,4.05Z"/><path class="cls-9" d="M721.29,2654.8c34.11-69.91,62.38-202.37,3.38-436.42-3.35-13.28-3.35-13.28-2.22-15.08l6.91,4.34-3.45-2.17,4.05,0c.1.95,1.27,5.59,2.62,11,59.61,236.45,30.75,370.87-4,442Z"/><path class="cls-9" d="M819.43,2538.34l-6.25-5.25c92.94-110.5,311-124.81,432.64-123.5,3.86,0,6.34.07,7.25,0l.47,8.15c-1,0-3.66,0-7.81,0C1125.49,2416.46,910.21,2430.42,819.43,2538.34Z"/></g><path class="cls-10" d="M343.94,2994.23c-62.51,3.66-113.62-40-113.62-97.43V828.51c0-57.39,51.11-102.22,113.62-100l2951,107.08c47.81,1.73,86.55,43.71,86.55,93.57V2726.34c0,49.86-38.74,92.69-86.55,95.48Z"/><path class="cls-11" d="M2267.85,3223.16c-47.16-16.41-82.42-58.41-92.36-110l-68.65-356.48-587.24,21.88-72.28,371.37c-10.12,52,30.4,104.19,77.06,123.34l245.7,100.86A305.72,305.72,0,0,0,1913.71,3396l519.24-46.6c15.18-1.37,27.35-13.88,29.12-29.94s12.4-34.1-2.07-39.13Z"/><path class="cls-12" d="M2273.67,3201.48c-47.12-16.21-82.34-57.68-92.27-108.65l-68.58-352-572.94,21.63-72.2,366.7c-10.11,51.36,16.65,102.86,63.26,121.77l245.45,99.59a308.68,308.68,0,0,0,143.49,21.58l518.71-46c15.17-1.35,27.33-13.71,29.1-29.56s-7.36-30.83-21.82-35.81Z"/><path class="cls-13" d="M367.31,2994.23c-62.52,3.66-113.63-40-113.63-97.43V828.51c0-57.39,51.11-102.22,113.63-100l2951,107.08c47.82,1.73,86.55,43.71,86.55,93.57V2726.34c0,49.86-38.73,92.69-86.55,95.48Z"/><path class="cls-14" d="M3318.27,877.91l-2951-101.14c-33.43-1.14-60.6,22.78-60.6,53.43V2893.93c0,30.66,27.17,54,60.6,52.09l2951-166.47c25.63-1.44,46.35-24.29,46.35-51V927.92C3364.62,901.18,3343.9,878.79,3318.27,877.91Z"/><path class="cls-15" d="M367.31,2770.17c-13,.64-23.62-8.54-23.62-20.47V831.38c0-11.92,10.6-21.28,23.62-20.85l2951,97c10,.33,18.12,9.09,18.12,19.52V2605.59c0,10.43-8.12,19.32-18.12,19.81Z"/><polygon class="cls-16" points="3217.78 2521.97 496.75 2641.47 496.75 1097.23 3217.78 1154.34 3217.78 2521.97"/><polygon class="cls-17" points="3217.78 1107.62 496.75 1044.47 496.75 912.59 3217.78 990.82 3217.78 1107.62"/><path class="cls-15" d="M3011.11,1043.85a14.44,14.44,0,0,1-14.67,14.73,15.38,15.38,0,0,1-14.69-15.49,14.44,14.44,0,0,1,14.69-14.73A15.37,15.37,0,0,1,3011.11,1043.85Z"/><path class="cls-15" d="M3071.34,1045.41a14.38,14.38,0,0,1-14.6,14.69,15.31,15.31,0,0,1-14.61-15.44,14.38,14.38,0,0,1,14.61-14.69A15.31,15.31,0,0,1,3071.34,1045.41Z"/><path class="cls-15" d="M3131.22,1047a14.33,14.33,0,0,1-14.51,14.65c-8-.2-14.53-7.1-14.53-15.4a14.32,14.32,0,0,1,14.53-14.65C3124.72,1031.78,3131.22,1038.68,3131.22,1047Z"/><g class="cls-18"><polygon class="cls-15" points="2667.06 2275.51 556.1 2341.79 556.1 1137.34 2667.06 1178.19 2667.06 2275.51"/></g><polygon class="cls-19" points="3188.71 1497.19 2703.98 1494.91 2703.98 1178.91 3188.71 1188.29 3188.71 1497.19"/><polygon class="cls-15" points="3188.71 1553.78 2703.98 1552.8 2703.98 1529.14 3188.71 1530.65 3188.71 1553.78"/><polygon class="cls-15" points="3008.35 1593.71 2703.98 1593.67 2703.98 1570.01 3008.35 1570.38 3008.35 1593.71"/><polygon class="cls-19" points="3188.71 1950.35 2703.98 1958.48 2703.98 1642.47 3188.71 1641.44 3188.71 1950.35"/><polygon class="cls-15" points="3188.71 2006.94 2703.98 2016.37 2703.98 1992.7 3188.71 1983.81 3188.71 2006.94"/><polygon class="cls-15" points="3008.35 2050.74 2703.98 2057.24 2703.98 2033.58 3008.35 2027.41 3008.35 2050.74"/><polygon class="cls-19" points="3188.71 2403.51 2703.98 2422.05 2703.98 2106.04 3188.71 2094.6 3188.71 2403.51"/><polygon class="cls-15" points="3188.71 2460.1 2703.98 2479.93 2703.98 2456.27 3188.71 2436.97 3188.71 2460.1"/><polygon class="cls-15" points="3008.35 2507.77 2703.98 2520.8 2703.98 2497.14 3008.35 2484.44 3008.35 2507.77"/><polygon class="cls-15" points="2016.95 2423.27 556.1 2477.49 556.1 2398.31 2016.95 2348.96 2016.95 2423.27"/><polygon class="cls-15" points="2667.06 2399.14 2458.64 2406.87 2458.64 2334.04 2667.06 2327 2667.06 2399.14"/><polygon class="cls-15" points="2426.44 2408.07 2213.32 2415.98 2213.32 2342.33 2426.44 2335.13 2426.44 2408.07"/><polygon class="cls-15" points="1224.44 2545.68 556.1 2573.18 556.1 2533.59 1224.44 2507.2 1224.44 2545.68"/><path class="cls-20" d="M438.43,3197l-13.78-14.44c-22-23-20.22-59.26,3.92-80.86l946.55-847.16,86.4,98.26-940,846.6C497.51,3221,460.33,3220,438.43,3197Z"/><path class="cls-21" d="M2327.42,1438c-238.74-293.87-662.09-341.31-945.09-95.75-288.19,250.07-311.43,698.8-52.77,991.64,252.58,286,674,307.93,942.35,59.07C2535.58,2148.36,2560.74,1725.13,2327.42,1438Zm-915.55,822c-215.42-245.56-195.75-620.61,44.52-830.27,236.64-206.48,592.06-168.37,793.46,77.92,197.55,241.57,176.53,598.64-46.45,804.4C1977.11,2520.8,1623,2500.66,1411.87,2259.94Z"/><path class="cls-22" d="M1375.12,2254.55l-120.69,108c11.15,49.3,4.32,83.68-7.3,108.07-43.69,91.79-168.27,71.58-268.51,201.94-50.3,65.42-27.47,81.61-78.47,134.63-84.31,87.65-157.06,54.16-231.21,132.74-75,79.48-47.2,163.17-100.74,184.54-22.9,9.14-59.19,6.23-119.83-40.5l-19.8,17.72c-24.14,21.6-25.89,57.84-3.92,80.86L438.43,3197c21.9,22.94,59.08,24,83.05,2.4l940-846.6Z"/><path class="cls-23" d="M2362,1456.6c-238.74-293.86-662.1-341.31-945.09-95.75-288.19,250.07-311.43,698.8-52.78,991.64,252.59,286,674,307.93,942.35,59.08C2570.18,2167,2595.34,1743.79,2362,1456.6Zm-915.56,822C1231.05,2033,1250.72,1658,1491,1448.32c236.64-206.48,592.05-168.37,793.46,77.92C2482,1767.81,2461,2124.88,2238,2330.64,2011.71,2539.45,1657.63,2519.31,1446.46,2278.59Z"/><path class="cls-24" d="M2334.63,1481.19c-225.57-277-624.9-321.09-891.45-89.34C1172,1627.62,1150,2050.21,1393.31,2326.31c237.9,270,635.52,291.38,889,56.7C2531.68,2152.16,2555.37,1752.26,2334.63,1481.19Zm-888.17,797.4C1231.05,2033,1250.72,1658,1491,1448.32c236.64-206.48,592.05-168.37,793.46,77.92C2482,1767.81,2461,2124.88,2238,2330.64,2011.71,2539.45,1657.63,2519.31,1446.46,2278.59Z"/><path class="cls-25" d="M1497.7,979.1c37.67,19.12,85,1.55,105.69-39.24s6.94-89.35-30.73-108.47c-2-1-3.94-1.82-5.94-2.62a477.49,477.49,0,0,0,15.8-68.07c2.16,0,4.33,0,6.53-.24,43-3.84,77.07-43.33,76.16-88.22s-36.48-78.15-79.45-74.32c-2.25.21-4.45.56-6.65,1a437.11,437.11,0,0,0-18.41-65c2-1.15,4-2.35,5.87-3.7,36.76-25.76,48.5-76.6,26.23-113.55s-70.13-46-106.89-20.26c-1.89,1.32-3.66,2.75-5.41,4.2a388.67,388.67,0,0,0-47.69-44.5c1.21-2,2.4-4,3.47-6.12,20.7-40.79,47.75-85.34,9.79-103.87-87.83-42.85-125.51-6.15-146.21,34.64-1.07,2.12-2,4.26-2.88,6.41a389.46,389.46,0,0,0-64.08-12.22c.14-2.26.24-4.54.2-6.84-.91-44.88,12.4-69.17-30.74-70-94.06-1.81-125.79,39-124.89,83.9,0,2.35.25,4.64.48,6.92a437.3,437.3,0,0,0-63.33,23.52c-1-2-2-4-3.16-5.93-22.27-37-70.13-46-106.89-20.25s-48.51,76.61-26.24,113.56c1.14,1.89,2.39,3.66,3.66,5.41a478.15,478.15,0,0,0-45.61,52.94c-1.82-1.14-3.67-2.26-5.62-3.25-37.67-19.12-85-1.55-105.69,39.24s-7,89.36,30.72,108.47c2,1,4,1.83,6,2.62a476.45,476.45,0,0,0-15.8,68.07c-2.16,0-4.33.05-6.53.24-43,3.84-77.08,43.34-76.17,88.22s36.49,78.16,79.46,74.32c2.24-.2,4.45-.55,6.64-.94a439.4,439.4,0,0,0,18.41,65c-2,1.16-3.94,2.36-5.86,3.7-36.76,25.77-48.51,76.61-26.23,113.56s96,54.11,132.75,28.34c1.89-1.32-22.2-10.83-20.45-12.28a387.23,387.23,0,0,0,47.69,44.5c-1.21,2-2.4,4-3.47,6.11-20.7,40.79-6.95,89.36,30.73,108.47s85,1.55,105.69-39.24c1.07-2.11,2-4.25,2.88-6.4a388.08,388.08,0,0,0,64.07,12.21c-.13,2.27-.23,4.54-.19,6.84.91,44.89,36.48,78.16,79.46,74.32s77.07-43.33,76.16-88.22c0-2.34-.24-4.64-.47-6.91a438.17,438.17,0,0,0,63.33-23.52c1,2,2,4,3.16,5.92,22.27,37,70.13,46,106.89,20.26s48.51-76.61,26.24-113.57c-1.14-1.89-2.39-3.66-3.66-5.4a479.22,479.22,0,0,0,45.61-52.94C1493.9,977,1495.75,978.12,1497.7,979.1Zm-469.56,6C891.37,915.74,841.42,739.41,916.58,591.31s247-211.88,383.73-142.47S1487,694.58,1411.88,842.67,1164.92,1054.56,1028.14,985.15Z"/><path class="cls-25" d="M1589.05,760.46c43-3.84,77.07-43.33,76.16-88.22s-36.48-78.16-79.45-74.32c-2.25.21-4.45.56-6.65,1a437.11,437.11,0,0,0-18.41-65c2-1.15,4-2.35,5.87-3.7,36.76-25.76,82.23-88,56.29-122.48-49.25-65.42-100.19-37.09-136.95-11.33-1.89,1.32-3.66,2.75-5.41,4.19a388.59,388.59,0,0,0-47.69-44.49c1.21-2,2.4-4,3.47-6.12,11.27-22.19,12.26-46.67,4.81-67.47q-53.25,93.76-104.92,188.4c109.12,79.92,143.88,237.47,75.71,371.8-57.77,113.84-172.64,177.78-284.81,169.79-5,13-9.91,26-15.27,38.87-14.53,34.88-31,69-47.57,103.16q15.6,2.94,31.32,4.59c-.13,2.27-.23,4.54-.19,6.84.91,44.89,28.17,83,106.05,78.87,43.09-2.29,50.48-47.88,49.57-92.77,0-2.34-.24-4.64-.47-6.91a438.17,438.17,0,0,0,63.33-23.52c1,2,2,4,3.16,5.92,22.27,37,99.52,52.64,136.28,26.88s19.12-83.23-3.15-120.18c-1.14-1.9-2.39-3.67-3.66-5.41a480.13,480.13,0,0,0,45.61-52.94c1.82,1.14,3.67,2.26,5.62,3.24,37.67,19.12,85,1.55,105.69-39.24s6.94-89.35-30.73-108.47c-2-1-3.94-1.82-5.94-2.62a477.49,477.49,0,0,0,15.8-68.07C1584.68,760.7,1586.85,760.66,1589.05,760.46Z"/><path class="cls-26" d="M1538.21,983.7c37.67,19.12,85,1.55,105.69-39.24s6.95-89.35-30.72-108.47c-2-1-4-1.82-6-2.62A476.13,476.13,0,0,0,1623,765.3c2.16,0,4.33,0,6.53-.24,43-3.84,77.08-43.33,76.17-88.22s-36.48-78.15-79.46-74.32c-2.24.21-4.45.56-6.64,1a439.52,439.52,0,0,0-18.41-65c2-1.15,3.94-2.35,5.86-3.7,36.76-25.76,48.51-76.6,26.23-113.56s-70.13-46-106.89-20.25c-1.88,1.32-3.65,2.75-5.41,4.2a387.23,387.23,0,0,0-47.69-44.5c1.21-2,2.4-4,3.47-6.12,20.7-40.79,7-89.35-30.72-108.47s-85-1.55-105.69,39.24c-1.08,2.12-2,4.26-2.89,6.41a389.15,389.15,0,0,0-64.07-12.22c.13-2.27.24-4.54.19-6.84-.91-44.88-36.48-78.15-79.46-74.31s-77.07,43.33-76.16,88.21c0,2.35.24,4.64.47,6.92A438.17,438.17,0,0,0,1055.13,317c-1-2-2-4-3.16-5.93-22.27-36.95-70.13-46-106.89-20.25s-48.51,76.61-26.23,113.56c1.14,1.89,2.39,3.66,3.66,5.41a478.23,478.23,0,0,0-45.62,52.94c-1.82-1.14-3.67-2.26-5.62-3.25-37.67-19.12-85-1.55-105.69,39.24s-6.94,89.36,30.73,108.47c2,1,3.94,1.83,5.94,2.62a477.8,477.8,0,0,0-15.8,68.07c-2.16,0-4.33,0-6.53.24-43,3.84-77.07,43.34-76.16,88.22s36.48,78.16,79.45,74.32c2.25-.2,4.45-.55,6.65-.94a438.19,438.19,0,0,0,18.41,65c-2,1.16-3.94,2.35-5.87,3.7C765.64,934.18,753.9,985,776.17,1022s70.13,46,106.89,20.25c1.89-1.32,3.66-2.74,5.41-4.19a388.67,388.67,0,0,0,47.69,44.5c-1.21,2-2.4,4-3.47,6.11-20.7,40.79-6.94,89.36,30.73,108.47s85,1.55,105.69-39.24c1.07-2.11,2-4.25,2.88-6.4a388.39,388.39,0,0,0,64.08,12.21c-.14,2.27-.24,4.54-.2,6.84.91,44.89,36.49,78.16,79.46,74.32s77.08-43.33,76.17-88.22c0-2.34-.25-4.64-.48-6.91a437.3,437.3,0,0,0,63.33-23.52c1,2,2,4,3.16,5.92,22.28,37,70.13,46,106.9,20.26s48.5-76.61,26.23-113.57c-1.14-1.89-2.39-3.66-3.66-5.4a477.35,477.35,0,0,0,45.61-53C1534.41,981.6,1536.26,982.71,1538.21,983.7Zm-469.55,6C931.88,920.34,881.93,744,957.09,595.91s247-211.88,383.74-142.47,186.72,245.74,111.56,393.83S1205.43,1059.16,1068.66,989.75Z"/><path class="cls-25" d="M745.58,1636.73c27.67,14,62.43,1.14,77.64-28.83s5.1-65.64-22.58-79.68c-1.43-.73-2.89-1.34-4.36-1.92a351.07,351.07,0,0,0,11.61-50c1.58,0,3.18,0,4.79-.18,31.57-2.82,56.62-31.83,56-64.8s-26.8-57.42-58.36-54.6c-1.65.15-3.27.41-4.89.7a322.2,322.2,0,0,0-13.52-47.75c1.45-.85,2.9-1.73,4.31-2.72,27-18.92,35.63-56.27,19.27-83.42s-51.52-33.8-78.53-14.87c-1.38,1-2.68,2-4,3.08a285.16,285.16,0,0,0-35-32.69c.89-1.46,1.76-2.94,2.55-4.49,15.2-30,35.08-62.7,7.19-76.31-64.52-31.48-92.2-4.51-107.4,25.45-.79,1.55-1.47,3.13-2.12,4.71a285.57,285.57,0,0,0-47.07-9c.1-1.66.17-3.33.14-5-.67-33,9.11-50.82-22.58-51.43-69.1-1.33-92.41,28.67-91.74,61.64,0,1.72.18,3.41.35,5.08A321.94,321.94,0,0,0,390.71,1147c-.72-1.47-1.47-2.93-2.32-4.35-16.37-27.14-51.52-33.8-78.53-14.87s-35.63,56.27-19.27,83.42c.84,1.39,1.76,2.69,2.69,4A352,352,0,0,0,259.77,1254c-1.34-.84-2.7-1.66-4.13-2.39-27.67-14-62.43-1.13-77.64,28.83s-5.1,65.64,22.57,79.68c1.44.73,2.9,1.34,4.37,1.93a351.26,351.26,0,0,0-11.61,50c-1.59,0-3.18,0-4.79.18-31.57,2.82-56.62,31.83-56,64.8s26.8,57.42,58.37,54.6c1.65-.15,3.27-.41,4.88-.7a323.45,323.45,0,0,0,13.53,47.75c-1.45.85-2.9,1.73-4.31,2.72-27,18.93-35.63,56.28-19.27,83.42s70.52,39.75,97.52,20.82c1.39-1-16.31-8-15-9a285.93,285.93,0,0,0,35,32.69c-.89,1.46-1.76,2.93-2.55,4.49-15.21,30-5.1,65.64,22.57,79.68s62.44,1.14,77.64-28.83c.79-1.55,1.47-3.12,2.12-4.7a285.34,285.34,0,0,0,47.07,9c-.1,1.67-.17,3.34-.14,5,.67,33,26.8,57.41,58.37,54.59s56.62-31.83,56-64.81c0-1.72-.18-3.4-.35-5.08a321.2,321.2,0,0,0,46.52-17.27c.72,1.47,1.47,2.93,2.32,4.35,16.37,27.14,51.52,33.81,78.53,14.88s35.63-56.28,19.27-83.42c-.84-1.39-1.76-2.69-2.69-4a350.14,350.14,0,0,0,33.51-38.89C742.79,1635.18,744.14,1636,745.58,1636.73Zm-344.94,4.44c-100.47-51-137.17-180.52-82-289.31s181.42-155.66,281.9-104.67,137.17,180.52,81.95,289.32S501.11,1692.16,400.64,1641.17Z"/><path class="cls-25" d="M812.68,1476.12c31.57-2.83,56.62-31.84,56-64.81s-26.8-57.42-58.36-54.6c-1.65.15-3.27.41-4.89.7a322.2,322.2,0,0,0-13.52-47.75c1.45-.85,2.9-1.73,4.31-2.72,27-18.92,60.41-64.65,41.35-90-36.18-48.06-73.6-27.25-100.61-8.32-1.38,1-2.68,2-4,3.08a284.39,284.39,0,0,0-35-32.69c.89-1.46,1.76-2.94,2.55-4.49A62.89,62.89,0,0,0,704,1125q-39.12,68.88-77.07,138.4c80.16,58.71,105.69,174.45,55.61,273.13-42.43,83.62-126.81,130.59-209.22,124.72-3.67,9.53-7.28,19.12-11.21,28.56-10.68,25.62-22.81,50.71-35,75.77q11.46,2.16,23,3.38c-.1,1.67-.17,3.34-.14,5,.67,33,20.69,61,77.9,57.93,31.65-1.68,37.09-35.17,36.42-68.15,0-1.72-.18-3.4-.35-5.08a321.2,321.2,0,0,0,46.52-17.27c.72,1.47,1.47,2.93,2.32,4.35,16.37,27.14,73.11,38.67,100.12,19.74s14-61.14-2.32-88.28c-.84-1.39-1.76-2.69-2.69-4a350.14,350.14,0,0,0,33.51-38.89c1.34.84,2.69,1.66,4.13,2.39,27.67,14,62.43,1.14,77.64-28.83s5.1-65.64-22.57-79.68c-1.44-.73-2.9-1.34-4.37-1.92a351.07,351.07,0,0,0,11.61-50C809.47,1476.29,811.07,1476.26,812.68,1476.12Z"/><path class="cls-27" d="M775.34,1640.11c27.67,14,62.43,1.14,77.64-28.83s5.1-65.64-22.57-79.68c-1.44-.73-2.9-1.34-4.37-1.93a350.94,350.94,0,0,0,11.61-50c1.58,0,3.18,0,4.79-.18,31.57-2.82,56.62-31.83,56-64.8s-26.8-57.42-58.37-54.6c-1.65.15-3.27.41-4.88.7A323.45,323.45,0,0,0,821.62,1313c1.45-.85,2.9-1.73,4.31-2.72,27-18.92,35.63-56.27,19.27-83.42s-51.52-33.8-78.52-14.88c-1.39,1-2.69,2-4,3.09a284.39,284.39,0,0,0-35-32.69c.89-1.46,1.76-2.94,2.55-4.49,15.21-30,5.1-65.64-22.57-79.69s-62.44-1.14-77.64,28.83c-.79,1.55-1.47,3.13-2.12,4.71a285.37,285.37,0,0,0-47.07-9c.1-1.67.17-3.33.14-5-.67-33-26.8-57.42-58.37-54.6S466,1095,466.64,1128c0,1.72.18,3.41.35,5.08a322.81,322.81,0,0,0-46.52,17.27c-.72-1.47-1.47-2.93-2.32-4.35-16.36-27.14-51.52-33.8-78.53-14.88s-35.63,56.28-19.27,83.43c.84,1.39,1.76,2.69,2.69,4a350.14,350.14,0,0,0-33.51,38.89c-1.34-.84-2.69-1.66-4.13-2.39-27.67-14-62.43-1.13-77.64,28.83s-5.1,65.64,22.58,79.68c1.43.73,2.89,1.34,4.36,1.93a351.26,351.26,0,0,0-11.61,50c-1.58,0-3.17,0-4.79.18-31.57,2.82-56.62,31.83-56,64.8s26.8,57.42,58.37,54.6c1.64-.15,3.27-.41,4.88-.7a322.2,322.2,0,0,0,13.52,47.75c-1.45.85-2.9,1.73-4.31,2.72-27,18.92-35.63,56.27-19.27,83.42s51.52,33.8,78.53,14.88c1.38-1,2.68-2,4-3.08a285.93,285.93,0,0,0,35,32.69c-.89,1.46-1.76,2.93-2.55,4.49-15.2,30-5.1,65.63,22.58,79.68s62.43,1.14,77.64-28.83c.78-1.55,1.46-3.13,2.11-4.7a285.54,285.54,0,0,0,47.07,9c-.1,1.67-.17,3.34-.14,5,.67,33,26.8,57.41,58.37,54.59s56.62-31.84,56-64.81c0-1.72-.18-3.4-.35-5.08a320.76,320.76,0,0,0,46.52-17.27c.72,1.47,1.47,2.93,2.33,4.35,16.36,27.14,51.51,33.8,78.52,14.88s35.63-56.28,19.27-83.43c-.84-1.38-1.75-2.69-2.69-4a350.14,350.14,0,0,0,33.51-38.89C772.55,1638.56,773.91,1639.38,775.34,1640.11Zm-344.94,4.44c-100.47-51-137.17-180.52-81.95-289.31s181.42-155.66,281.89-104.67,137.17,180.52,82,289.32S530.88,1695.54,430.4,1644.55Z"/></g></g></svg>